<?xml version="1.0" standalone="no"?>
<!DOCTYPE svg PUBLIC "-//W3C//DTD SVG 1.1//EN" "http://www.w3.org/Graphics/SVG/1.1/DTD/svg11.dtd" >
<svg xmlns="http://www.w3.org/2000/svg" xmlns:xlink="http://www.w3.org/1999/xlink" version="1.1">
<metadata>
Created by FontForge 20170731 at Wed Sep 20 01:01:39 2017
 By Aleksey,,,
Copyright 2016 Google Inc. All Rights Reserved.
</metadata>
<defs>
<font id="NotoSerifDisplay-ExtraCondensedLight" horiz-adv-x="0" >
  <font-face 
    font-family="Noto Serif Disp ExtCond Light"
    font-weight="300"
    font-stretch="extra-condensed"
    units-per-em="1000"
    panose-1="2 2 4 6 8 5 5 2 2 4"
    ascent="800"
    descent="-200"
    x-height="536"
    cap-height="714"
    bbox="-508 -389 2170 1047"
    underline-thickness="50"
    underline-position="-175"
    unicode-range="U+000D-FFFD"
  />
<missing-glyph horiz-adv-x="600" 
d="M94 0v714h411v-714h-411zM114 20h371v674h-371v-674z" />
    <glyph glyph-name="f_f" unicode="ff" horiz-adv-x="538" 
d="M23 0v10h19q21 0 33 5t17 21.5t5 51.5v438h-70v10h70v57q0 178 137 178q47 0 70 -19.5t23 -52.5q0 -23 -10 -36.5t-33 -13.5q0 62 -9 87t-40 25q-44 0 -61 -39.5t-17 -112.5v-73h201v31q0 97 34.5 150.5t100.5 53.5q51 0 74.5 -19.5t23.5 -52.5q0 -47 -46 -47
q0 55 -9.5 82t-42.5 27q-41 0 -58 -45t-17 -127v-53h111v-10h-111v-438q0 -35 5 -51.5t17 -21.5t34 -5h38v-10h-228v10h19q21 0 33 5t17 21.5t5 51.5v438h-201v-438q0 -35 5 -51.5t16.5 -21.5t33.5 -5h14v-10h-203z" />
    <glyph glyph-name="f_i" unicode="fi" horiz-adv-x="505" 
d="M23 0v10h19q21 0 33 5t17 21.5t5 51.5v438h-70v10h70v41q0 96 45.5 148t137.5 52q68 0 102 -25t34 -59q0 -21 -13 -33.5t-39 -12.5q0 62 -17 91t-70 29q-65 0 -92.5 -50t-27.5 -132v-49h264v-451q0 -33 4.5 -49t17.5 -21t40 -5h12v-10h-204v10h6q27 0 41 5t18.5 21
t4.5 49v441h-204v-438q0 -35 5 -51.5t16.5 -21.5t33.5 -5h18v-10h-207z" />
    <glyph glyph-name="f_l" unicode="fl" horiz-adv-x="504" 
d="M27 0v10h15q21 0 33 5t17 21.5t5 51.5v438h-70v10h70v34q0 95 45 147.5t131 52.5q47 0 76 -10h69v-677q0 -33 4.5 -48.5t20 -20t47.5 -4.5h5v-10h-207v10h4q29 0 43 4.5t18.5 20t4.5 48.5v562q0 38 -3.5 63.5t-21 38.5t-58.5 13q-64 0 -91 -48.5t-27 -125.5v-50h110v-10
h-110v-438q0 -35 5 -51.5t16.5 -21.5t33.5 -5h17v-10h-202z" />
    <glyph glyph-name="f_f_i" unicode="ffi" horiz-adv-x="758" 
d="M23 0v10h19q21 0 33 5t17 21.5t5 51.5v438h-70v10h70v48q0 178 137 178q46 0 68.5 -20.5t22.5 -53.5q0 -22 -9.5 -35t-31.5 -13q0 62 -8.5 87t-40.5 25q-44 0 -61 -39.5t-17 -111.5v-65h198v40q0 95 45.5 148t133.5 53q70 0 105 -25.5t35 -59.5q0 -49 -57 -49
q0 65 -16.5 94.5t-68.5 29.5q-62 0 -89.5 -48.5t-27.5 -126.5v-56h259v-451q0 -33 4.5 -49t18 -21t40.5 -5h12v-10h-204v10h5q28 0 41.5 5t18 21t4.5 49v441h-199v-438q0 -35 5 -51.5t17.5 -21.5t33.5 -5h13v-10h-198v10h15q21 0 32.5 5t16.5 21.5t5 51.5v438h-198v-438
q0 -35 5 -51.5t16.5 -21.5t33.5 -5h14v-10h-203z" />
    <glyph glyph-name="f_f_l" unicode="ffl" horiz-adv-x="765" 
d="M23 0v10h19q21 0 33 5t17 21.5t5 51.5v438h-70v10h70v57q0 178 137 178q47 0 70 -19.5t23 -52.5q0 -23 -10 -36.5t-33 -13.5q0 62 -9 87t-40 25q-44 0 -61 -39.5t-17 -112.5v-73h201v34q0 95 45 147.5t132 52.5q46 0 75 -10h69v-677q0 -33 5 -48.5t20 -20t46 -4.5h6v-10
h-207v10h4q29 0 43 4.5t18.5 20t4.5 48.5v562q0 40 -4 65.5t-21.5 37.5t-57.5 12q-64 0 -91 -48.5t-27 -125.5v-50h111v-10h-111v-438q0 -35 5 -51.5t17 -21.5t33 -5h18v-10h-203v10h15q21 0 33 5t17 21.5t5 51.5v438h-201v-438q0 -35 5 -51.5t16.5 -21.5t33.5 -5h14v-10
h-203z" />
    <glyph glyph-name=".notdef" horiz-adv-x="600" 
d="M94 0v714h411v-714h-411zM114 20h371v674h-371v-674z" />
    <glyph glyph-name=".null" 
 />
    <glyph glyph-name="nonmarkingreturn" horiz-adv-x="333" 
 />
    <glyph glyph-name="NULL" 
 />
    <glyph glyph-name="NULL" 
 />
    <glyph glyph-name="CR" unicode="&#xd;" horiz-adv-x="175" 
 />
    <glyph glyph-name="space" unicode=" " horiz-adv-x="175" 
 />
    <glyph glyph-name="exclam" unicode="!" horiz-adv-x="248" 
d="M110 201l-25 513h64l-23 -513h-16zM117 -6q-13 0 -22.5 11t-9.5 39t9.5 38.5t22.5 10.5t22 -10.5t9 -38.5t-9 -39t-22 -11z" />
    <glyph glyph-name="quotedbl" unicode="&#x22;" horiz-adv-x="209" 
d="M51 479l-21 235h54l-20 -235h-13zM146 479l-21 235h54l-20 -235h-13z" />
    <glyph glyph-name="numbersign" unicode="#" horiz-adv-x="425" 
d="M41 0l43 227h-82v10h83l47 247h-98v10h100l41 220h10l-41 -220h164l41 220h10l-41 -220h104v-10h-106l-47 -247h121v-10h-122l-43 -227h-10l43 227h-164l-43 -227h-10zM95 237h164l47 247h-164z" />
    <glyph glyph-name="dollar" unicode="$" horiz-adv-x="429" 
d="M211 -79v121q-61 2 -96.5 22t-50.5 49t-15 57q0 25 12 41.5t29 16.5q0 -98 30 -136.5t91 -39.5v291q-41 23 -73 47.5t-50 58t-18 81.5q0 70 38 109.5t103 44.5v76h10v-76q73 -1 106.5 -33t33.5 -77q0 -55 -44 -55q0 44 -6.5 78.5t-26.5 54.5t-63 21v-275
q84 -44 118.5 -91t34.5 -102q0 -75 -40 -116.5t-113 -46.5v-121h-10zM211 404v269q-53 -5 -75 -39.5t-22 -87.5q0 -55 24.5 -84.5t72.5 -57.5zM221 52q54 3 81 37.5t27 93.5q0 53 -25.5 89t-82.5 65v-285z" />
    <glyph glyph-name="percent" unicode="%" horiz-adv-x="693" 
d="M161 280q-64 0 -93.5 57t-29.5 166q0 107 30 164t94 57t94 -57t30 -164t-30 -165t-95 -58zM196 0l287 714h10l-287 -714h-10zM162 290q44 0 60.5 50.5t16.5 162.5q0 111 -16.5 161t-60.5 50t-60.5 -50t-16.5 -161q0 -112 16.5 -162.5t60.5 -50.5zM531 -10q-64 0 -94 57
t-30 166q0 107 30.5 164t94.5 57t94 -57t30 -164t-30.5 -165t-94.5 -58zM531 0q45 0 61.5 50.5t16.5 162.5q0 111 -16.5 161t-61.5 50q-43 0 -59.5 -50t-16.5 -161q0 -112 16.5 -162.5t59.5 -50.5z" />
    <glyph glyph-name="ampersand" unicode="&#x26;" horiz-adv-x="563" 
d="M201 -10q-84 0 -130 57.5t-46 146.5q0 73 34.5 120.5t105.5 76.5q-37 47 -56.5 87.5t-19.5 95.5q0 64 36 107t107 43q65 0 99 -41.5t34 -99.5q0 -59 -31.5 -104.5t-111.5 -77.5l155 -215q12 40 18 86t6 89v57h130v-10h-11q-30 0 -45.5 -4.5t-22.5 -19.5t-10 -46
q-5 -50 -13.5 -96.5t-25.5 -90.5l76 -100q19 -25 33.5 -33t37.5 -8h6v-10h-108l-73 98q-28 -45 -69 -76.5t-105 -31.5zM216 409q52 25 78 65.5t26 108.5q0 59 -21 95t-68 36q-45 0 -68.5 -33t-23.5 -92q0 -45 17 -84.5t60 -95.5zM211 2q51 0 87 30.5t61 89.5l-188 259
q-35 -20 -62.5 -61.5t-27.5 -121.5q0 -73 17.5 -115.5t46.5 -61.5t66 -19z" />
    <glyph glyph-name="quotesingle" unicode="'" horiz-adv-x="114" 
d="M51 479l-21 235h54l-20 -235h-13z" />
    <glyph glyph-name="parenleft" unicode="(" horiz-adv-x="255" 
d="M231 -122q-89 41 -138 148.5t-49 289.5q0 180 49 287.5t138 148.5v-10q-56 -34 -91 -143t-35 -283q0 -175 35 -284.5t91 -143.5v-10z" />
    <glyph glyph-name="parenright" unicode=")" horiz-adv-x="255" 
d="M24 -122v10q56 34 90.5 143.5t34.5 284.5q0 174 -34.5 283t-90.5 143v10q88 -41 137.5 -148.5t49.5 -287.5q0 -182 -49.5 -289.5t-137.5 -148.5z" />
    <glyph glyph-name="asterisk" unicode="*" horiz-adv-x="361" 
d="M156 378l16 177l-116 -88l-23 45l134 57l-134 57l23 46l116 -90l-16 178h48l-17 -179l116 89l22 -45l-134 -56l134 -56l-22 -44l-116 87l17 -178h-48z" />
    <glyph glyph-name="plus" unicode="+" horiz-adv-x="425" 
d="M203 143v205h-153v20h153v204h20v-204h152v-20h-152v-205h-20z" />
    <glyph glyph-name="comma" unicode="," horiz-adv-x="184" 
d="M27 -155v11q33 14 57 44t24 63q0 21 -9.5 31t-22 16t-22 15t-9.5 28q0 21 11.5 30.5t27.5 9.5q22 0 38.5 -19.5t16.5 -64.5q0 -48 -25.5 -94t-86.5 -70z" />
    <glyph glyph-name="hyphen" unicode="-" horiz-adv-x="241" 
d="M20 263v20h201v-20h-201z" />
    <glyph glyph-name="period" unicode="." horiz-adv-x="184" 
d="M86 -7q-32 0 -32 50q0 26 8.5 37.5t23.5 11.5q14 0 22.5 -11.5t8.5 -37.5q0 -50 -31 -50z" />
    <glyph glyph-name="slash" unicode="/" horiz-adv-x="196" 
d="M0 -121l186 881h10l-186 -881h-10z" />
    <glyph glyph-name="zero" unicode="0" horiz-adv-x="435" 
d="M217 -10q-96 0 -137.5 94t-41.5 275q0 173 40 269t140 96q93 0 135.5 -93t42.5 -273q0 -186 -44 -277t-135 -91zM217 0q64 0 92 85t28 273t-28 272t-91 84q-65 0 -93 -84t-28 -272t27.5 -273t92.5 -85z" />
    <glyph glyph-name="one" unicode="1" horiz-adv-x="435" 
d="M84 0v10h57q23 0 34.5 5.5t15.5 23t4 51.5v582q-40 -64 -63.5 -89t-45.5 -25q-29 0 -29 27q39 8 68 28.5t66 68.5l26 36h36v-628q0 -50 9.5 -65t43.5 -15h48v-10h-270z" />
    <glyph glyph-name="two" unicode="2" horiz-adv-x="435" 
d="M42 0v41l124 182q56 83 86.5 140t42 101t11.5 88q0 76 -20.5 119t-76.5 43q-54 0 -75 -43t-21 -125q-19 0 -34.5 11t-15.5 40q0 27 15.5 56.5t48.5 50t84 20.5q78 0 116 -47t38 -121q0 -36 -9.5 -70t-32 -74.5t-62 -95.5t-100.5 -134l-100 -133h247q38 0 49 15t13 53
l1 35h10l-3 -152h-336z" />
    <glyph glyph-name="three" unicode="3" horiz-adv-x="435" 
d="M202 -9q-75 0 -112.5 33.5t-37.5 74.5q0 25 12 37.5t29 12.5q0 -68 22.5 -108t80.5 -40q57 0 94 43.5t37 144.5q0 89 -34.5 134t-108.5 45h-29v10h27q55 0 90.5 46t35.5 141q0 75 -23 112t-72 37q-54 0 -74 -44t-20 -127q-19 0 -34 11.5t-15 42.5q0 52 39 89.5t109 37.5
t109.5 -42.5t39.5 -118.5q0 -70 -36 -123t-109 -64q44 -4 81.5 -22t60 -56.5t22.5 -105.5q0 -74 -27.5 -118.5t-70 -63.5t-86.5 -19z" />
    <glyph glyph-name="four" unicode="4" horiz-adv-x="435" 
d="M178 0v10h21q25 0 39.5 5t20.5 22t6 52v114h-250v24l251 487h57v-477h100v-34h-100v-114q0 -35 5.5 -52t19.5 -22t39 -5h11v-10h-220zM31 237h234v215q0 68 0.5 134t1.5 112q-4 -9 -14 -29l-22 -44t-23.5 -46.5t-19.5 -37.5z" />
    <glyph glyph-name="five" unicode="5" horiz-adv-x="435" 
d="M189 -10q-51 0 -83 18t-46.5 42.5t-14.5 45.5q0 20 10.5 32.5t27.5 12.5q0 -63 23.5 -102t79.5 -39q61 0 94 50t33 162q0 105 -33 151.5t-92 46.5q-38 0 -64.5 -16.5t-40.5 -37.5l-11 4l26 353h248l3 -130h-9l-1 22q-2 38 -12 48t-43 10h-176l-20 -284q18 21 47 34t66 13
q76 0 123 -53t47 -161q0 -115 -51 -168.5t-131 -53.5z" />
    <glyph glyph-name="six" unicode="6" horiz-adv-x="435" 
d="M227 -10q-84 0 -130 83t-46 273q0 136 23 219.5t67 121t108 37.5q63 0 93.5 -30t30.5 -71q0 -28 -13 -39t-33 -11q0 74 -17.5 107.5t-62.5 33.5q-47 0 -78 -33.5t-46.5 -112t-15.5 -213.5q19 25 51 50.5t82 25.5q71 0 110.5 -54.5t39.5 -160.5q0 -82 -22 -131.5t-59 -72
t-82 -22.5zM231 0q48 0 75.5 50t27.5 169q0 106 -25 152.5t-78 46.5q-46 0 -76 -26.5t-48 -53.5q1 -182 32 -260t92 -78z" />
    <glyph glyph-name="seven" unicode="7" horiz-adv-x="435" 
d="M141 0l233 663h-263q-29 0 -40.5 -10.5t-13.5 -50.5l-3 -51h-10l5 162h343v-30l-209 -683h-42z" />
    <glyph glyph-name="eight" unicode="8" horiz-adv-x="435" 
d="M215 -10q-84 0 -128.5 49.5t-44.5 133.5q0 72 36 118.5t110 76.5q-59 30 -92.5 74t-33.5 107q0 49 17 88.5t52.5 63t90.5 23.5q78 0 116 -47.5t38 -119.5q0 -62 -29.5 -101.5t-93.5 -66.5q43 -25 74.5 -52.5t49 -66t17.5 -94.5q0 -90 -48.5 -138t-130.5 -48zM242 396
q52 28 68 66t16 96q0 68 -24.5 112t-80.5 44q-51 0 -79.5 -38t-28.5 -105q0 -64 30.5 -102t98.5 -73zM217 0q59 0 93 38.5t34 117.5q0 74 -34 120t-109 84q-59 -28 -83 -76t-24 -113q0 -83 30 -127t93 -44z" />
    <glyph glyph-name="nine" unicode="9" horiz-adv-x="435" 
d="M182 -10q-56 0 -86 25t-30 56q0 32 31 36q5 -53 25 -80t64 -27q71 0 106 83t35 271q-15 -22 -46.5 -46.5t-84.5 -24.5q-72 0 -112.5 51t-40.5 159q0 107 40.5 169t121.5 62q54 0 94 -34t62 -111t22 -207q0 -199 -51.5 -290.5t-149.5 -91.5zM206 296q34 0 57.5 13t39 30.5
t24.5 32.5q0 177 -32 259.5t-95 82.5q-52 0 -76 -55t-24 -167q0 -106 25 -151t81 -45z" />
    <glyph glyph-name="colon" unicode=":" horiz-adv-x="205" 
d="M95 420q-31 0 -31 50q0 26 8 37.5t23 11.5q14 0 23 -11.5t9 -37.5t-9 -38t-23 -12zM95 -6q-15 0 -23 11.5t-8 38.5q0 26 8 37.5t23 11.5q14 0 23 -11.5t9 -37.5q0 -27 -9 -38.5t-23 -11.5z" />
    <glyph glyph-name="semicolon" unicode=";" horiz-adv-x="205" 
d="M103 418q-13 0 -22.5 11t-9.5 39t9.5 38.5t22.5 10.5t22.5 -10.5t9.5 -38.5t-9.5 -39t-22.5 -11zM37 -155v11q34 14 58 44t24 63q0 21 -9.5 31t-22 16t-22 15t-9.5 28q0 21 11.5 30.5t27.5 9.5q22 0 38 -19.5t16 -64.5q0 -48 -25.5 -94t-86.5 -70z" />
    <glyph glyph-name="less" unicode="&#x3c;" horiz-adv-x="425" 
d="M371 119l-317 228v20l317 228v-24l-299 -214l299 -214v-24z" />
    <glyph glyph-name="equal" unicode="=" horiz-adv-x="425" 
d="M51 447v20h322v-20h-322zM51 248v20h322v-20h-322z" />
    <glyph glyph-name="greater" unicode="&#x3e;" horiz-adv-x="425" 
d="M54 119v24l299 214l-299 214v24l317 -228v-20z" />
    <glyph glyph-name="question" unicode="?" horiz-adv-x="385" 
d="M167 201l-15 133q69 26 97 79t28 139q0 85 -24 123.5t-75 38.5q-52 0 -70.5 -39t-18.5 -112q-23 0 -38 10.5t-15 38.5q0 26 15 51.5t46 43t81 17.5q73 0 116.5 -44t43.5 -133q0 -83 -37 -134.5t-107 -80.5l-12 -131h-15zM176 -6q-14 0 -23 11t-9 39t9 38.5t23 10.5
q13 0 22 -10.5t9 -38.5t-9 -39t-22 -11z" />
    <glyph glyph-name="at" unicode="@" horiz-adv-x="713" 
d="M317 -142q-119 0 -190.5 85t-71.5 259q0 110 26.5 203.5t75 162.5t114 107.5t143.5 38.5q84 0 141 -41.5t85.5 -114t28.5 -167.5q0 -92 -23 -163t-59.5 -111t-76.5 -40q-35 0 -57 26.5t-25 76.5h-3q-16 -44 -41.5 -73.5t-69.5 -29.5q-47 0 -76.5 40.5t-29.5 125.5
q0 47 11.5 97t34.5 93t58 69.5t83 26.5q31 0 49 -12t28 -25l34 28h10l-42 -243q-4 -23 -6.5 -46t-2.5 -49q0 -47 9.5 -71t36.5 -24q31 0 58.5 38.5t45 107.5t17.5 160q0 143 -52.5 227t-162.5 84q-70 0 -129 -37t-102 -104.5t-66.5 -160t-23.5 -202.5q0 -176 60 -254
t164 -78q64 0 113.5 28t93.5 69l5 -8q-41 -39 -93.5 -69t-121.5 -30zM324 90q26 0 47 23.5t34.5 60t19.5 73.5l38 223q-7 22 -23.5 35.5t-42.5 13.5q-37 0 -64.5 -28t-44.5 -72t-25.5 -93t-8.5 -92q0 -78 19 -111t51 -33z" />
    <glyph glyph-name="A" unicode="A" horiz-adv-x="536" 
d="M0 0v10h27q26 0 37.5 15t24.5 66l163 623h42l183 -662q7 -26 17 -34t35 -8h7v-10h-192v10h25q30 0 39 7t9 20q0 11 -5 28t-10 35l-41 160h-217l-37 -142q-6 -22 -11.5 -45t-5.5 -35q0 -15 10 -21.5t38 -6.5h37v-10h-175zM147 270h211l-63 241q-19 72 -28 107.5t-15 61.5
q-5 -22 -9 -39t-8.5 -36t-12.5 -48z" />
    <glyph glyph-name="B" unicode="B" horiz-adv-x="504" 
d="M32 0v10h23q33 0 42 15t9 68v531q0 35 -4 52t-15.5 22.5t-32.5 5.5h-22v10h205q97 0 145 -42t48 -130q0 -76 -35.5 -115t-96.5 -48v-2q74 -7 114 -50t40 -136q0 -96 -47.5 -143.5t-145.5 -47.5h-227zM166 380h68q76 0 105 43t29 120q0 82 -29.5 121.5t-100.5 39.5h-72
v-324zM166 10h89q75 0 104.5 42.5t29.5 137.5q0 88 -28.5 134t-104.5 46h-90v-360z" />
    <glyph glyph-name="C" unicode="C" horiz-adv-x="466" 
d="M276 -10q-76 0 -127.5 46t-78 129t-26.5 194t26.5 193t79.5 127t131 45q74 0 115.5 -34t41.5 -80q0 -26 -13.5 -41t-36.5 -15q0 80 -24 120t-83 40q-94 0 -134 -94t-40 -261q0 -169 42.5 -263.5t136.5 -94.5q57 0 87.5 34.5t40.5 92.5q13 -4 17.5 -13.5t4.5 -17.5
q0 -23 -18 -47.5t-54 -42t-88 -17.5z" />
    <glyph glyph-name="D" unicode="D" horiz-adv-x="555" 
d="M32 0v10h19q23 0 35 5.5t16 23t4 53.5v534q0 34 -4 50.5t-16 22t-35 5.5h-19v10h220q126 0 192.5 -95.5t66.5 -268.5q0 -164 -63.5 -257t-196.5 -93h-219zM167 10h80q102 0 151 81t49 260q0 173 -49 263t-150 90h-81v-694z" />
    <glyph glyph-name="E" unicode="E" horiz-adv-x="476" 
d="M32 0v10h19q22 0 34 5.5t16.5 22.5t4.5 53v530q0 37 -4.5 54.5t-16 23t-34.5 5.5h-19v10h379l5 -169h-10l-2 58q-2 43 -10 64.5t-28 29t-59 7.5h-141v-325h196v-10h-196l-1 -359h170q37 0 56.5 6.5t27 25t9.5 54.5l4 73h10l-5 -169h-405z" />
    <glyph glyph-name="F" unicode="F" horiz-adv-x="451" 
d="M32 0v10h19q35 0 45 14.5t10 64.5v535q0 51 -9.5 65.5t-41.5 14.5h-23v10h379l5 -168h-10l-3 68q-2 53 -17 71.5t-64 18.5h-156v-348h193v-10h-193v-256q0 -50 10 -65t44 -15h39v-10h-227z" />
    <glyph glyph-name="G" unicode="G" horiz-adv-x="541" 
d="M307 -10q-135 0 -199 96.5t-64 271.5q0 182 70.5 274t192.5 92q59 0 96.5 -17.5t54.5 -44t17 -54.5q0 -26 -13.5 -40t-36.5 -14q0 79 -24 119.5t-92 40.5q-100 0 -151 -86t-51 -270t46 -271t156 -87q31 0 58 5t44 16v220q0 33 -4.5 49t-17.5 21t-38 5h-12v10h188v-10h-5
q-22 0 -32.5 -5.5t-14.5 -22t-4 -49.5v-208q-37 -21 -76 -31t-88 -10z" />
    <glyph glyph-name="H" unicode="H" horiz-adv-x="610" 
d="M33 0v10h23q22 0 32.5 6t14 23t3.5 51v533q0 35 -3.5 52t-15 23t-33.5 6h-21v10h211v-10h-27q-22 0 -32.5 -6t-14 -23t-3.5 -51v-245h275v245q0 34 -3.5 51t-14 23t-32.5 6h-26v10h213v-10h-25q-22 0 -32.5 -6t-14 -23t-3.5 -51v-534q0 -34 3.5 -51t14 -23t32.5 -6h25
v-10h-213v10h26q22 0 32.5 6t14 23t3.5 52v278h-275v-279q0 -34 3.5 -51t14 -23t32.5 -6h27v-10h-211z" />
    <glyph glyph-name="I" unicode="I" horiz-adv-x="277" 
d="M32 0v10h26q32 0 41 14.5t9 65.5v533q0 52 -9 66.5t-41 14.5h-26v10h213v-10h-26q-22 0 -33 -6t-14.5 -23t-3.5 -52v-533q0 -51 9 -65.5t42 -14.5h26v-10h-213z" />
    <glyph glyph-name="J" unicode="J" horiz-adv-x="280" 
d="M1 -240v10h6q58 0 83 46t25 159v649q0 34 -3.5 51t-14 23t-32.5 6h-26v10h213v-10h-25q-23 0 -33.5 -6t-14 -23t-3.5 -52v-635q0 -88 -21 -137.5t-58 -70t-84 -20.5h-12z" />
    <glyph glyph-name="K" unicode="K" horiz-adv-x="538" 
d="M32 0v10h22q32 0 42 14.5t10 65.5v535q0 50 -9.5 64.5t-41.5 14.5h-23v10h212v-10h-27q-31 0 -40.5 -14.5t-9.5 -64.5v-349l226 329q25 39 35.5 55t10.5 25q0 11 -13.5 15t-56.5 4v10h145v-10q-22 0 -35.5 -7.5t-29 -29t-45.5 -64.5l-123 -179l197 -344q26 -44 41 -57
t30 -13h2v-10h-23q-31 0 -51.5 7t-38.5 28t-41 63l-152 275l-78 -115v-165q0 -36 4 -53.5t15.5 -23.5t33.5 -6h24v-10h-212z" />
    <glyph glyph-name="L" unicode="L" horiz-adv-x="475" 
d="M32 0v10h19q23 0 34.5 5.5t16 23.5t4.5 54v528q0 37 -4.5 54.5t-16 23t-34.5 5.5h-19v10h213v-10h-23q-22 0 -34 -5.5t-16.5 -23t-4.5 -52.5v-613h174q51 0 68 19t19 71l4 109h10l-5 -209h-405z" />
    <glyph glyph-name="M" unicode="M" horiz-adv-x="725" 
d="M32 0v10h32q34 0 44 14.5t10 66.5v532q0 52 -10 66.5t-41 14.5h-35v10h143l197 -651l185 651h136v-10h-24q-31 0 -40.5 -14.5t-9.5 -65.5v-534q0 -34 3.5 -51t15 -23t34.5 -6h21v-10h-206v10h18q23 0 35 6t15.5 23.5t3.5 53.5v590l-194 -683h-32l-205 675v-583
q0 -36 4.5 -53.5t17 -23t36.5 -5.5h29v-10h-183z" />
    <glyph glyph-name="N" unicode="N" horiz-adv-x="586" 
d="M32 0v10h25q23 0 34.5 6t15.5 23.5t4 52.5v531q0 35 -3.5 52t-15 23t-34.5 6h-26v10h131l308 -648v557q0 35 -3.5 52t-14.5 23t-34 6h-37v10h181v-10h-30q-23 0 -34 -6t-14.5 -23.5t-3.5 -52.5v-622h-40l-320 671v-579q0 -35 3.5 -52.5t14.5 -23.5t34 -6h38v-10h-179z
" />
    <glyph glyph-name="O" unicode="O" horiz-adv-x="567" 
d="M283 -10q-81 0 -134 46t-79 129t-26 194q0 175 59.5 270.5t180.5 95.5q238 0 238 -367q0 -172 -62.5 -270t-176.5 -98zM283 0q176 0 176 358q0 182 -39 269.5t-136 87.5q-94 0 -135.5 -87.5t-41.5 -269.5q0 -176 43.5 -267t132.5 -91z" />
    <glyph glyph-name="P" unicode="P" horiz-adv-x="461" 
d="M32 0v10h20q24 0 35.5 6t15 23.5t3.5 53.5v530q0 35 -3.5 52t-15 23t-33.5 6h-22v10h204q101 0 147.5 -51.5t46.5 -155.5q0 -57 -19 -109t-64 -84.5t-123 -32.5h-58v-190q0 -35 3.5 -52t15 -23t33.5 -6h36v-10h-222zM166 291h59q57 0 88 29t43 78.5t12 108.5
q0 105 -30.5 151t-104.5 46h-67v-413z" />
    <glyph glyph-name="Q" unicode="Q" horiz-adv-x="567" 
d="M430 -224q-40 0 -76.5 18t-62 64.5t-31.5 133.5q-72 5 -120 52t-72 127.5t-24 187.5q0 175 59.5 270.5t180.5 95.5q238 0 238 -367q0 -158 -52 -253t-147 -111q4 -68 15.5 -109t27.5 -62.5t36.5 -29t42.5 -7.5h13v-10h-28zM283 0q176 0 176 358q0 182 -39 269.5
t-136 87.5q-94 0 -135.5 -87.5t-41.5 -269.5q0 -176 43.5 -267t132.5 -91z" />
    <glyph glyph-name="R" unicode="R" horiz-adv-x="497" 
d="M32 0v10h21q23 0 34.5 6t15 23t3.5 52v532q0 35 -3.5 52t-15 23t-34.5 6h-21v10h196q108 0 152.5 -48.5t44.5 -138.5q0 -82 -31.5 -129.5t-92.5 -66.5l117 -227q22 -42 35.5 -62t23.5 -26t21 -6h5v-10h-12q-33 0 -56.5 8t-42 28t-36.5 58l-113 230h-76v-233
q0 -35 3.5 -52t15 -23t34.5 -6h24v-10h-212zM167 334h56q76 0 107 47t31 145q0 91 -30 134.5t-104 43.5h-60v-370z" />
    <glyph glyph-name="S" unicode="S" horiz-adv-x="411" 
d="M200 -10q-58 0 -93 21.5t-50.5 53t-15.5 60.5q0 23 11 40t33 17q0 -81 28.5 -131.5t95.5 -50.5q55 0 85.5 37t30.5 115q0 52 -15 83.5t-45 55t-75 50.5q-63 37 -98 84t-35 121q0 82 43.5 130t116.5 48q47 0 78 -17.5t47 -44t16 -53.5q0 -49 -47 -49q0 154 -100 154
q-49 0 -77.5 -38t-28.5 -108q0 -48 14.5 -78.5t42.5 -53t69 -47.5q41 -26 73 -52t50.5 -62.5t18.5 -95.5q0 -88 -43.5 -138.5t-129.5 -50.5z" />
    <glyph glyph-name="T" unicode="T" horiz-adv-x="468" 
d="M114 0v10h33q23 0 35 6t16 23.5t4 53.5v611h-87q-50 0 -66 -18t-18 -68l-3 -65h-10l6 161h419l6 -161h-10l-3 65q-3 50 -18.5 68t-65.5 18h-89v-611q0 -36 3.5 -53.5t15.5 -23.5t36 -6h32v-10h-236z" />
    <glyph glyph-name="U" unicode="U" horiz-adv-x="549" 
d="M276 -10q-86 0 -138.5 52t-52.5 173v410q0 35 -4.5 51.5t-16.5 22t-34 5.5h-19v10h213v-10h-23q-22 0 -34 -5.5t-16.5 -23t-4.5 -53.5v-425q0 -105 38 -148t102 -43q60 0 94.5 25.5t48.5 70t14 103.5v419q0 35 -4.5 52t-16.5 22.5t-35 5.5h-39v10h189v-10h-32
q-21 0 -32.5 -5.5t-15.5 -23t-4 -53.5v-419q0 -101 -41.5 -157t-135.5 -56z" />
    <glyph glyph-name="V" unicode="V" horiz-adv-x="518" 
d="M241 0l-178 656q-8 32 -18.5 40t-37.5 8h-7v10h200v-10h-25q-33 0 -41 -6t-8 -20q0 -16 5 -39t12 -51l91 -346q16 -59 26 -101t20 -85q8 32 14.5 58.5t14 57.5t19.5 77l79 326q9 37 13.5 59.5t4.5 39.5q0 16 -9 23t-45 7h-28v10h175v-10h-21q-30 0 -41.5 -8t-18.5 -40
l-160 -656h-36z" />
    <glyph glyph-name="W" unicode="W" horiz-adv-x="807" 
d="M214 0l-135 655q-7 32 -19 40.5t-40 8.5h-10v10h205v-10h-21q-32 0 -42 -7.5t-10 -22.5q0 -11 3.5 -34t6.5 -40l74 -372q18 -85 31 -170q10 44 18.5 82t17.5 79l111 493h29l113 -463q12 -51 21.5 -91.5t17.5 -82.5q7 32 12.5 57.5t11.5 52.5t15 66l78 352q6 28 8 43.5
t2 25.5q0 16 -9.5 24t-43.5 8h-32v10h172v-10h-13q-31 0 -43.5 -9t-20.5 -47l-143 -648h-33l-150 628l-141 -628h-41z" />
    <glyph glyph-name="X" unicode="X" horiz-adv-x="496" 
d="M5 0v10h12q33 0 46.5 8t27.5 39l134 294l-143 304q-15 33 -26 41t-36 8h-6v10h196v-10h-29q-25 0 -32.5 -4.5t-7.5 -14.5q0 -9 6.5 -27t17.5 -41l101 -215l98 215q10 23 16 39t6 27t-6 16t-28 5h-42v10h163v-10h-17q-25 0 -36.5 -7t-25.5 -39l-122 -268l155 -331
q15 -33 25 -41t32 -8h5v-10h-194v10h30q27 0 35 5t8 14t-7 27.5t-24 54.5l-107 228l-97 -215q-15 -34 -26 -58t-11 -37q0 -9 8 -14t33 -5h46v-10h-178z" />
    <glyph glyph-name="Y" unicode="Y" horiz-adv-x="469" 
d="M121 0v10h28q24 0 36 6t16 23.5t4 53.5v249l-148 317q-14 30 -25.5 37.5t-30.5 7.5h-6v10h192v-10h-25q-28 0 -36.5 -5t-8.5 -15q0 -8 4.5 -20t13.5 -31l71 -160q14 -31 26.5 -58t27.5 -61q7 15 18 40t23 51l84 190q10 23 12.5 32t2.5 17q0 10 -7 15t-33 5h-52v10h164
v-10h-8q-24 0 -33 -7t-23 -36l-142 -314v-254q0 -36 3.5 -53.5t15 -23.5t35.5 -6h29v-10h-228z" />
    <glyph glyph-name="Z" unicode="Z" horiz-adv-x="441" 
d="M25 0v19l310 681h-198q-51 0 -67 -18.5t-17 -67.5l-2 -54h-10l5 154h352v-18l-310 -682h225q48 0 64.5 18t18.5 67l2 56h10l-1 -155h-382z" />
    <glyph glyph-name="bracketleft" unicode="[" horiz-adv-x="267" 
d="M77 -128v888h161v-10h-42q-26 0 -38.5 -6t-17 -24t-4.5 -54v-700q0 -36 4.5 -54t17 -24t38.5 -6h42v-10h-161z" />
    <glyph glyph-name="backslash" unicode="\" horiz-adv-x="196" 
d="M186 -121l-186 881h10l186 -881h-10z" />
    <glyph glyph-name="bracketright" unicode="]" horiz-adv-x="267" 
d="M28 -128v10h42q26 0 38.5 6t17 24t4.5 54v700q0 36 -4.5 54t-17 24t-38.5 6h-42v10h161v-888h-161z" />
    <glyph glyph-name="asciicircum" unicode="^" horiz-adv-x="424" 
d="M40 271l159 443h24l161 -443h-21l-152 420l-150 -420h-21z" />
    <glyph glyph-name="underscore" unicode="_" horiz-adv-x="355" 
d="M-4 -123v20h360v-20h-360z" />
    <glyph glyph-name="grave" unicode="`" horiz-adv-x="209" 
d="M163 606q-20 22 -44.5 50.5t-45.5 55t-33 44.5v10h57q15 -34 32 -71.5t40 -78.5v-10h-6z" />
    <glyph glyph-name="a" unicode="a" horiz-adv-x="429" 
d="M157 -10q-52 0 -84.5 37.5t-32.5 113.5q0 77 44 114t134 42l64 3v85q0 84 -18.5 116.5t-60.5 32.5t-61.5 -31.5t-19.5 -111.5q-23 0 -36.5 12.5t-13.5 38.5q0 44 37 73t99 29q66 0 100 -40t34 -135v-279q0 -52 10 -66t39 -14h2v-10h-109v103h-2q-16 -55 -48.5 -84
t-76.5 -29zM174 9q32 0 56.5 23t38 62.5t13.5 89.5v106l-53 -3q-72 -4 -100 -41t-28 -106q0 -131 73 -131z" />
    <glyph glyph-name="b" unicode="b" horiz-adv-x="468" 
d="M275 -10q-54 0 -84.5 32.5t-44.5 96.5h-2v-119h-130v10h8q40 0 52 12.5t12 57.5v595q0 35 -5.5 50.5t-19.5 20t-40 4.5h-7v10h131v-192v-65.5t-1 -89.5h2q24 132 129 132q73 0 111 -65t38 -213q0 -103 -18.5 -164t-52 -87t-78.5 -26zM263 3q32 0 54.5 25t34.5 83t12 157
q0 142 -23.5 202.5t-77.5 60.5q-59 0 -88.5 -62.5t-29.5 -201.5t30.5 -201.5t87.5 -62.5z" />
    <glyph glyph-name="c" unicode="c" horiz-adv-x="374" 
d="M212 -10q-48 0 -86 25.5t-59.5 86.5t-21.5 167t21.5 166t59.5 84.5t87 24.5q67 0 98.5 -32t31.5 -70q0 -49 -53 -49q0 71 -16 106t-60 35q-34 0 -58.5 -22.5t-37.5 -80t-13 -162.5q0 -99 13 -158t39.5 -84.5t64.5 -25.5q46 0 71 31.5t32 87.5q20 -7 20 -31
q0 -21 -13.5 -44t-42.5 -39t-77 -16z" />
    <glyph glyph-name="d" unicode="d" horiz-adv-x="468" 
d="M199 -10q-48 0 -82.5 27t-53 87.5t-18.5 162.5q0 103 19.5 163.5t54.5 87.5t82 27q51 0 80.5 -30t41.5 -93h2q-1 46 -1.5 75.5t-0.5 56.5v117q0 37 -5 53.5t-18.5 21t-39.5 4.5h-6v10h129v-681q0 -45 12 -57t50 -12h9v-10h-131v114h-2q-13 -63 -42.5 -93.5t-79.5 -30.5z
M212 3q112 0 112 262q0 132 -23.5 199t-84.5 67q-35 0 -60 -25t-38 -83t-13 -158q0 -97 12 -154t36 -82.5t59 -25.5z" />
    <glyph glyph-name="e" unicode="e" horiz-adv-x="407" 
d="M220 -10q-84 0 -129.5 71.5t-45.5 201.5q0 141 43.5 211t122.5 70q76 0 116 -66.5t40 -182.5v-16h-263q0 -149 33 -213.5t93 -64.5q86 0 103 111q19 -5 19 -26q0 -19 -14.5 -41.5t-44 -38.5t-73.5 -16zM104 289h204q-1 123 -22.5 184t-74.5 61t-79 -60t-28 -185z" />
    <glyph glyph-name="f" unicode="f" horiz-adv-x="277" 
d="M23 0v10h19q21 0 33 5t17 21.5t5 51.5v438h-70v10h70v53q0 89 32.5 135.5t102.5 46.5q51 0 74 -19.5t23 -52.5q0 -47 -45 -47q0 55 -9.5 82t-42.5 27q-40 0 -57.5 -34t-17.5 -116v-75h110v-10h-110v-438q0 -35 5 -51.5t16.5 -21.5t33.5 -5h39v-10h-228z" />
    <glyph glyph-name="g" unicode="g" horiz-adv-x="412" 
d="M188 -240q-80 0 -122.5 36t-42.5 104q0 105 115 135q-34 9 -48.5 31t-14.5 48q0 24 13.5 46.5t44.5 46.5q-36 17 -57.5 57t-21.5 95q0 96 37 140.5t107 44.5q58 0 94 -41q9 20 25.5 40t42.5 20q20 0 30.5 -14.5t10.5 -32.5q0 -19 -9 -30t-24 -11q0 55 -31 55
q-23 0 -38 -34q17 -22 26 -53t9 -79q0 -80 -34 -125t-104 -45q-13 0 -27.5 2t-27.5 7q-17 -17 -23.5 -31.5t-6.5 -30.5q0 -29 18.5 -45t48.5 -16h67q71 0 102 -39t31 -102q0 -82 -48.5 -130.5t-141.5 -48.5zM195 204q43 0 63.5 36.5t20.5 124.5q0 66 -9.5 102.5t-28.5 51.5
t-48 15q-40 0 -62 -37t-22 -133q0 -86 21 -123t65 -37zM194 -230q73 0 105.5 41t32.5 112q0 50 -21.5 78.5t-80.5 28.5h-62q-43 0 -70.5 -35.5t-27.5 -93.5q0 -65 33 -98t91 -33z" />
    <glyph glyph-name="h" unicode="h" horiz-adv-x="485" 
d="M14 0v10h7q29 0 42.5 5t18 20.5t4.5 48.5v593q0 47 -10.5 60t-46.5 13h-15v10h132v-254v-21.5t-2 -43.5h2q11 47 43 75t81 28q61 0 94.5 -45t33.5 -137v-279q0 -31 4 -46.5t16 -21t38 -5.5h7v-10h-124v367q0 80 -20 118.5t-70 38.5t-77 -45t-27 -142v-254
q0 -33 4.5 -48.5t17.5 -20t41 -4.5h5v-10h-199z" />
    <glyph glyph-name="i" unicode="i" horiz-adv-x="241" 
d="M122 650q-15 0 -24.5 10.5t-9.5 37.5t9.5 37.5t24.5 10.5q14 0 24.5 -10.5t10.5 -37.5t-10.5 -37.5t-24.5 -10.5zM19 0v10h15q27 0 40.5 5t18 21t4.5 49v365q0 33 -4.5 49t-17 21.5t-37.5 5.5h-9v10h128v-451q0 -33 4.5 -49t18.5 -21t40 -5h12v-10h-213z" />
    <glyph glyph-name="j" unicode="j" horiz-adv-x="236" 
d="M122 650q-14 0 -24 10.5t-10 37.5t10 37.5t24 10.5t25 -10.5t11 -37.5t-11 -37.5t-25 -10.5zM4 -240v10h5q28 0 47.5 17t30 58.5t10.5 115.5v491q0 48 -11.5 61t-46.5 13h-9v10h127v-552q0 -91 -19 -139.5t-50.5 -66.5t-71.5 -18h-12z" />
    <glyph glyph-name="k" unicode="k" horiz-adv-x="442" 
d="M14 0v10h6q27 0 41.5 4.5t19.5 20t5 48.5v594q0 33 -5 48.5t-19.5 20t-41.5 4.5h-6v10h132v-397v-69.5t-2 -72.5l113 160q43 60 56.5 85.5t13.5 36.5q0 13 -14.5 18t-55.5 5v10h158v-10q-23 0 -40 -11t-39 -42l-95 -132l137 -278q16 -32 28 -42.5t32 -10.5h6v-10h-5
q-39 0 -62.5 6t-41 26.5t-39.5 65.5l-91 192l-59 -83v-124q0 -33 5.5 -48.5t19 -20t36.5 -4.5h4v-10h-197z" />
    <glyph glyph-name="l" unicode="l" horiz-adv-x="230" 
d="M9 0v10h5q31 0 46 4.5t20 20t5 48.5v593q0 34 -5.5 50t-19.5 20t-38 4h-13v10h136v-677q0 -33 4.5 -48.5t19.5 -20t47 -4.5h5v-10h-212z" />
    <glyph glyph-name="m" unicode="m" horiz-adv-x="723" 
d="M24 0v10h8q28 0 41.5 4.5t18 21t4.5 50.5v360q0 36 -4 53t-17 22t-40 5h-2v10h122v-99h2q13 49 43 78t78 29q45 0 72.5 -25.5t41.5 -81.5h2q10 49 42 78t78 29q60 0 92 -44.5t32 -137.5v-281q0 -33 4.5 -48t18 -19t39.5 -4h2v-10h-125v369q0 77 -18 115.5t-63 38.5
q-56 0 -78 -48t-22 -120v-271q0 -34 4 -49.5t17 -20t39 -4.5h4v-10h-123v369q0 83 -18.5 118.5t-61.5 35.5q-35 0 -57.5 -24.5t-33 -65.5t-10.5 -92v-256q0 -34 4 -50t18 -20.5t44 -4.5h2v-10h-200z" />
    <glyph glyph-name="n" unicode="n" horiz-adv-x="496" 
d="M24 0v10h7q29 0 42.5 5t18 20.5t4.5 48.5v370q0 32 -4.5 47.5t-18 20t-41.5 4.5h-5v10h128v-99h2q13 48 42.5 77.5t79.5 29.5q67 0 98 -44t31 -139v-277q0 -32 4 -48t17 -21t40 -5h4v-10h-124v367q0 77 -19.5 117t-66.5 40q-45 0 -76 -43t-31 -144v-254q0 -33 4 -48.5
t17 -20t41 -4.5h6v-10h-200z" />
    <glyph glyph-name="o" unicode="o" horiz-adv-x="439" 
d="M219 -10q-83 0 -128.5 68t-45.5 210q0 139 43 207.5t133 68.5q173 0 173 -276q0 -145 -44.5 -211.5t-130.5 -66.5zM220 0q64 0 89 63.5t25 204.5q0 142 -25 204t-90 62q-63 0 -88.5 -62t-25.5 -204t27.5 -205t87.5 -63z" />
    <glyph glyph-name="p" unicode="p" horiz-adv-x="470" 
d="M15 -237v10h5q28 0 42.5 5t19 21.5t4.5 50.5v604q0 33 -4.5 48.5t-19 19.5t-42.5 4h-12v10h137v-122h2q14 66 43.5 99.5t81.5 33.5q75 0 114 -64t39 -206q0 -149 -40.5 -218t-111.5 -69q-53 0 -83 32.5t-43 96.5h-2q1 -37 1 -70.5v-69.5v-129q0 -34 4.5 -50.5t18 -21.5
t41.5 -5h14v-10h-209zM261 3q57 0 80.5 68.5t23.5 201.5q0 139 -25.5 199.5t-79.5 60.5q-114 0 -114 -261q0 -124 25 -196.5t90 -72.5z" />
    <glyph glyph-name="q" unicode="q" horiz-adv-x="468" 
d="M242 -237v10h16q28 0 42 5t18.5 21.5t4.5 50.5v120q0 34 0.5 72.5t1.5 81.5h-2q-15 -68 -45 -101t-80 -33q-74 0 -113.5 65t-39.5 211q0 104 20 166t55 88.5t81 26.5q98 0 122 -132h2v121h128v-10h-3q-29 0 -43 -4.5t-18.5 -20t-4.5 -48.5v-603q0 -34 4.5 -50.5t18 -21.5
t39.5 -5h3v-10h-207zM209 3q51 0 83 61.5t32 201.5q0 125 -25.5 196t-83.5 71q-35 0 -60 -24t-37.5 -82.5t-12.5 -162.5q0 -141 24.5 -201t79.5 -60z" />
    <glyph glyph-name="r" unicode="r" horiz-adv-x="353" 
d="M29 0v10h1q29 0 43 4.5t18.5 20t4.5 48.5v370q0 33 -4 48.5t-18 20t-44 4.5h-3v10h129v-121h2q14 55 38 92.5t74 37.5q36 0 54 -19.5t18 -48.5q0 -25 -12.5 -39t-36.5 -14q0 56 -8.5 77.5t-33.5 21.5q-43 0 -68.5 -61.5t-25.5 -173.5v-205q0 -33 4.5 -48.5t19.5 -20
t45 -4.5h11v-10h-208z" />
    <glyph glyph-name="s" unicode="s" horiz-adv-x="340" 
d="M162 -10q-46 0 -74.5 16.5t-41 41t-12.5 49.5q0 27 12 39.5t28 12.5q0 -77 21 -113t70 -36q44 0 69.5 28.5t25.5 87.5q0 32 -9 52.5t-29 38t-55 40.5t-62 44t-41.5 48.5t-14.5 69.5q0 64 34.5 99t95.5 35q55 0 85 -26.5t30 -66.5q0 -50 -41 -50q0 70 -17.5 101.5
t-58.5 31.5t-62 -27.5t-21 -73.5q0 -48 24 -76t76 -59q30 -18 55 -37.5t40.5 -48.5t15.5 -75q0 -68 -36.5 -107t-106.5 -39z" />
    <glyph glyph-name="t" unicode="t" horiz-adv-x="262" 
d="M180 -10q-54 0 -79.5 33t-25.5 120v383h-60v10q29 1 47.5 7.5t29.5 16.5q17 16 23.5 41t9.5 57h10v-122h101v-10h-101v-406q0 -68 15.5 -92t46.5 -24q11 0 21.5 1t25.5 5v-10q-13 -4 -29.5 -7t-34.5 -3z" />
    <glyph glyph-name="u" unicode="u" horiz-adv-x="486" 
d="M213 -10q-61 0 -95 45t-34 149v270q0 32 -4.5 47.5t-18.5 20t-43 4.5h-3v10h128v-367q0 -83 21 -121t67 -38q54 0 80.5 52.5t26.5 137.5v242q0 38 -3.5 56t-17 23t-44.5 5h-2v10h127v-449q0 -35 4 -51.5t18 -21t44 -4.5h3v-10h-128v103h-2q-13 -54 -44.5 -83.5
t-79.5 -29.5z" />
    <glyph glyph-name="v" unicode="v" horiz-adv-x="443" 
d="M196 0l-140 479q-9 31 -17.5 39t-34.5 8v10h175v-10h-23q-26 0 -34.5 -4.5t-8.5 -16.5q0 -11 5.5 -34.5t12.5 -45.5l64 -212q7 -23 15.5 -54.5t16 -62t12.5 -51.5q8 30 14.5 54.5t14.5 51.5t18 63l46 160q16 58 24 88.5t8 42.5t-8.5 16.5t-37.5 4.5h-23v10h145v-10h-18
q-22 0 -31 -6.5t-19 -41.5l-136 -478h-40z" />
    <glyph glyph-name="w" unicode="w" horiz-adv-x="671" 
d="M170 0l-110 473q-8 36 -18 44.5t-38 8.5h-1v10h171v-10h-28q-24 0 -31 -5t-7 -14t4.5 -31t8.5 -41l56 -238q10 -42 18 -80t12 -65h2q3 16 10.5 45t15 59t12.5 51l80 329h36l89 -315q6 -22 14 -54.5t15.5 -64.5t11.5 -51h2q5 26 14 71t17 86l47 230q11 50 11 68
q0 10 -6 15t-29 5h-27v10h147v-10h-19q-31 0 -41 -7t-17 -42l-98 -477h-37l-133 483l-119 -483h-35z" />
    <glyph glyph-name="x" unicode="x" horiz-adv-x="432" 
d="M2 0v10h13q29 0 43.5 8.5t31.5 42.5l104 207l-116 210q-17 32 -28 40t-32 8h-2v10h183v-10h-29q-25 0 -32 -4t-7 -11q0 -15 24 -59l76 -138l70 138q11 22 17.5 36.5t6.5 23.5q0 7 -6.5 10.5t-31.5 3.5h-43v10h164v-10h-11q-28 0 -41.5 -7.5t-30.5 -41.5l-88 -174
l134 -245q17 -32 28 -40t28 -8h2v-10h-185v10h36q26 0 33 4t7 11q0 9 -7 23t-19 37l-94 172l-89 -177q-11 -22 -17 -35t-6 -21t6.5 -11t26.5 -3h54v-10h-173z" />
    <glyph glyph-name="y" unicode="y" horiz-adv-x="434" 
d="M34 -237v10q53 0 87.5 16.5t59.5 59.5t48 124l-164 493q-9 27 -15 39.5t-15 16.5t-27 4h-3v10h173v-10h-5q-34 0 -45 -5t-11 -18q0 -9 5.5 -26.5t12.5 -40.5l65 -208q16 -50 24.5 -77.5t14.5 -48t14 -49.5q7 28 18 70.5t23 85.5l63 229q6 25 9.5 41t3.5 24q0 11 -8 17
t-40 6h-22v10h135v-10h-5q-18 0 -27.5 -5.5t-16 -22.5t-16.5 -51l-131 -477q-22 -82 -48 -126.5t-62 -62.5t-87 -18h-8z" />
    <glyph glyph-name="z" unicode="z" horiz-adv-x="393" 
d="M38 0v19l242 503h-139q-47 0 -63 -17.5t-20 -65.5l-2 -30h-10l9 127h284v-19l-242 -503h152q47 0 64 17t19 67l2 50h10l-6 -148h-300z" />
    <glyph glyph-name="braceleft" unicode="{" horiz-adv-x="329" 
d="M247 -130q-55 0 -82.5 38.5t-27.5 103.5v180q0 56 -20.5 86.5t-73.5 32.5v10q43 1 68.5 28t25.5 91v179q0 67 27 104t81 37h41v-10h-22q-37 0 -52 -29.5t-15 -96.5v-177q0 -58 -24 -89t-86 -40v-2q60 -8 85 -40t25 -90v-181q0 -69 16 -97t51 -28h22v-10h-39z" />
    <glyph glyph-name="bar" unicode="|" horiz-adv-x="433" 
d="M206 -240v1000h20v-1000h-20z" />
    <glyph glyph-name="braceright" unicode="}" horiz-adv-x="329" 
d="M43 -130v10h22q35 0 50.5 28t15.5 97v181q0 58 25.5 90t84.5 40v2q-61 9 -85.5 40t-24.5 89v177q0 67 -14.5 96.5t-51.5 29.5h-22v10h41q53 0 80 -37t27 -104v-179q0 -64 26 -91t69 -28v-10q-53 -2 -74 -32.5t-21 -86.5v-180q0 -65 -27 -103.5t-82 -38.5h-39z" />
    <glyph glyph-name="asciitilde" unicode="~" horiz-adv-x="425" 
d="M47 277q4 35 11.5 71.5t25.5 62t51 25.5q21 0 37 -14.5t44 -54.5q28 -39 42 -54t33 -15q35 0 48 38.5t20 98.5h19q-4 -33 -11.5 -69.5t-25 -62t-51.5 -25.5q-25 0 -41.5 16.5t-41.5 50.5q-21 29 -32.5 44t-20 21t-20.5 6q-24 0 -36.5 -18.5t-19.5 -50t-12 -70.5h-19z" />
    <glyph glyph-name="uni00A0" unicode="&#xa0;" horiz-adv-x="175" 
 />
    <glyph glyph-name="exclamdown" unicode="&#xa1;" horiz-adv-x="248" 
d="M119 445q-13 0 -22 10t-9 38q0 29 9 39.5t22 10.5t22.5 -10.5t9.5 -39.5q0 -28 -9.5 -38t-22.5 -10zM87 -177l23 532h15l26 -532h-64z" />
    <glyph glyph-name="cent" unicode="&#xa2;" horiz-adv-x="433" 
d="M233 0v91q-47 5 -83 32t-55.5 86t-19.5 158t19.5 158t54.5 86.5t84 30.5v72h15v-71q68 -1 99 -32t31 -69q0 -29 -15 -39t-37 -10q0 73 -16 105.5t-62 34.5v-533q52 1 78.5 34.5t33.5 85.5q11 -4 15.5 -12t4.5 -19q0 -22 -14 -45t-43 -38.5t-75 -16.5v-89h-15zM233 102
v530q-30 -4 -52 -27.5t-34 -80t-12 -158.5q0 -130 23.5 -192t74.5 -72z" />
    <glyph glyph-name="sterling" unicode="&#xa3;" horiz-adv-x="433" 
d="M322 -11q-25 0 -47 9.5t-45 19.5q-17 8 -35.5 16t-41.5 8q-25 0 -44 -9t-36 -23l-16 -13l-2 20l16 14q29 25 51.5 74t22.5 110q0 28 -5.5 60.5t-13.5 64.5h-81v18h76q-14 50 -26 97t-12 96q0 82 41.5 127.5t118.5 45.5q67 0 99.5 -31.5t32.5 -79.5q0 -31 -13.5 -42
t-33.5 -11q0 81 -19.5 117.5t-69.5 36.5q-56 0 -80 -40t-24 -115q0 -29 4 -56t13.5 -61t23.5 -84h128v-18h-123q16 -58 16 -107q0 -109 -98 -189l1 -2q28 22 53 29.5t38 7.5q22 0 43.5 -9.5t36.5 -17.5q16 -8 34.5 -14t37.5 -6t35.5 8.5t31.5 29.5l2 -13q-22 -38 -42.5 -53
t-47.5 -15z" />
    <glyph glyph-name="currency" unicode="&#xa4;" horiz-adv-x="433" 
d="M77 144l-27 29l54 71q-15 26 -22 55t-7 60q0 64 29 113l-53 71l26 27l52 -67q40 40 87 40q45 0 88 -41l53 69l26 -27l-53 -70q30 -52 30 -115q0 -64 -33 -115l56 -72l-27 -27l-53 70q-42 -39 -87 -39q-47 0 -86 39zM216 214q30 0 54 19.5t38.5 52t14.5 72.5t-14.5 73.5
t-38.5 53.5t-54 20q-29 0 -53 -20t-38 -53.5t-14 -73.5t14 -72.5t38 -52t53 -19.5z" />
    <glyph glyph-name="yen" unicode="&#xa5;" horiz-adv-x="433" 
d="M108 0v10h28q22 0 33.5 5t16 22.5t4.5 53.5v111h-111v10h111v106h-111v10h109l-124 318q-14 35 -24 46.5t-30 11.5h-7v10h177v-10h-25q-24 0 -32.5 -4.5t-8.5 -14.5q0 -11 7.5 -30.5l17.5 -45.5l55 -150q10 -27 17 -46t13.5 -37t14.5 -43q9 25 18 49t18 47l58 153
q16 39 24 63.5t8 37.5q0 9 -7.5 15t-39.5 6h-30v10h141v-10h-2q-24 0 -35 -13t-25 -50l-118 -313h111v-10h-112v-106h112v-10h-112v-111q0 -36 4 -53.5t15.5 -22.5t33.5 -5h28v-10h-221z" />
    <glyph glyph-name="brokenbar" unicode="&#xa6;" horiz-adv-x="433" 
d="M206 360v400h20v-400h-20zM206 -240v400h20v-400h-20z" />
    <glyph glyph-name="section" unicode="&#xa7;" horiz-adv-x="423" 
d="M214 -115q-62 0 -99.5 32.5t-37.5 83.5q0 30 12.5 44t26.5 14q0 -77 24.5 -120.5t77.5 -43.5q49 0 75.5 36.5t26.5 100.5q0 42 -12 70t-40 53t-76 58q-60 41 -94.5 80t-34.5 95q0 38 15 63.5t39 46.5q-15 19 -26 47t-11 67q0 67 37.5 107.5t106.5 40.5q58 0 88 -28
t30 -68q0 -26 -12.5 -38t-29.5 -12q0 65 -16 100.5t-65 35.5q-97 0 -97 -124q0 -44 13.5 -72.5t41.5 -51t71 -50.5q62 -40 96 -77t31 -95q-1 -38 -16.5 -68t-33.5 -54q16 -22 24.5 -48t8.5 -63q0 -73 -37 -117.5t-107 -44.5zM316 167q10 15 17.5 42t7.5 55q0 36 -21.5 69
t-87.5 76q-28 18 -57 36.5t-51 43.5q-13 -13 -21 -37t-8 -51q0 -29 11.5 -50.5t38.5 -44t75 -55.5q28 -21 43.5 -33t27 -23t25.5 -28z" />
    <glyph glyph-name="dieresis" unicode="&#xa8;" horiz-adv-x="448" 
d="M294 652q-14 0 -21.5 10t-7.5 34q0 45 29 45t29 -45q0 -24 -7.5 -34t-21.5 -10zM149 652q-12 0 -19.5 10t-7.5 34t7.5 34.5t19.5 10.5q13 0 21.5 -10.5t8.5 -34.5t-8.5 -34t-21.5 -10z" />
    <glyph glyph-name="copyright" unicode="&#xa9;" horiz-adv-x="657" 
d="M329 -10q-91 0 -155.5 48.5t-98.5 132t-34 187.5q0 105 34.5 188t99 131t155.5 48q90 0 154 -48t98 -131t34 -188q0 -106 -34 -189t-98 -131t-155 -48zM332 0q86 0 147 46t93 126.5t32 185.5q0 106 -32.5 186t-94 125.5t-147.5 45.5q-87 0 -149.5 -45.5t-95.5 -126
t-33 -184.5q0 -105 34 -186t96.5 -127t149.5 -46zM336 111q-75 0 -119 64t-44 188q0 113 40 176.5t124 63.5q42 0 68.5 -14.5t39.5 -37.5t13 -46t-10 -35t-20 -12q0 60 -18.5 97.5t-73.5 37.5q-65 0 -95.5 -58.5t-30.5 -169.5q0 -122 33.5 -183t94.5 -61q44 0 66 29.5
t31 83.5q20 -7 20 -28t-13.5 -43t-40 -37t-65.5 -15z" />
    <glyph glyph-name="ordfeminine" unicode="&#xaa;" horiz-adv-x="288" 
d="M110 380q-42 0 -61.5 25.5t-19.5 64.5q0 41 29.5 69.5t91.5 31.5l40 2v50q0 43 -11 64.5t-39 21.5q-31 0 -39.5 -22.5t-8.5 -68.5q-42 0 -42 38q0 26 25 44.5t66 18.5q47 0 72 -23.5t25 -75.5v-183q0 -26 6 -33.5t26 -7.5v-10h-77v57h-2q-8 -28 -29 -45.5t-52 -17.5z
M125 400q29 0 47 25t18 73v65l-33 -2q-47 -2 -64 -26.5t-17 -62.5q0 -39 13.5 -55.5t35.5 -16.5z" />
    <glyph glyph-name="guillemotleft" unicode="&#xab;" horiz-adv-x="383" 
d="M333 85l-145 180v10l145 180h13l-97 -185l97 -185h-13zM192 85l-145 180v10l145 180h14l-98 -185l98 -185h-14z" />
    <glyph glyph-name="logicalnot" unicode="&#xac;" horiz-adv-x="425" 
d="M347 99v257h-300v20h320v-277h-20z" />
    <glyph glyph-name="uni00AD" unicode="&#xad;" horiz-adv-x="241" 
d="M20 263v20h201v-20h-201z" />
    <glyph glyph-name="registered" unicode="&#xae;" horiz-adv-x="657" 
d="M329 -10q-91 0 -155.5 48.5t-98.5 132t-34 187.5q0 105 34.5 188t99 131t155.5 48q90 0 154 -48t98 -131t34 -188q0 -106 -34 -189t-98 -131t-155 -48zM333 0q85 0 146 46t93 126.5t32 185.5q0 106 -32.5 186t-94 125.5t-147.5 45.5q-87 0 -149 -45.5t-95 -126
t-33 -184.5q0 -105 34 -186t96.5 -127t149.5 -46zM187 141v10h9q22 0 30 6t8 29v342q0 23 -8 29t-30 6h-9v10h126q68 0 100.5 -29.5t32.5 -88.5q0 -52 -24.5 -75t-52.5 -32l76 -163q9 -22 16 -28t27 -6v-10h-64l-91 204h-63v-159q0 -23 8 -29t29 -6h11v-10h-131zM270 355h48
q55 0 73 24.5t18 72.5q0 62 -22.5 86.5t-76.5 24.5h-40v-208z" />
    <glyph glyph-name="overscore" unicode="&#xaf;" horiz-adv-x="355" 
d="M-4 780v20h360v-20h-360z" />
    <glyph glyph-name="degree" unicode="&#xb0;" horiz-adv-x="310" 
d="M155 441q-52 0 -81.5 38t-29.5 103q0 66 29.5 104t81.5 38t82 -38t30 -104q0 -65 -30 -103t-82 -38zM157 461q42 0 66 33t24 90q0 56 -24 88t-66 32q-43 0 -68 -32t-25 -88q0 -57 25 -90t68 -33z" />
    <glyph glyph-name="plusminus" unicode="&#xb1;" horiz-adv-x="425" 
d="M203 143v205h-153v20h153v204h20v-204h152v-20h-152v-205h-20zM50 8v20h325v-20h-325z" />
    <glyph glyph-name="uni00B2" unicode="&#xb2;" horiz-adv-x="310" 
d="M39 386v27l98 132q34 44 53.5 82t19.5 90q0 97 -61 97q-35 0 -48 -27t-13 -84q-16 0 -28.5 9.5t-12.5 30.5q0 31 27.5 56t78.5 25q47 0 76.5 -28t29.5 -83q0 -33 -12.5 -60t-35 -53t-51.5 -59l-99 -115h165q19 0 25.5 10.5t8.5 36.5l1 20h10l-2 -107h-230z" />
    <glyph glyph-name="uni00B3" unicode="&#xb3;" horiz-adv-x="310" 
d="M145 379q-54 0 -81.5 25.5t-27.5 55.5q0 21 12 31t25 10q0 -57 14.5 -84.5t57.5 -27.5q37 0 59.5 25t22.5 82q0 56 -24.5 82t-74.5 26h-23v10h26q34 0 58 26t24 83q0 49 -17 69t-48 20q-40 0 -52.5 -30t-12.5 -84q-16 0 -27.5 9.5t-11.5 31.5q0 35 29.5 59t80.5 24
q50 0 79 -26t29 -75q0 -47 -26 -75t-70 -35v-1q47 -6 78.5 -29.5t31.5 -77.5q0 -64 -37.5 -94t-93.5 -30z" />
    <glyph glyph-name="acute" unicode="&#xb4;" horiz-adv-x="209" 
d="M40 606v10q22 41 39.5 78.5t31.5 71.5h58v-10q-12 -18 -33.5 -44.5t-45.5 -55t-44 -50.5h-6z" />
    <glyph glyph-name="uni00B5" unicode="&#xb5;" horiz-adv-x="465" 
d="M130 -240q-27 0 -43.5 22t-16.5 84q0 60 3.5 147t3.5 212v311h60v-374q0 -83 21 -118t62 -35q46 0 73 49t27 134v344h60v-434q0 -52 14.5 -72t38.5 -20h5v-10h-31q-36 0 -58 22.5t-25 84.5h-2q-13 -55 -42 -86t-73 -31q-47 0 -74 23.5t-37 67.5q0 -97 3.5 -154.5
t12.5 -85t23.5 -36.5t35.5 -9q0 -15 -10.5 -25.5t-30.5 -10.5z" />
    <glyph glyph-name="paragraph" unicode="&#xb6;" horiz-adv-x="469" 
d="M131 -111v10h6q28 0 42.5 4.5t20 20t5.5 49.5v413h-39q-53 0 -82.5 27.5t-41 72t-11.5 96.5q0 80 29 129t108 49h261v-10h-7q-28 0 -42 -4.5t-19.5 -20.5t-5.5 -50v-703q0 -34 5.5 -49t19.5 -19.5t42 -4.5h7v-10h-111v861h-76v-861h-111z" />
    <glyph glyph-name="periodcentered" unicode="&#xb7;" horiz-adv-x="184" 
d="M91 306q-16 0 -26.5 11t-10.5 40t10.5 39.5t26.5 10.5q14 0 24.5 -10.5t10.5 -39.5t-10.5 -40t-24.5 -11z" />
    <glyph glyph-name="cedilla" unicode="&#xb8;" horiz-adv-x="258" 
d="M104 -226q-27 0 -55 11v10q13 -5 23.5 -7.5t20.5 -2.5q29 0 46 20t17 61q0 34 -13.5 51t-40.5 19l14 70h10l-12 -61q86 -9 86 -82q0 -41 -25.5 -65t-70.5 -24z" />
    <glyph glyph-name="uni00B9" unicode="&#xb9;" horiz-adv-x="310" 
d="M54 386v10h47q20 0 28 9t8 41v337q-24 -38 -39.5 -53.5t-30.5 -15.5q-11 0 -19 6t-8 20q30 2 52 16t53 52l10 10h30v-372q0 -32 8 -41t28 -9h37v-10h-204z" />
    <glyph glyph-name="ordmasculine" unicode="&#xba;" horiz-adv-x="298" 
d="M148 380q-115 0 -115 170q0 169 117 169q56 0 85.5 -42t29.5 -127q0 -170 -117 -170zM150 390q37 0 52 38t15 123q0 84 -15.5 121t-52.5 37t-52 -37t-15 -121q0 -85 15 -123t53 -38z" />
    <glyph glyph-name="guillemotright" unicode="&#xbb;" horiz-adv-x="389" 
d="M183 85l98 185l-98 185h14l145 -180v-10l-145 -180h-14zM43 85l97 185l-97 185h13l145 -180v-10l-145 -180h-13z" />
    <glyph glyph-name="onequarter" unicode="&#xbc;" horiz-adv-x="652" 
d="M31 286v10h47q20 0 28 9t8 41v337q-24 -38 -39.5 -53.5t-30.5 -15.5q-11 0 -19 6t-8 20q30 2 52 16t53 52l10 10h30v-372q0 -32 8 -41t28 -9h37v-10h-204zM183 0l278 714h11l-278 -714h-11zM451 -1v10h26q20 0 27.5 9t7.5 41v75h-150v19l154 278h42v-273h65v-24h-65v-75
q0 -32 7.5 -41t26.5 -9h15v-10h-156zM377 158h135v155q0 24 0.5 47.5t1.5 47.5q-4 -8 -10 -18.5t-11 -20.5z" />
    <glyph glyph-name="onehalf" unicode="&#xbd;" horiz-adv-x="652" 
d="M32 286v10h47q20 0 28 9t8 41v337q-24 -38 -39.5 -53.5t-30.5 -15.5q-11 0 -19 6t-8 20q30 2 52 16t53 52l10 10h30v-372q0 -32 8 -41t28 -9h37v-10h-204zM170 0l278 714h11l-278 -714h-11zM393 -1v27l98 132q34 44 53.5 82t19.5 90q0 97 -61 97q-35 0 -48 -27t-13 -84
q-16 0 -28.5 9.5t-12.5 30.5q0 31 27.5 56t78.5 25q47 0 76.5 -28t29.5 -83q0 -33 -12.5 -60t-35 -53t-51.5 -59l-99 -115h165q19 0 25.5 10.5t8.5 36.5l1 20h10l-2 -107h-230z" />
    <glyph glyph-name="threequarters" unicode="&#xbe;" horiz-adv-x="652" 
d="M145 279q-54 0 -81.5 25.5t-27.5 55.5q0 21 12 31t25 10q0 -57 14.5 -84.5t57.5 -27.5q37 0 59.5 25t22.5 82q0 56 -24.5 82t-74.5 26h-23v10h26q34 0 58 26t24 83q0 49 -17 69t-48 20q-40 0 -52.5 -30t-12.5 -84q-16 0 -27.5 9.5t-11.5 31.5q0 35 29.5 59t80.5 24
q50 0 79 -26t29 -75q0 -47 -26 -75t-70 -35v-1q47 -6 78.5 -29.5t31.5 -77.5q0 -64 -37.5 -94t-93.5 -30zM199 0l278 714h11l-278 -714h-11zM451 -1v10h26q20 0 27.5 9t7.5 41v75h-150v19l154 278h42v-273h65v-24h-65v-75q0 -32 7.5 -41t26.5 -9h15v-10h-156zM377 158h135
v155q0 24 0.5 47.5t1.5 47.5q-4 -8 -10 -18.5t-11 -20.5z" />
    <glyph glyph-name="questiondown" unicode="&#xbf;" horiz-adv-x="376" 
d="M208 333l15 -133q-69 -26 -97 -79t-28 -139q0 -85 24 -123.5t75 -38.5q52 0 70.5 39t18.5 112q23 0 38 -10.5t15 -38.5q0 -26 -15 -51.5t-46 -43t-81 -17.5q-73 0 -116.5 44t-43.5 133q0 83 37 134.5t107 80.5l12 131h15zM199 540q14 0 23 -11t9 -39t-9 -38.5t-23 -10.5
q-13 0 -22 10.5t-9 38.5t9 39t22 11z" />
    <glyph glyph-name="Agrave" unicode="&#xc0;" horiz-adv-x="536" 
d="M0 0v10h27q26 0 37.5 15t24.5 66l163 623h42l183 -662q7 -26 17 -34t35 -8h7v-10h-192v10h25q30 0 39 7t9 20q0 11 -5 28t-10 35l-41 160h-217l-37 -142q-6 -22 -11.5 -45t-5.5 -35q0 -15 10 -21.5t38 -6.5h37v-10h-175zM147 270h211l-63 241q-19 72 -28 107.5t-15 61.5
q-5 -22 -9 -39t-8.5 -36t-12.5 -48zM288 771q-20 22 -44.5 50.5t-45.5 55t-33 44.5v10h57q15 -34 32 -71.5t40 -78.5v-10h-6z" />
    <glyph glyph-name="Aacute" unicode="&#xc1;" horiz-adv-x="536" 
d="M0 0v10h27q26 0 37.5 15t24.5 66l163 623h42l183 -662q7 -26 17 -34t35 -8h7v-10h-192v10h25q30 0 39 7t9 20q0 11 -5 28t-10 35l-41 160h-217l-37 -142q-6 -22 -11.5 -45t-5.5 -35q0 -15 10 -21.5t38 -6.5h37v-10h-175zM147 270h211l-63 241q-19 72 -28 107.5t-15 61.5
q-5 -22 -9 -39t-8.5 -36t-12.5 -48zM242 771v10q22 41 39.5 78.5t31.5 71.5h58v-10q-12 -18 -33.5 -44.5t-45.5 -55t-44 -50.5h-6z" />
    <glyph glyph-name="Acircumflex" unicode="&#xc2;" horiz-adv-x="536" 
d="M0 0v10h27q26 0 37.5 15t24.5 66l163 623h42l183 -662q7 -26 17 -34t35 -8h7v-10h-192v10h25q30 0 39 7t9 20q0 11 -5 28t-10 35l-41 160h-217l-37 -142q-6 -22 -11.5 -45t-5.5 -35q0 -15 10 -21.5t38 -6.5h37v-10h-175zM147 270h211l-63 241q-19 72 -28 107.5t-15 61.5
q-5 -22 -9 -39t-8.5 -36t-12.5 -48zM160 771v10q12 19 27.5 45.5t30 54.5t26.5 50h48q10 -22 24.5 -50t30 -54.5t28.5 -45.5v-10h-5q-27 32 -53.5 63.5t-48.5 63.5q-24 -32 -50.5 -63.5t-53.5 -63.5h-4z" />
    <glyph glyph-name="Atilde" unicode="&#xc3;" horiz-adv-x="536" 
d="M0 0v10h27q26 0 37.5 15t24.5 66l163 623h42l183 -662q7 -26 17 -34t35 -8h7v-10h-192v10h25q30 0 39 7t9 20q0 11 -5 28t-10 35l-41 160h-217l-37 -142q-6 -22 -11.5 -45t-5.5 -35q0 -15 10 -21.5t38 -6.5h37v-10h-175zM147 270h211l-63 241q-19 72 -28 107.5t-15 61.5
q-5 -22 -9 -39t-8.5 -36t-12.5 -48zM327 771q-22 0 -39 10.5t-32.5 24t-31.5 24t-36 10.5q-23 0 -32.5 -16.5t-13.5 -42.5h-10q4 24 11 47t21 38.5t40 15.5q21 0 37.5 -10.5t31.5 -24t31 -24t37 -10.5q26 0 35.5 17t13.5 42h10q-3 -25 -10.5 -48t-22.5 -38t-40 -15z" />
    <glyph glyph-name="Adieresis" unicode="&#xc4;" horiz-adv-x="536" 
d="M0 0v10h27q26 0 37.5 15t24.5 66l163 623h42l183 -662q7 -26 17 -34t35 -8h7v-10h-192v10h25q30 0 39 7t9 20q0 11 -5 28t-10 35l-41 160h-217l-37 -142q-6 -22 -11.5 -45t-5.5 -35q0 -15 10 -21.5t38 -6.5h37v-10h-175zM147 270h211l-63 241q-19 72 -28 107.5t-15 61.5
q-5 -22 -9 -39t-8.5 -36t-12.5 -48zM339 817q-14 0 -21.5 10t-7.5 34q0 45 29 45t29 -45q0 -24 -7.5 -34t-21.5 -10zM194 817q-12 0 -19.5 10t-7.5 34t7.5 34.5t19.5 10.5q13 0 21.5 -10.5t8.5 -34.5t-8.5 -34t-21.5 -10z" />
    <glyph glyph-name="Aring" unicode="&#xc5;" horiz-adv-x="536" 
d="M0 0v10h27q26 0 37.5 15t24.5 66l158 583q-34 8 -53.5 34.5t-19.5 70.5q0 51 26.5 80t69.5 29t69 -29t26 -80q0 -42 -17.5 -67.5t-48.5 -33.5l178 -626q8 -26 17.5 -34t34.5 -8h7v-10h-192v10h25q30 0 39 7t9 23q0 8 -4.5 25t-9.5 34l-45 161h-212l-39 -142
q-6 -21 -11.5 -45t-5.5 -35q0 -15 10 -21.5t38 -6.5h37v-10h-175zM270 682q37 0 60 25.5t23 71.5q0 45 -23 72t-60 27q-38 0 -61 -27t-23 -72q0 -46 23 -71.5t61 -25.5zM148 270h208l-61 226q-11 40 -19 68t-13 50t-11 45q-6 -26 -12 -49.5t-18 -66.5z" />
    <glyph glyph-name="AE" unicode="&#xc6;" horiz-adv-x="727" 
d="M0 0v10h29q17 0 27 5.5t19 23.5t24 56l244 609h-92v10h411l5 -169h-10l-2 58q-2 43 -10 64.5t-27.5 29t-57.5 7.5h-142v-319h196v-10h-196l-1 -365h179q50 0 65 18t18 68l4 73h10l-5 -169h-404v10h17q23 0 35.5 5t16.5 21.5t4 49.5v171h-182l-58 -146q-11 -28 -17 -44.5
t-6 -29.5q0 -14 11.5 -20.5t39.5 -6.5h41v-10h-186zM179 267h178v437h-3z" />
    <glyph glyph-name="Ccedilla" unicode="&#xc7;" horiz-adv-x="466" 
d="M276 -10q-76 0 -127.5 46t-78 129t-26.5 194t26.5 193t79.5 127t131 45q74 0 115.5 -34t41.5 -80q0 -26 -13.5 -41t-36.5 -15q0 80 -24 120t-83 40q-94 0 -134 -94t-40 -261q0 -169 42.5 -263.5t136.5 -94.5q57 0 87.5 34.5t40.5 92.5q13 -4 17.5 -13.5t4.5 -17.5
q0 -23 -18 -47.5t-54 -42t-88 -17.5zM250 -229q-27 0 -55 11v10q12 -5 23 -7.5t21 -2.5q29 0 46 20t17 61q0 34 -13 51t-41 19l13 68h10l-11 -59q85 -9 85 -82q0 -41 -25 -65t-70 -24z" />
    <glyph glyph-name="Egrave" unicode="&#xc8;" horiz-adv-x="476" 
d="M32 0v10h19q22 0 34 5.5t16.5 22.5t4.5 53v530q0 37 -4.5 54.5t-16 23t-34.5 5.5h-19v10h379l5 -169h-10l-2 58q-2 43 -10 64.5t-28 29t-59 7.5h-141v-325h196v-10h-196l-1 -359h170q37 0 56.5 6.5t27 25t9.5 54.5l4 73h10l-5 -169h-405zM265 771q-20 22 -44.5 50.5
t-45.5 55t-33 44.5v10h57q15 -34 32 -71.5t40 -78.5v-10h-6z" />
    <glyph glyph-name="Eacute" unicode="&#xc9;" horiz-adv-x="476" 
d="M32 0v10h19q22 0 34 5.5t16.5 22.5t4.5 53v530q0 37 -4.5 54.5t-16 23t-34.5 5.5h-19v10h379l5 -169h-10l-2 58q-2 43 -10 64.5t-28 29t-59 7.5h-141v-325h196v-10h-196l-1 -359h170q37 0 56.5 6.5t27 25t9.5 54.5l4 73h10l-5 -169h-405zM210 771v10q22 41 39.5 78.5
t31.5 71.5h58v-10q-12 -18 -33.5 -44.5t-45.5 -55t-44 -50.5h-6z" />
    <glyph glyph-name="Ecircumflex" unicode="&#xca;" horiz-adv-x="476" 
d="M32 0v10h19q22 0 34 5.5t16.5 22.5t4.5 53v530q0 37 -4.5 54.5t-16 23t-34.5 5.5h-19v10h379l5 -169h-10l-2 58q-2 43 -10 64.5t-28 29t-59 7.5h-141v-325h196v-10h-196l-1 -359h170q37 0 56.5 6.5t27 25t9.5 54.5l4 73h10l-5 -169h-405zM139 771v10q12 19 27.5 45.5
t30 54.5t26.5 50h48q10 -22 24.5 -50t30 -54.5t28.5 -45.5v-10h-5q-27 32 -53.5 63.5t-48.5 63.5q-24 -32 -50.5 -63.5t-53.5 -63.5h-4z" />
    <glyph glyph-name="Edieresis" unicode="&#xcb;" horiz-adv-x="476" 
d="M32 0v10h19q22 0 34 5.5t16.5 22.5t4.5 53v530q0 37 -4.5 54.5t-16 23t-34.5 5.5h-19v10h379l5 -169h-10l-2 58q-2 43 -10 64.5t-28 29t-59 7.5h-141v-325h196v-10h-196l-1 -359h170q37 0 56.5 6.5t27 25t9.5 54.5l4 73h10l-5 -169h-405zM310 817q-14 0 -21.5 10t-7.5 34
q0 45 29 45t29 -45q0 -24 -7.5 -34t-21.5 -10zM165 817q-12 0 -19.5 10t-7.5 34t7.5 34.5t19.5 10.5q13 0 21.5 -10.5t8.5 -34.5t-8.5 -34t-21.5 -10z" />
    <glyph glyph-name="Igrave" unicode="&#xcc;" horiz-adv-x="277" 
d="M32 0v10h26q32 0 41 14.5t9 65.5v533q0 52 -9 66.5t-41 14.5h-26v10h213v-10h-26q-22 0 -33 -6t-14.5 -23t-3.5 -52v-533q0 -51 9 -65.5t42 -14.5h26v-10h-213zM162 771q-20 22 -44.5 50.5t-45.5 55t-33 44.5v10h57q15 -34 32 -71.5t40 -78.5v-10h-6z" />
    <glyph glyph-name="Iacute" unicode="&#xcd;" horiz-adv-x="277" 
d="M32 0v10h26q32 0 41 14.5t9 65.5v533q0 52 -9 66.5t-41 14.5h-26v10h213v-10h-26q-22 0 -33 -6t-14.5 -23t-3.5 -52v-533q0 -51 9 -65.5t42 -14.5h26v-10h-213zM106 771v10q22 41 39.5 78.5t31.5 71.5h58v-10q-12 -18 -33.5 -44.5t-45.5 -55t-44 -50.5h-6z" />
    <glyph glyph-name="Icircumflex" unicode="&#xce;" horiz-adv-x="277" 
d="M32 0v10h26q32 0 41 14.5t9 65.5v533q0 52 -9 66.5t-41 14.5h-26v10h213v-10h-26q-22 0 -33 -6t-14.5 -23t-3.5 -52v-533q0 -51 9 -65.5t42 -14.5h26v-10h-213zM31 771v10q12 19 27.5 45.5t30 54.5t26.5 50h48q10 -22 24.5 -50t30 -54.5t28.5 -45.5v-10h-5
q-27 32 -53.5 63.5t-48.5 63.5q-24 -32 -50.5 -63.5t-53.5 -63.5h-4z" />
    <glyph glyph-name="Idieresis" unicode="&#xcf;" horiz-adv-x="277" 
d="M31 0v10h26q32 0 41 14.5t9 65.5v533q0 52 -9 66.5t-41 14.5h-26v10h213v-10h-26q-22 0 -33 -6t-14.5 -23t-3.5 -52v-533q0 -51 9 -65.5t42 -14.5h26v-10h-213zM206 817q-14 0 -21.5 10t-7.5 34q0 45 29 45t29 -45q0 -24 -7.5 -34t-21.5 -10zM61 817q-12 0 -19.5 10
t-7.5 34t7.5 34.5t19.5 10.5q13 0 21.5 -10.5t8.5 -34.5t-8.5 -34t-21.5 -10z" />
    <glyph glyph-name="Eth" unicode="&#xd0;" horiz-adv-x="555" 
d="M32 0v10h19q23 0 35 5.5t16 23t4 53.5v277h-76v10h76v247q0 34 -4 50.5t-16 22t-35 5.5h-19v10h220q126 0 192.5 -95.5t66.5 -268.5q0 -164 -63.5 -257t-196.5 -93h-219zM167 10h80q102 0 151 81t49 260q0 173 -49 263t-150 90h-81v-325h146v-10h-146v-359z" />
    <glyph glyph-name="Ntilde" unicode="&#xd1;" horiz-adv-x="586" 
d="M32 0v10h25q23 0 34.5 6t15.5 23.5t4 52.5v531q0 35 -3.5 52t-15 23t-34.5 6h-26v10h131l308 -648v557q0 35 -3.5 52t-14.5 23t-34 6h-37v10h181v-10h-30q-23 0 -34 -6t-14.5 -23.5t-3.5 -52.5v-622h-40l-320 671v-579q0 -35 3.5 -52.5t14.5 -23.5t34 -6h38v-10h-179z
M365 771q-22 0 -39 10.5t-32.5 24t-31.5 24t-36 10.5q-23 0 -32.5 -16.5t-13.5 -42.5h-10q4 24 11 47t21 38.5t40 15.5q21 0 37.5 -10.5t31.5 -24t31 -24t37 -10.5q26 0 35.5 17t13.5 42h10q-3 -25 -10.5 -48t-22.5 -38t-40 -15z" />
    <glyph glyph-name="Ograve" unicode="&#xd2;" horiz-adv-x="567" 
d="M283 -10q-81 0 -134 46t-79 129t-26 194q0 175 59.5 270.5t180.5 95.5q238 0 238 -367q0 -172 -62.5 -270t-176.5 -98zM283 0q176 0 176 358q0 182 -39 269.5t-136 87.5q-94 0 -135.5 -87.5t-41.5 -269.5q0 -176 43.5 -267t132.5 -91zM310 771q-20 22 -44.5 50.5
t-45.5 55t-33 44.5v10h57q15 -34 32 -71.5t40 -78.5v-10h-6z" />
    <glyph glyph-name="Oacute" unicode="&#xd3;" horiz-adv-x="567" 
d="M283 -10q-81 0 -134 46t-79 129t-26 194q0 175 59.5 270.5t180.5 95.5q238 0 238 -367q0 -172 -62.5 -270t-176.5 -98zM283 0q176 0 176 358q0 182 -39 269.5t-136 87.5q-94 0 -135.5 -87.5t-41.5 -269.5q0 -176 43.5 -267t132.5 -91zM246 771v10q22 41 39.5 78.5
t31.5 71.5h58v-10q-12 -18 -33.5 -44.5t-45.5 -55t-44 -50.5h-6z" />
    <glyph glyph-name="Ocircumflex" unicode="&#xd4;" horiz-adv-x="567" 
d="M283 -10q-81 0 -134 46t-79 129t-26 194q0 175 59.5 270.5t180.5 95.5q238 0 238 -367q0 -172 -62.5 -270t-176.5 -98zM283 0q176 0 176 358q0 182 -39 269.5t-136 87.5q-94 0 -135.5 -87.5t-41.5 -269.5q0 -176 43.5 -267t132.5 -91zM176 771v10q12 19 27.5 45.5
t30 54.5t26.5 50h48q10 -22 24.5 -50t30 -54.5t28.5 -45.5v-10h-5q-27 32 -53.5 63.5t-48.5 63.5q-24 -32 -50.5 -63.5t-53.5 -63.5h-4z" />
    <glyph glyph-name="Otilde" unicode="&#xd5;" horiz-adv-x="567" 
d="M283 -10q-81 0 -134 46t-79 129t-26 194q0 175 59.5 270.5t180.5 95.5q238 0 238 -367q0 -172 -62.5 -270t-176.5 -98zM283 0q176 0 176 358q0 182 -39 269.5t-136 87.5q-94 0 -135.5 -87.5t-41.5 -269.5q0 -176 43.5 -267t132.5 -91zM337 771q-22 0 -39 10.5t-32.5 24
t-31.5 24t-36 10.5q-23 0 -32.5 -16.5t-13.5 -42.5h-10q4 24 11 47t21 38.5t40 15.5q21 0 37.5 -10.5t31.5 -24t31 -24t37 -10.5q26 0 35.5 17t13.5 42h10q-3 -25 -10.5 -48t-22.5 -38t-40 -15z" />
    <glyph glyph-name="Odieresis" unicode="&#xd6;" horiz-adv-x="567" 
d="M283 -10q-81 0 -134 46t-79 129t-26 194q0 175 59.5 270.5t180.5 95.5q238 0 238 -367q0 -172 -62.5 -270t-176.5 -98zM283 0q176 0 176 358q0 182 -39 269.5t-136 87.5q-94 0 -135.5 -87.5t-41.5 -269.5q0 -176 43.5 -267t132.5 -91zM353 817q-14 0 -21.5 10t-7.5 34
q0 45 29 45t29 -45q0 -24 -7.5 -34t-21.5 -10zM208 817q-12 0 -19.5 10t-7.5 34t7.5 34.5t19.5 10.5q13 0 21.5 -10.5t8.5 -34.5t-8.5 -34t-21.5 -10z" />
    <glyph glyph-name="multiply" unicode="&#xd7;" horiz-adv-x="425" 
d="M73 153l-16 12l149 199l-149 198l16 12l146 -194l146 194l16 -12l-149 -198l149 -199l-16 -12l-146 194z" />
    <glyph glyph-name="Oslash" unicode="&#xd8;" horiz-adv-x="566" 
d="M105 -40l36 84q-49 46 -73 127t-24 188q0 175 59.5 270.5t180.5 95.5q83 0 137 -45l33 75h10l-36 -82q94 -85 94 -315q0 -172 -62.5 -270t-176.5 -98q-41 0 -74.5 12t-59.5 35l-34 -77h-10zM157 80l250 569q-42 66 -123 66q-94 0 -135.5 -87.5t-41.5 -269.5
q0 -189 50 -278zM283 0q176 0 176 358q0 97 -11 167t-35 114l-250 -570q43 -69 120 -69z" />
    <glyph glyph-name="Ugrave" unicode="&#xd9;" horiz-adv-x="549" 
d="M276 -10q-86 0 -138.5 52t-52.5 173v410q0 35 -4.5 51.5t-16.5 22t-34 5.5h-19v10h213v-10h-23q-22 0 -34 -5.5t-16.5 -23t-4.5 -53.5v-425q0 -105 38 -148t102 -43q60 0 94.5 25.5t48.5 70t14 103.5v419q0 35 -4.5 52t-16.5 22.5t-35 5.5h-39v10h189v-10h-32
q-21 0 -32.5 -5.5t-15.5 -23t-4 -53.5v-419q0 -101 -41.5 -157t-135.5 -56zM305 771q-20 22 -44.5 50.5t-45.5 55t-33 44.5v10h57q15 -34 32 -71.5t40 -78.5v-10h-6z" />
    <glyph glyph-name="Uacute" unicode="&#xda;" horiz-adv-x="549" 
d="M276 -10q-86 0 -138.5 52t-52.5 173v410q0 35 -4.5 51.5t-16.5 22t-34 5.5h-19v10h213v-10h-23q-22 0 -34 -5.5t-16.5 -23t-4.5 -53.5v-425q0 -105 38 -148t102 -43q60 0 94.5 25.5t48.5 70t14 103.5v419q0 35 -4.5 52t-16.5 22.5t-35 5.5h-39v10h189v-10h-32
q-21 0 -32.5 -5.5t-15.5 -23t-4 -53.5v-419q0 -101 -41.5 -157t-135.5 -56zM248 771v10q22 41 39.5 78.5t31.5 71.5h58v-10q-12 -18 -33.5 -44.5t-45.5 -55t-44 -50.5h-6z" />
    <glyph glyph-name="Ucircumflex" unicode="&#xdb;" horiz-adv-x="549" 
d="M276 -10q-86 0 -138.5 52t-52.5 173v410q0 35 -4.5 51.5t-16.5 22t-34 5.5h-19v10h213v-10h-23q-22 0 -34 -5.5t-16.5 -23t-4.5 -53.5v-425q0 -105 38 -148t102 -43q60 0 94.5 25.5t48.5 70t14 103.5v419q0 35 -4.5 52t-16.5 22.5t-35 5.5h-39v10h189v-10h-32
q-21 0 -32.5 -5.5t-15.5 -23t-4 -53.5v-419q0 -101 -41.5 -157t-135.5 -56zM180 771v10q12 19 27.5 45.5t30 54.5t26.5 50h48q10 -22 24.5 -50t30 -54.5t28.5 -45.5v-10h-5q-27 32 -53.5 63.5t-48.5 63.5q-24 -32 -50.5 -63.5t-53.5 -63.5h-4z" />
    <glyph glyph-name="Udieresis" unicode="&#xdc;" horiz-adv-x="549" 
d="M276 -10q-86 0 -138.5 52t-52.5 173v410q0 35 -4.5 51.5t-16.5 22t-34 5.5h-19v10h213v-10h-23q-22 0 -34 -5.5t-16.5 -23t-4.5 -53.5v-425q0 -105 38 -148t102 -43q60 0 94.5 25.5t48.5 70t14 103.5v419q0 35 -4.5 52t-16.5 22.5t-35 5.5h-39v10h189v-10h-32
q-21 0 -32.5 -5.5t-15.5 -23t-4 -53.5v-419q0 -101 -41.5 -157t-135.5 -56zM360 817q-14 0 -21.5 10t-7.5 34q0 45 29 45t29 -45q0 -24 -7.5 -34t-21.5 -10zM215 817q-12 0 -19.5 10t-7.5 34t7.5 34.5t19.5 10.5q13 0 21.5 -10.5t8.5 -34.5t-8.5 -34t-21.5 -10z" />
    <glyph glyph-name="Yacute" unicode="&#xdd;" horiz-adv-x="469" 
d="M121 0v10h28q24 0 36 6t16 23.5t4 53.5v249l-148 317q-14 30 -25.5 37.5t-30.5 7.5h-6v10h192v-10h-25q-28 0 -36.5 -5t-8.5 -15q0 -8 4.5 -20t13.5 -31l71 -160q14 -31 26.5 -58t27.5 -61q7 15 18 40t23 51l84 190q10 23 12.5 32t2.5 17q0 10 -7 15t-33 5h-52v10h164
v-10h-8q-24 0 -33 -7t-23 -36l-142 -314v-254q0 -36 3.5 -53.5t15 -23.5t35.5 -6h29v-10h-228zM210 771v10q22 41 39.5 78.5t31.5 71.5h58v-10q-12 -18 -33.5 -44.5t-45.5 -55t-44 -50.5h-6z" />
    <glyph glyph-name="Thorn" unicode="&#xde;" horiz-adv-x="462" 
d="M32 0v10h26q31 0 40.5 14.5t9.5 65.5v533q0 52 -9.5 66.5t-40.5 14.5h-26v10h213v-10h-26q-32 0 -41 -14.5t-9 -65.5v-61h66q101 0 147.5 -48.5t46.5 -148.5q0 -107 -50.5 -155.5t-160.5 -48.5h-49v-72q0 -50 9.5 -65t40.5 -15h26v-10h-213zM169 172h51q52 0 84 16.5
t47 58t15 115.5q0 72 -13 113.5t-43 59.5t-79 18h-62v-381z" />
    <glyph glyph-name="germandbls" unicode="&#xdf;" horiz-adv-x="490" 
d="M324 -10q-58 0 -86.5 33.5t-28.5 78.5q0 28 9.5 43t25.5 15q0 -83 17.5 -121.5t62.5 -38.5q86 0 86 120q0 37 -10 60.5t-28 40t-42 32.5q-30 20 -54 40t-38 46t-14 65q0 52 32 89.5t104 37.5q0 103 -23 160t-85 57q-54 0 -75 -42t-21 -111v-595h-134v10h20q22 0 34 5
t16 22t4 52v437h-69v10h69v44q0 94 45 136t115 42q87 0 121.5 -59.5t36.5 -177.5h-51q-51 0 -72.5 -29.5t-21.5 -69.5q0 -41 21 -65.5t65 -55.5q25 -18 48 -37.5t37 -49t14 -76.5q0 -70 -33.5 -109t-96.5 -39z" />
    <glyph glyph-name="agrave" unicode="&#xe0;" horiz-adv-x="429" 
d="M157 -10q-52 0 -84.5 37.5t-32.5 113.5q0 77 44 114t134 42l64 3v85q0 84 -18.5 116.5t-60.5 32.5t-61.5 -31.5t-19.5 -111.5q-23 0 -36.5 12.5t-13.5 38.5q0 44 37 73t99 29q66 0 100 -40t34 -135v-279q0 -52 10 -66t39 -14h2v-10h-109v103h-2q-16 -55 -48.5 -84
t-76.5 -29zM174 9q32 0 56.5 23t38 62.5t13.5 89.5v106l-53 -3q-72 -4 -100 -41t-28 -106q0 -131 73 -131zM236 606q-20 22 -44.5 50.5t-45.5 55t-33 44.5v10h57q15 -34 32 -71.5t40 -78.5v-10h-6z" />
    <glyph glyph-name="aacute" unicode="&#xe1;" horiz-adv-x="429" 
d="M157 -10q-52 0 -84.5 37.5t-32.5 113.5q0 77 44 114t134 42l64 3v85q0 84 -18.5 116.5t-60.5 32.5t-61.5 -31.5t-19.5 -111.5q-23 0 -36.5 12.5t-13.5 38.5q0 44 37 73t99 29q66 0 100 -40t34 -135v-279q0 -52 10 -66t39 -14h2v-10h-109v103h-2q-16 -55 -48.5 -84
t-76.5 -29zM174 9q32 0 56.5 23t38 62.5t13.5 89.5v106l-53 -3q-72 -4 -100 -41t-28 -106q0 -131 73 -131zM180 606v10q22 41 39.5 78.5t31.5 71.5h58v-10q-12 -18 -33.5 -44.5t-45.5 -55t-44 -50.5h-6z" />
    <glyph glyph-name="acircumflex" unicode="&#xe2;" horiz-adv-x="429" 
d="M157 -10q-52 0 -84.5 37.5t-32.5 113.5q0 77 44 114t134 42l64 3v85q0 84 -18.5 116.5t-60.5 32.5t-61.5 -31.5t-19.5 -111.5q-23 0 -36.5 12.5t-13.5 38.5q0 44 37 73t99 29q66 0 100 -40t34 -135v-279q0 -52 10 -66t39 -14h2v-10h-109v103h-2q-16 -55 -48.5 -84
t-76.5 -29zM174 9q32 0 56.5 23t38 62.5t13.5 89.5v106l-53 -3q-72 -4 -100 -41t-28 -106q0 -131 73 -131zM99 606v10q12 19 27.5 45.5t30 54.5t26.5 50h48q10 -22 24.5 -50t30 -54.5t28.5 -45.5v-10h-5q-27 32 -53.5 63.5t-48.5 63.5q-24 -32 -50.5 -63.5t-53.5 -63.5h-4z
" />
    <glyph glyph-name="atilde" unicode="&#xe3;" horiz-adv-x="429" 
d="M157 -10q-52 0 -84.5 37.5t-32.5 113.5q0 77 44 114t134 42l64 3v85q0 84 -18.5 116.5t-60.5 32.5t-61.5 -31.5t-19.5 -111.5q-23 0 -36.5 12.5t-13.5 38.5q0 44 37 73t99 29q66 0 100 -40t34 -135v-279q0 -52 10 -66t39 -14h2v-10h-109v103h-2q-16 -55 -48.5 -84
t-76.5 -29zM174 9q32 0 56.5 23t38 62.5t13.5 89.5v106l-53 -3q-72 -4 -100 -41t-28 -106q0 -131 73 -131zM271 606q-22 0 -39 10.5t-32.5 24t-31.5 24t-36 10.5q-23 0 -32.5 -16.5t-13.5 -42.5h-10q4 24 11 47t21 38.5t40 15.5q21 0 37.5 -10.5t31.5 -24t31 -24t37 -10.5
q26 0 35.5 17t13.5 42h10q-3 -25 -10.5 -48t-22.5 -38t-40 -15z" />
    <glyph glyph-name="adieresis" unicode="&#xe4;" horiz-adv-x="429" 
d="M157 -10q-52 0 -84.5 37.5t-32.5 113.5q0 77 44 114t134 42l64 3v85q0 84 -18.5 116.5t-60.5 32.5t-61.5 -31.5t-19.5 -111.5q-23 0 -36.5 12.5t-13.5 38.5q0 44 37 73t99 29q66 0 100 -40t34 -135v-279q0 -52 10 -66t39 -14h2v-10h-109v103h-2q-16 -55 -48.5 -84
t-76.5 -29zM174 9q32 0 56.5 23t38 62.5t13.5 89.5v106l-53 -3q-72 -4 -100 -41t-28 -106q0 -131 73 -131zM276 652q-14 0 -21.5 10t-7.5 34q0 45 29 45t29 -45q0 -24 -7.5 -34t-21.5 -10zM131 652q-12 0 -19.5 10t-7.5 34t7.5 34.5t19.5 10.5q13 0 21.5 -10.5t8.5 -34.5
t-8.5 -34t-21.5 -10z" />
    <glyph glyph-name="aring" unicode="&#xe5;" horiz-adv-x="429" 
d="M157 -10q-52 0 -84.5 37.5t-32.5 113.5q0 77 44 114t134 42l64 3v85q0 84 -18.5 116.5t-60.5 32.5t-61.5 -31.5t-19.5 -111.5q-23 0 -36.5 12.5t-13.5 38.5q0 44 37 73t99 29q66 0 100 -40t34 -135v-279q0 -52 10 -66t39 -14h2v-10h-109v103h-2q-16 -55 -48.5 -84
t-76.5 -29zM174 9q32 0 56.5 23t38 62.5t13.5 89.5v106l-53 -3q-72 -4 -100 -41t-28 -106q0 -131 73 -131zM212 596q-43 0 -69 28.5t-26 80.5t26 80.5t69 28.5t69 -28.5t26 -80.5t-26 -80.5t-69 -28.5zM213 606q37 0 59.5 26t22.5 73t-22.5 73t-59.5 26q-39 0 -61.5 -26
t-22.5 -73t22.5 -73t61.5 -26z" />
    <glyph glyph-name="ae" unicode="&#xe6;" horiz-adv-x="642" 
d="M159 -10q-53 0 -86 37t-33 116q0 74 44 111.5t134 42.5l64 3v85q0 75 -15 112t-64 37q-47 0 -65 -35t-18 -108q-48 0 -48 51q0 44 37 73t98 29q43 0 72.5 -20.5t42.5 -68.5q38 89 123 89q73 0 115.5 -62.5t42.5 -188.5v-13h-262q1 -106 16 -166.5t43 -86.5t66 -26
q39 0 65.5 26t35.5 85q21 -6 21 -26t-15 -42.5t-45 -38t-73 -15.5q-57 0 -95 36.5t-54 104.5q-13 -58 -48.5 -99.5t-98.5 -41.5zM341 290h202q0 130 -23.5 187t-73.5 57q-46 0 -75.5 -55t-29.5 -189zM177 4q45 0 75.5 40t29.5 127v119l-53 -3q-69 -3 -98.5 -38.5
t-29.5 -105.5q0 -72 18.5 -105.5t57.5 -33.5z" />
    <glyph glyph-name="ccedilla" unicode="&#xe7;" horiz-adv-x="374" 
d="M212 -10q-48 0 -86 25.5t-59.5 86.5t-21.5 167t21.5 166t59.5 84.5t87 24.5q67 0 98.5 -32t31.5 -70q0 -49 -53 -49q0 71 -16 106t-60 35q-34 0 -58.5 -22.5t-37.5 -80t-13 -162.5q0 -99 13 -158t39.5 -84.5t64.5 -25.5q46 0 71 31.5t32 87.5q20 -7 20 -31
q0 -21 -13.5 -44t-42.5 -39t-77 -16zM190 -229q-27 0 -55 11v10q13 -5 23.5 -7.5t20.5 -2.5q29 0 46 20t17 61q0 34 -13.5 51t-40.5 19l14 70h10l-12 -61q86 -9 86 -82q0 -41 -25.5 -65t-70.5 -24z" />
    <glyph glyph-name="egrave" unicode="&#xe8;" horiz-adv-x="407" 
d="M220 -10q-84 0 -129.5 71.5t-45.5 201.5q0 141 43.5 211t122.5 70q76 0 116 -66.5t40 -182.5v-16h-263q0 -149 33 -213.5t93 -64.5q86 0 103 111q19 -5 19 -26q0 -19 -14.5 -41.5t-44 -38.5t-73.5 -16zM104 289h204q-1 123 -22.5 184t-74.5 61t-79 -60t-28 -185zM242 606
q-20 22 -44.5 50.5t-45.5 55t-33 44.5v10h57q15 -34 32 -71.5t40 -78.5v-10h-6z" />
    <glyph glyph-name="eacute" unicode="&#xe9;" horiz-adv-x="407" 
d="M220 -10q-84 0 -129.5 71.5t-45.5 201.5q0 141 43.5 211t122.5 70q76 0 116 -66.5t40 -182.5v-16h-263q0 -149 33 -213.5t93 -64.5q86 0 103 111q19 -5 19 -26q0 -19 -14.5 -41.5t-44 -38.5t-73.5 -16zM104 289h204q-1 123 -22.5 184t-74.5 61t-79 -60t-28 -185zM181 606
v10q22 41 39.5 78.5t31.5 71.5h58v-10q-12 -18 -33.5 -44.5t-45.5 -55t-44 -50.5h-6z" />
    <glyph glyph-name="ecircumflex" unicode="&#xea;" horiz-adv-x="407" 
d="M220 -10q-84 0 -129.5 71.5t-45.5 201.5q0 141 43.5 211t122.5 70q76 0 116 -66.5t40 -182.5v-16h-263q0 -149 33 -213.5t93 -64.5q86 0 103 111q19 -5 19 -26q0 -19 -14.5 -41.5t-44 -38.5t-73.5 -16zM104 289h204q-1 123 -22.5 184t-74.5 61t-79 -60t-28 -185zM103 606
v10q12 19 27.5 45.5t30 54.5t26.5 50h48q10 -22 24.5 -50t30 -54.5t28.5 -45.5v-10h-5q-27 32 -53.5 63.5t-48.5 63.5q-24 -32 -50.5 -63.5t-53.5 -63.5h-4z" />
    <glyph glyph-name="edieresis" unicode="&#xeb;" horiz-adv-x="407" 
d="M220 -10q-84 0 -129.5 71.5t-45.5 201.5q0 141 43.5 211t122.5 70q76 0 116 -66.5t40 -182.5v-16h-263q0 -149 33 -213.5t93 -64.5q86 0 103 111q19 -5 19 -26q0 -19 -14.5 -41.5t-44 -38.5t-73.5 -16zM104 289h204q-1 123 -22.5 184t-74.5 61t-79 -60t-28 -185zM278 652
q-14 0 -21.5 10t-7.5 34q0 45 29 45t29 -45q0 -24 -7.5 -34t-21.5 -10zM133 652q-12 0 -19.5 10t-7.5 34t7.5 34.5t19.5 10.5q13 0 21.5 -10.5t8.5 -34.5t-8.5 -34t-21.5 -10z" />
    <glyph glyph-name="igrave" unicode="&#xec;" horiz-adv-x="241" 
d="M14 0v10h15q27 0 40.5 5t18 21t4.5 49v365q0 33 -4.5 49t-17 21.5t-37.5 5.5h-9v10h128v-451q0 -33 4.5 -49t18.5 -21t40 -5h12v-10h-213zM131 606q-20 22 -44.5 50.5t-45.5 55t-33 44.5v10h57q15 -34 32 -71.5t40 -78.5v-10h-6z" />
    <glyph glyph-name="iacute" unicode="&#xed;" horiz-adv-x="241" 
d="M19 0v10h15q27 0 40.5 5t18 21t4.5 49v365q0 33 -4.5 49t-17 21.5t-37.5 5.5h-9v10h128v-451q0 -33 4.5 -49t18.5 -21t40 -5h12v-10h-213zM86 606v10q22 41 39.5 78.5t31.5 71.5h58v-10q-12 -18 -33.5 -44.5t-45.5 -55t-44 -50.5h-6z" />
    <glyph glyph-name="icircumflex" unicode="&#xee;" horiz-adv-x="241" 
d="M19 0v10h15q27 0 40.5 5t18 21t4.5 49v365q0 33 -4.5 49t-17 21.5t-37.5 5.5h-9v10h128v-451q0 -33 4.5 -49t18.5 -21t40 -5h12v-10h-213zM4 606v10q12 19 27.5 45.5t30 54.5t26.5 50h48q10 -22 24.5 -50t30 -54.5t28.5 -45.5v-10h-5q-27 32 -53.5 63.5t-48.5 63.5
q-24 -32 -50.5 -63.5t-53.5 -63.5h-4z" />
    <glyph glyph-name="idieresis" unicode="&#xef;" horiz-adv-x="241" 
d="M18 0v10h15q27 0 40.5 5t18 21t4.5 49v365q0 33 -4.5 49t-17 21.5t-37.5 5.5h-9v10h128v-451q0 -33 4.5 -49t18.5 -21t40 -5h12v-10h-213zM185 652q-14 0 -21.5 10t-7.5 34q0 45 29 45t29 -45q0 -24 -7.5 -34t-21.5 -10zM40 652q-12 0 -19.5 10t-7.5 34t7.5 34.5
t19.5 10.5q13 0 21.5 -10.5t8.5 -34.5t-8.5 -34t-21.5 -10z" />
    <glyph glyph-name="eth" unicode="&#xf0;" horiz-adv-x="439" 
d="M220 -10q-88 0 -131.5 66.5t-43.5 188.5q0 129 41.5 191.5t123.5 62.5q39 0 68.5 -17.5t48.5 -58.5q-12 71 -34 128t-51 97l-101 -81v13l95 76q-43 58 -118 94v11q44 -17 78.5 -40.5t59.5 -49.5l92 77v-13l-86 -71q69 -68 100.5 -167.5t31.5 -217.5q0 -155 -44 -222
t-130 -67zM220 0q59 0 86.5 58.5t27.5 187.5q0 126 -25.5 183.5t-89.5 57.5t-88.5 -58.5t-24.5 -182.5q0 -129 27 -187.5t87 -58.5z" />
    <glyph glyph-name="ntilde" unicode="&#xf1;" horiz-adv-x="496" 
d="M24 0v10h7q29 0 42.5 5t18 20.5t4.5 48.5v370q0 32 -4.5 47.5t-18 20t-41.5 4.5h-5v10h128v-99h2q13 48 42.5 77.5t79.5 29.5q67 0 98 -44t31 -139v-277q0 -32 4 -48t17 -21t40 -5h4v-10h-124v367q0 77 -19.5 117t-66.5 40q-45 0 -76 -43t-31 -144v-254q0 -33 4 -48.5
t17 -20t41 -4.5h6v-10h-200zM311 606q-22 0 -39 10.5t-32.5 24t-31.5 24t-36 10.5q-23 0 -32.5 -16.5t-13.5 -42.5h-10q4 24 11 47t21 38.5t40 15.5q21 0 37.5 -10.5t31.5 -24t31 -24t37 -10.5q26 0 35.5 17t13.5 42h10q-3 -25 -10.5 -48t-22.5 -38t-40 -15z" />
    <glyph glyph-name="ograve" unicode="&#xf2;" horiz-adv-x="439" 
d="M219 -10q-83 0 -128.5 68t-45.5 210q0 139 43 207.5t133 68.5q173 0 173 -276q0 -145 -44.5 -211.5t-130.5 -66.5zM220 0q64 0 89 63.5t25 204.5q0 142 -25 204t-90 62q-63 0 -88.5 -62t-25.5 -204t27.5 -205t87.5 -63zM251 606q-20 22 -44.5 50.5t-45.5 55t-33 44.5v10
h57q15 -34 32 -71.5t40 -78.5v-10h-6z" />
    <glyph glyph-name="oacute" unicode="&#xf3;" horiz-adv-x="439" 
d="M219 -10q-83 0 -128.5 68t-45.5 210q0 139 43 207.5t133 68.5q173 0 173 -276q0 -145 -44.5 -211.5t-130.5 -66.5zM220 0q64 0 89 63.5t25 204.5q0 142 -25 204t-90 62q-63 0 -88.5 -62t-25.5 -204t27.5 -205t87.5 -63zM197 606v10q22 41 39.5 78.5t31.5 71.5h58v-10
q-12 -18 -33.5 -44.5t-45.5 -55t-44 -50.5h-6z" />
    <glyph glyph-name="ocircumflex" unicode="&#xf4;" horiz-adv-x="439" 
d="M219 -10q-83 0 -128.5 68t-45.5 210q0 139 43 207.5t133 68.5q173 0 173 -276q0 -145 -44.5 -211.5t-130.5 -66.5zM220 0q64 0 89 63.5t25 204.5q0 142 -25 204t-90 62q-63 0 -88.5 -62t-25.5 -204t27.5 -205t87.5 -63zM110 606v10q12 19 27.5 45.5t30 54.5t26.5 50h48
q10 -22 24.5 -50t30 -54.5t28.5 -45.5v-10h-5q-27 32 -53.5 63.5t-48.5 63.5q-24 -32 -50.5 -63.5t-53.5 -63.5h-4z" />
    <glyph glyph-name="otilde" unicode="&#xf5;" horiz-adv-x="439" 
d="M219 -10q-83 0 -128.5 68t-45.5 210q0 139 43 207.5t133 68.5q173 0 173 -276q0 -145 -44.5 -211.5t-130.5 -66.5zM220 0q64 0 89 63.5t25 204.5q0 142 -25 204t-90 62q-63 0 -88.5 -62t-25.5 -204t27.5 -205t87.5 -63zM278 606q-22 0 -39 10.5t-32.5 24t-31.5 24
t-36 10.5q-23 0 -32.5 -16.5t-13.5 -42.5h-10q4 24 11 47t21 38.5t40 15.5q21 0 37.5 -10.5t31.5 -24t31 -24t37 -10.5q26 0 35.5 17t13.5 42h10q-3 -25 -10.5 -48t-22.5 -38t-40 -15z" />
    <glyph glyph-name="odieresis" unicode="&#xf6;" horiz-adv-x="439" 
d="M219 -10q-83 0 -128.5 68t-45.5 210q0 139 43 207.5t133 68.5q173 0 173 -276q0 -145 -44.5 -211.5t-130.5 -66.5zM220 0q64 0 89 63.5t25 204.5q0 142 -25 204t-90 62q-63 0 -88.5 -62t-25.5 -204t27.5 -205t87.5 -63zM288 652q-14 0 -21.5 10t-7.5 34q0 45 29 45
t29 -45q0 -24 -7.5 -34t-21.5 -10zM143 652q-12 0 -19.5 10t-7.5 34t7.5 34.5t19.5 10.5q13 0 21.5 -10.5t8.5 -34.5t-8.5 -34t-21.5 -10z" />
    <glyph glyph-name="divide" unicode="&#xf7;" horiz-adv-x="425" 
d="M213 513q-13 0 -20.5 7.5t-7.5 28.5q0 23 7.5 30.5t20.5 7.5t21 -7.5t8 -30.5q0 -21 -8 -28.5t-21 -7.5zM50 348v20h325v-20h-325zM213 132q-13 0 -20.5 7.5t-7.5 28.5q0 22 7.5 30t20.5 8t21 -8t8 -30q0 -21 -8 -28.5t-21 -7.5z" />
    <glyph glyph-name="oslash" unicode="&#xf8;" horiz-adv-x="439" 
d="M64 -40l40 80q-28 34 -43.5 90.5t-15.5 137.5q0 139 43 207.5t133 68.5q69 0 111 -44l37 76h11l-42 -84q56 -68 56 -224q0 -145 -44.5 -211.5t-130.5 -66.5q-66 0 -108 43l-36 -73h-11zM126 85l185 375q-25 74 -92 74q-63 0 -88.5 -62t-25.5 -204q0 -118 21 -183zM220 0
q64 0 89 63.5t25 204.5q0 58 -4 103t-14 76l-185 -375q26 -72 89 -72z" />
    <glyph glyph-name="ugrave" unicode="&#xf9;" horiz-adv-x="486" 
d="M213 -10q-61 0 -95 45t-34 149v270q0 32 -4.5 47.5t-18.5 20t-43 4.5h-3v10h128v-367q0 -83 21 -121t67 -38q54 0 80.5 52.5t26.5 137.5v242q0 38 -3.5 56t-17 23t-44.5 5h-2v10h127v-449q0 -35 4 -51.5t18 -21t44 -4.5h3v-10h-128v103h-2q-13 -54 -44.5 -83.5
t-79.5 -29.5zM266 606q-20 22 -44.5 50.5t-45.5 55t-33 44.5v10h57q15 -34 32 -71.5t40 -78.5v-10h-6z" />
    <glyph glyph-name="uacute" unicode="&#xfa;" horiz-adv-x="486" 
d="M213 -10q-61 0 -95 45t-34 149v270q0 32 -4.5 47.5t-18.5 20t-43 4.5h-3v10h128v-367q0 -83 21 -121t67 -38q54 0 80.5 52.5t26.5 137.5v242q0 38 -3.5 56t-17 23t-44.5 5h-2v10h127v-449q0 -35 4 -51.5t18 -21t44 -4.5h3v-10h-128v103h-2q-13 -54 -44.5 -83.5
t-79.5 -29.5zM208 606v10q22 41 39.5 78.5t31.5 71.5h58v-10q-12 -18 -33.5 -44.5t-45.5 -55t-44 -50.5h-6z" />
    <glyph glyph-name="ucircumflex" unicode="&#xfb;" horiz-adv-x="486" 
d="M213 -10q-61 0 -95 45t-34 149v270q0 32 -4.5 47.5t-18.5 20t-43 4.5h-3v10h128v-367q0 -83 21 -121t67 -38q54 0 80.5 52.5t26.5 137.5v242q0 38 -3.5 56t-17 23t-44.5 5h-2v10h127v-449q0 -35 4 -51.5t18 -21t44 -4.5h3v-10h-128v103h-2q-13 -54 -44.5 -83.5
t-79.5 -29.5zM137 606v10q12 19 27.5 45.5t30 54.5t26.5 50h48q10 -22 24.5 -50t30 -54.5t28.5 -45.5v-10h-5q-27 32 -53.5 63.5t-48.5 63.5q-24 -32 -50.5 -63.5t-53.5 -63.5h-4z" />
    <glyph glyph-name="udieresis" unicode="&#xfc;" horiz-adv-x="486" 
d="M213 -10q-61 0 -95 45t-34 149v270q0 32 -4.5 47.5t-18.5 20t-43 4.5h-3v10h128v-367q0 -83 21 -121t67 -38q54 0 80.5 52.5t26.5 137.5v242q0 38 -3.5 56t-17 23t-44.5 5h-2v10h127v-449q0 -35 4 -51.5t18 -21t44 -4.5h3v-10h-128v103h-2q-13 -54 -44.5 -83.5
t-79.5 -29.5zM314 652q-14 0 -21.5 10t-7.5 34q0 45 29 45t29 -45q0 -24 -7.5 -34t-21.5 -10zM169 652q-12 0 -19.5 10t-7.5 34t7.5 34.5t19.5 10.5q13 0 21.5 -10.5t8.5 -34.5t-8.5 -34t-21.5 -10z" />
    <glyph glyph-name="yacute" unicode="&#xfd;" horiz-adv-x="434" 
d="M34 -237v10q53 0 87.5 16.5t59.5 59.5t48 124l-164 493q-9 27 -15 39.5t-15 16.5t-27 4h-3v10h173v-10h-5q-34 0 -45 -5t-11 -18q0 -9 5.5 -26.5t12.5 -40.5l65 -208q16 -50 24.5 -77.5t14.5 -48t14 -49.5q7 28 18 70.5t23 85.5l63 229q6 25 9.5 41t3.5 24q0 11 -8 17
t-40 6h-22v10h135v-10h-5q-18 0 -27.5 -5.5t-16 -22.5t-16.5 -51l-131 -477q-22 -82 -48 -126.5t-62 -62.5t-87 -18h-8zM197 606v10q22 41 39.5 78.5t31.5 71.5h58v-10q-12 -18 -33.5 -44.5t-45.5 -55t-44 -50.5h-6z" />
    <glyph glyph-name="thorn" unicode="&#xfe;" horiz-adv-x="469" 
d="M15 -240v10h5q28 0 42.5 5t19 21.5t4.5 50.5v831q0 33 -4.5 48.5t-19 19.5t-42.5 4h-3v10h129v-191v-66.5t-1 -89.5h2q12 64 42.5 99t82.5 35q75 0 114 -63.5t39 -206.5q0 -149 -40.5 -218t-110.5 -69q-54 0 -84.5 33.5t-43.5 103.5h-1q1 -15 1 -41v-54.5v-52.5v-132
q0 -34 4.5 -50.5t18 -21.5t41.5 -5h12v-10h-207zM262 3q56 0 79.5 69t23.5 204q0 137 -25.5 197t-80.5 60q-56 0 -84.5 -66.5t-28.5 -193.5t25.5 -198.5t90.5 -71.5z" />
    <glyph glyph-name="ydieresis" unicode="&#xff;" horiz-adv-x="434" 
d="M34 -237v10q53 0 87.5 16.5t59.5 59.5t48 124l-164 493q-9 27 -15 39.5t-15 16.5t-27 4h-3v10h173v-10h-5q-34 0 -45 -5t-11 -18q0 -9 5.5 -26.5t12.5 -40.5l65 -208q16 -50 24.5 -77.5t14.5 -48t14 -49.5q7 28 18 70.5t23 85.5l63 229q6 25 9.5 41t3.5 24q0 11 -8 17
t-40 6h-22v10h135v-10h-5q-18 0 -27.5 -5.5t-16 -22.5t-16.5 -51l-131 -477q-22 -82 -48 -126.5t-62 -62.5t-87 -18h-8zM298 652q-14 0 -21.5 10t-7.5 34q0 45 29 45t29 -45q0 -24 -7.5 -34t-21.5 -10zM153 652q-12 0 -19.5 10t-7.5 34t7.5 34.5t19.5 10.5q13 0 21.5 -10.5
t8.5 -34.5t-8.5 -34t-21.5 -10z" />
    <glyph glyph-name="Amacron" unicode="&#x100;" horiz-adv-x="536" 
d="M0 0v10h27q26 0 37.5 15t24.5 66l163 623h42l183 -662q7 -26 17 -34t35 -8h7v-10h-192v10h25q30 0 39 7t9 20q0 11 -5 28t-10 35l-41 160h-217l-37 -142q-6 -22 -11.5 -45t-5.5 -35q0 -15 10 -21.5t38 -6.5h37v-10h-175zM147 270h211l-63 241q-19 72 -28 107.5t-15 61.5
q-5 -22 -9 -39t-8.5 -36t-12.5 -48zM152 804v20h225v-20h-225z" />
    <glyph glyph-name="amacron" unicode="&#x101;" horiz-adv-x="429" 
d="M157 -10q-52 0 -84.5 37.5t-32.5 113.5q0 77 44 114t134 42l64 3v85q0 84 -18.5 116.5t-60.5 32.5t-61.5 -31.5t-19.5 -111.5q-23 0 -36.5 12.5t-13.5 38.5q0 44 37 73t99 29q66 0 100 -40t34 -135v-279q0 -52 10 -66t39 -14h2v-10h-109v103h-2q-16 -55 -48.5 -84
t-76.5 -29zM174 9q32 0 56.5 23t38 62.5t13.5 89.5v106l-53 -3q-72 -4 -100 -41t-28 -106q0 -131 73 -131zM97 639v20h225v-20h-225z" />
    <glyph glyph-name="Abreve" unicode="&#x102;" horiz-adv-x="536" 
d="M0 0v10h27q26 0 37.5 15t24.5 66l163 623h42l183 -662q7 -26 17 -34t35 -8h7v-10h-192v10h25q30 0 39 7t9 20q0 11 -5 28t-10 35l-41 160h-217l-37 -142q-6 -22 -11.5 -45t-5.5 -35q0 -15 10 -21.5t38 -6.5h37v-10h-175zM147 270h211l-63 241q-19 72 -28 107.5t-15 61.5
q-5 -22 -9 -39t-8.5 -36t-12.5 -48zM264 771q-53 0 -78 34t-27 90h11q5 -45 26 -63.5t68 -18.5q46 0 67 18t26 64h10q-1 -55 -25.5 -89.5t-77.5 -34.5z" />
    <glyph glyph-name="abreve" unicode="&#x103;" horiz-adv-x="429" 
d="M157 -10q-52 0 -84.5 37.5t-32.5 113.5q0 77 44 114t134 42l64 3v85q0 84 -18.5 116.5t-60.5 32.5t-61.5 -31.5t-19.5 -111.5q-23 0 -36.5 12.5t-13.5 38.5q0 44 37 73t99 29q66 0 100 -40t34 -135v-279q0 -52 10 -66t39 -14h2v-10h-109v103h-2q-16 -55 -48.5 -84
t-76.5 -29zM174 9q32 0 56.5 23t38 62.5t13.5 89.5v106l-53 -3q-72 -4 -100 -41t-28 -106q0 -131 73 -131zM212 606q-53 0 -78 34t-27 90h11q5 -45 26 -63.5t68 -18.5q46 0 67 18t26 64h10q-1 -55 -25.5 -89.5t-77.5 -34.5z" />
    <glyph glyph-name="Aogonek" unicode="&#x104;" horiz-adv-x="536" 
d="M0 0v10h27q26 0 37.5 15t24.5 66l163 623h42l183 -662q7 -26 17 -34t35 -8h7v-10h-192v10h25q30 0 39 7t9 20q0 11 -5 28t-10 35l-41 160h-217l-37 -142q-6 -22 -11.5 -45t-5.5 -35q0 -15 10 -21.5t38 -6.5h37v-10h-175zM147 270h211l-63 241q-19 72 -28 107.5t-15 61.5
q-5 -22 -9 -39t-8.5 -36t-12.5 -48zM465 -231q-41 0 -67 25.5t-26 75.5q0 53 28 84.5t66 45.5h22q-30 -12 -52.5 -42t-22.5 -86q0 -46 16.5 -68.5t44.5 -22.5q10 0 21 2.5t25 10.5v-11q-25 -14 -55 -14z" />
    <glyph glyph-name="aogonek" unicode="&#x105;" horiz-adv-x="429" 
d="M157 -10q-52 0 -84.5 37.5t-32.5 113.5q0 77 44 114t134 42l64 3v85q0 84 -18.5 116.5t-60.5 32.5t-61.5 -31.5t-19.5 -111.5q-23 0 -36.5 12.5t-13.5 38.5q0 44 37 73t99 29q66 0 100 -40t34 -135v-279q0 -52 10 -66t39 -14h2v-10h-109v103h-2q-16 -55 -48.5 -84
t-76.5 -29zM174 9q32 0 56.5 23t38 62.5t13.5 89.5v106l-53 -3q-72 -4 -100 -41t-28 -106q0 -131 73 -131zM329 -231q-41 0 -67 25.5t-26 75.5q0 53 28 84.5t66 45.5h22q-30 -12 -52.5 -42t-22.5 -86q0 -46 16.5 -68.5t44.5 -22.5q10 0 21 2.5t25 10.5v-11q-25 -14 -55 -14z
" />
    <glyph glyph-name="Cacute" unicode="&#x106;" horiz-adv-x="466" 
d="M276 -10q-76 0 -127.5 46t-78 129t-26.5 194t26.5 193t79.5 127t131 45q74 0 115.5 -34t41.5 -80q0 -26 -13.5 -41t-36.5 -15q0 80 -24 120t-83 40q-94 0 -134 -94t-40 -261q0 -169 42.5 -263.5t136.5 -94.5q57 0 87.5 34.5t40.5 92.5q13 -4 17.5 -13.5t4.5 -17.5
q0 -23 -18 -47.5t-54 -42t-88 -17.5zM249 771v10q22 41 39.5 78.5t31.5 71.5h58v-10q-12 -18 -33.5 -44.5t-45.5 -55t-44 -50.5h-6z" />
    <glyph glyph-name="cacute" unicode="&#x107;" horiz-adv-x="374" 
d="M212 -10q-48 0 -86 25.5t-59.5 86.5t-21.5 167t21.5 166t59.5 84.5t87 24.5q67 0 98.5 -32t31.5 -70q0 -49 -53 -49q0 71 -16 106t-60 35q-34 0 -58.5 -22.5t-37.5 -80t-13 -162.5q0 -99 13 -158t39.5 -84.5t64.5 -25.5q46 0 71 31.5t32 87.5q20 -7 20 -31
q0 -21 -13.5 -44t-42.5 -39t-77 -16zM180 606v10q22 41 39.5 78.5t31.5 71.5h58v-10q-12 -18 -33.5 -44.5t-45.5 -55t-44 -50.5h-6z" />
    <glyph glyph-name="Ccircumflex" unicode="&#x108;" horiz-adv-x="466" 
d="M276 -10q-76 0 -127.5 46t-78 129t-26.5 194t26.5 193t79.5 127t131 45q74 0 115.5 -34t41.5 -80q0 -26 -13.5 -41t-36.5 -15q0 80 -24 120t-83 40q-94 0 -134 -94t-40 -261q0 -169 42.5 -263.5t136.5 -94.5q57 0 87.5 34.5t40.5 92.5q13 -4 17.5 -13.5t4.5 -17.5
q0 -23 -18 -47.5t-54 -42t-88 -17.5zM167 771v10q12 19 27.5 45.5t30 54.5t26.5 50h48q10 -22 24.5 -50t30 -54.5t28.5 -45.5v-10h-5q-27 32 -53.5 63.5t-48.5 63.5q-24 -32 -50.5 -63.5t-53.5 -63.5h-4z" />
    <glyph glyph-name="ccircumflex" unicode="&#x109;" horiz-adv-x="374" 
d="M212 -10q-48 0 -86 25.5t-59.5 86.5t-21.5 167t21.5 166t59.5 84.5t87 24.5q67 0 98.5 -32t31.5 -70q0 -49 -53 -49q0 71 -16 106t-60 35q-34 0 -58.5 -22.5t-37.5 -80t-13 -162.5q0 -99 13 -158t39.5 -84.5t64.5 -25.5q46 0 71 31.5t32 87.5q20 -7 20 -31
q0 -21 -13.5 -44t-42.5 -39t-77 -16zM101 606v10q12 19 27.5 45.5t30 54.5t26.5 50h48q10 -22 24.5 -50t30 -54.5t28.5 -45.5v-10h-5q-27 32 -53.5 63.5t-48.5 63.5q-24 -32 -50.5 -63.5t-53.5 -63.5h-4z" />
    <glyph glyph-name="Cdot" unicode="&#x10a;" horiz-adv-x="466" 
d="M276 -10q-76 0 -127.5 46t-78 129t-26.5 194t26.5 193t79.5 127t131 45q74 0 115.5 -34t41.5 -80q0 -26 -13.5 -41t-36.5 -15q0 80 -24 120t-83 40q-94 0 -134 -94t-40 -261q0 -169 42.5 -263.5t136.5 -94.5q57 0 87.5 34.5t40.5 92.5q13 -4 17.5 -13.5t4.5 -17.5
q0 -23 -18 -47.5t-54 -42t-88 -17.5zM276 815q-34 0 -34 48t34 48q35 0 35 -48t-35 -48z" />
    <glyph glyph-name="cdot" unicode="&#x10b;" horiz-adv-x="374" 
d="M212 -10q-48 0 -86 25.5t-59.5 86.5t-21.5 167t21.5 166t59.5 84.5t87 24.5q67 0 98.5 -32t31.5 -70q0 -49 -53 -49q0 71 -16 106t-60 35q-34 0 -58.5 -22.5t-37.5 -80t-13 -162.5q0 -99 13 -158t39.5 -84.5t64.5 -25.5q46 0 71 31.5t32 87.5q20 -7 20 -31
q0 -21 -13.5 -44t-42.5 -39t-77 -16zM213 650q-34 0 -34 48t34 48q35 0 35 -48t-35 -48z" />
    <glyph glyph-name="Ccaron" unicode="&#x10c;" horiz-adv-x="466" 
d="M276 -10q-76 0 -127.5 46t-78 129t-26.5 194t26.5 193t79.5 127t131 45q74 0 115.5 -34t41.5 -80q0 -26 -13.5 -41t-36.5 -15q0 80 -24 120t-83 40q-94 0 -134 -94t-40 -261q0 -169 42.5 -263.5t136.5 -94.5q57 0 87.5 34.5t40.5 92.5q13 -4 17.5 -13.5t4.5 -17.5
q0 -23 -18 -47.5t-54 -42t-88 -17.5zM252 771q-12 22 -26.5 50t-30 54.5t-27.5 45.5v10h4q27 -32 53.5 -63.5t50.5 -63.5q22 32 48.5 63.5t53.5 63.5h5v-10q-13 -19 -28.5 -45.5t-30 -54.5t-24.5 -50h-48z" />
    <glyph glyph-name="ccaron" unicode="&#x10d;" horiz-adv-x="374" 
d="M212 -10q-48 0 -86 25.5t-59.5 86.5t-21.5 167t21.5 166t59.5 84.5t87 24.5q67 0 98.5 -32t31.5 -70q0 -49 -53 -49q0 71 -16 106t-60 35q-34 0 -58.5 -22.5t-37.5 -80t-13 -162.5q0 -99 13 -158t39.5 -84.5t64.5 -25.5q46 0 71 31.5t32 87.5q20 -7 20 -31
q0 -21 -13.5 -44t-42.5 -39t-77 -16zM192 606q-12 22 -26.5 50t-30 54.5t-27.5 45.5v10h4q27 -32 53.5 -63.5t50.5 -63.5q22 32 48.5 63.5t53.5 63.5h5v-10q-13 -19 -28.5 -45.5t-30 -54.5t-24.5 -50h-48z" />
    <glyph glyph-name="Dcaron" unicode="&#x10e;" horiz-adv-x="555" 
d="M32 0v10h19q23 0 35 5.5t16 23t4 53.5v534q0 34 -4 50.5t-16 22t-35 5.5h-19v10h220q126 0 192.5 -95.5t66.5 -268.5q0 -164 -63.5 -257t-196.5 -93h-219zM167 10h80q102 0 151 81t49 260q0 173 -49 263t-150 90h-81v-694zM225 771q-12 22 -26.5 50t-30 54.5t-27.5 45.5
v10h4q27 -32 53.5 -63.5t50.5 -63.5q22 32 48.5 63.5t53.5 63.5h5v-10q-13 -19 -28.5 -45.5t-30 -54.5t-24.5 -50h-48z" />
    <glyph glyph-name="dcaron" unicode="&#x10f;" horiz-adv-x="468" 
d="M199 -10q-48 0 -82.5 27t-53 87.5t-18.5 162.5q0 103 19.5 163.5t54.5 87.5t82 27q51 0 80.5 -30t41.5 -93h2q-1 46 -1.5 75.5t-0.5 56.5v117q0 37 -5 53.5t-18.5 21t-39.5 4.5h-6v10h129v-681q0 -45 12 -57t50 -12h9v-10h-131v114h-2q-13 -63 -42.5 -93.5t-79.5 -30.5z
M212 3q112 0 112 262q0 132 -23.5 199t-84.5 67q-35 0 -60 -25t-38 -83t-13 -158q0 -97 12 -154t36 -82.5t59 -25.5zM443 600v12q10 49 16 86t9 62h44v-10q-12 -38 -29.5 -77t-34.5 -73h-5z" />
    <glyph glyph-name="Dcroat" unicode="&#x110;" horiz-adv-x="555" 
d="M32 0v10h19q23 0 35 5.5t16 23t4 53.5v277h-76v10h76v247q0 34 -4 50.5t-16 22t-35 5.5h-19v10h220q126 0 192.5 -95.5t66.5 -268.5q0 -164 -63.5 -257t-196.5 -93h-219zM167 10h80q102 0 151 81t49 260q0 173 -49 263t-150 90h-81v-325h146v-10h-146v-359z" />
    <glyph glyph-name="dcroat" unicode="&#x111;" horiz-adv-x="468" 
d="M199 -10q-48 0 -82.5 26.5t-53 87t-18.5 160.5t19.5 160t54.5 86.5t82 26.5q51 0 80.5 -30t41.5 -93h2q-1 46 -1.5 78.5t-0.5 53.5v72h-136v10h136v43q0 37 -5 53.5t-18.5 21t-39.5 4.5h-6v10h129v-132h70v-10h-70v-539q0 -45 12 -57t50 -12h9v-10h-131v114h-2
q-13 -63 -42.5 -93.5t-79.5 -30.5zM212 3q112 0 112 259q0 128 -23.5 194.5t-84.5 66.5q-35 0 -60 -24.5t-38 -81.5t-13 -155q0 -142 27.5 -200.5t79.5 -58.5z" />
    <glyph glyph-name="Emacron" unicode="&#x112;" horiz-adv-x="476" 
d="M32 0v10h19q22 0 34 5.5t16.5 22.5t4.5 53v530q0 37 -4.5 54.5t-16 23t-34.5 5.5h-19v10h379l5 -169h-10l-2 58q-2 43 -10 64.5t-28 29t-59 7.5h-141v-325h196v-10h-196l-1 -359h170q37 0 56.5 6.5t27 25t9.5 54.5l4 73h10l-5 -169h-405zM133 804v20h225v-20h-225z" />
    <glyph glyph-name="emacron" unicode="&#x113;" horiz-adv-x="407" 
d="M220 -10q-84 0 -129.5 71.5t-45.5 201.5q0 141 43.5 211t122.5 70q76 0 116 -66.5t40 -182.5v-16h-263q0 -149 33 -213.5t93 -64.5q86 0 103 111q19 -5 19 -26q0 -19 -14.5 -41.5t-44 -38.5t-73.5 -16zM104 289h204q-1 123 -22.5 184t-74.5 61t-79 -60t-28 -185zM96 639
v20h225v-20h-225z" />
    <glyph glyph-name="Ebreve" unicode="&#x114;" horiz-adv-x="476" 
d="M32 0v10h19q22 0 34 5.5t16.5 22.5t4.5 53v530q0 37 -4.5 54.5t-16 23t-34.5 5.5h-19v10h379l5 -169h-10l-2 58q-2 43 -10 64.5t-28 29t-59 7.5h-141v-325h196v-10h-196l-1 -359h170q37 0 56.5 6.5t27 25t9.5 54.5l4 73h10l-5 -169h-405zM237 771q-53 0 -78 34t-27 90h11
q5 -45 26 -63.5t68 -18.5q46 0 67 18t26 64h10q-1 -55 -25.5 -89.5t-77.5 -34.5z" />
    <glyph glyph-name="ebreve" unicode="&#x115;" horiz-adv-x="407" 
d="M220 -10q-84 0 -129.5 71.5t-45.5 201.5q0 141 43.5 211t122.5 70q76 0 116 -66.5t40 -182.5v-16h-263q0 -149 33 -213.5t93 -64.5q86 0 103 111q19 -5 19 -26q0 -19 -14.5 -41.5t-44 -38.5t-73.5 -16zM104 289h204q-1 123 -22.5 184t-74.5 61t-79 -60t-28 -185zM212 606
q-53 0 -78 34t-27 90h11q5 -45 26 -63.5t68 -18.5q46 0 67 18t26 64h10q-1 -55 -25.5 -89.5t-77.5 -34.5z" />
    <glyph glyph-name="Edotaccent" unicode="&#x116;" horiz-adv-x="476" 
d="M32 0v10h19q22 0 34 5.5t16.5 22.5t4.5 53v530q0 37 -4.5 54.5t-16 23t-34.5 5.5h-19v10h379l5 -169h-10l-2 58q-2 43 -10 64.5t-28 29t-59 7.5h-141v-325h196v-10h-196l-1 -359h170q37 0 56.5 6.5t27 25t9.5 54.5l4 73h10l-5 -169h-405zM248 801q-34 0 -34 48t34 48
q35 0 35 -48t-35 -48z" />
    <glyph glyph-name="edotaccent" unicode="&#x117;" horiz-adv-x="407" 
d="M220 -10q-84 0 -129.5 71.5t-45.5 201.5q0 141 43.5 211t122.5 70q76 0 116 -66.5t40 -182.5v-16h-263q0 -149 33 -213.5t93 -64.5q86 0 103 111q19 -5 19 -26q0 -19 -14.5 -41.5t-44 -38.5t-73.5 -16zM104 289h204q-1 123 -22.5 184t-74.5 61t-79 -60t-28 -185zM208 650
q-34 0 -34 48t34 48q35 0 35 -48t-35 -48z" />
    <glyph glyph-name="Eogonek" unicode="&#x118;" horiz-adv-x="476" 
d="M32 0v10h19q22 0 34 5.5t16.5 22.5t4.5 53v530q0 37 -4.5 54.5t-16 23t-34.5 5.5h-19v10h379l5 -169h-10l-2 58q-2 43 -10 64.5t-28 29t-59 7.5h-141v-325h196v-10h-196l-1 -359h170q37 0 56.5 6.5t27 25t9.5 54.5l4 73h10l-5 -169h-405zM381 -231q-42 0 -67.5 25
t-25.5 76q0 53 27.5 84.5t66.5 45.5h21q-31 -13 -52.5 -42.5t-21.5 -85.5q0 -91 60 -91q10 0 21.5 2.5t24.5 10.5v-11q-25 -14 -54 -14z" />
    <glyph glyph-name="eogonek" unicode="&#x119;" horiz-adv-x="407" 
d="M265 -231q-41 0 -67.5 25.5t-26.5 75.5q0 46 24.5 76t55.5 47q-15 -3 -31 -3q-84 0 -129.5 71.5t-45.5 201.5q0 141 43.5 211t122.5 70q76 0 116 -66.5t40 -182.5v-16h-263q0 -149 33 -213.5t93 -64.5q86 0 103 111q19 -5 19 -26q0 -20 -16.5 -45t-50.5 -39
q-30 -14 -51 -44t-21 -86q0 -91 60 -91q10 0 21.5 2.5t25.5 10.5v-11q-26 -14 -55 -14zM104 289h204q-1 123 -22.5 184t-74.5 61t-79 -60t-28 -185z" />
    <glyph glyph-name="Ecaron" unicode="&#x11a;" horiz-adv-x="476" 
d="M32 0v10h19q22 0 34 5.5t16.5 22.5t4.5 53v530q0 37 -4.5 54.5t-16 23t-34.5 5.5h-19v10h379l5 -169h-10l-2 58q-2 43 -10 64.5t-28 29t-59 7.5h-141v-325h196v-10h-196l-1 -359h170q37 0 56.5 6.5t27 25t9.5 54.5l4 73h10l-5 -169h-405zM215 771q-12 22 -26.5 50
t-30 54.5t-27.5 45.5v10h4q27 -32 53.5 -63.5t50.5 -63.5q22 32 48.5 63.5t53.5 63.5h5v-10q-13 -19 -28.5 -45.5t-30 -54.5t-24.5 -50h-48z" />
    <glyph glyph-name="ecaron" unicode="&#x11b;" horiz-adv-x="407" 
d="M220 -10q-84 0 -129.5 71.5t-45.5 201.5q0 141 43.5 211t122.5 70q76 0 116 -66.5t40 -182.5v-16h-263q0 -149 33 -213.5t93 -64.5q86 0 103 111q19 -5 19 -26q0 -19 -14.5 -41.5t-44 -38.5t-73.5 -16zM104 289h204q-1 123 -22.5 184t-74.5 61t-79 -60t-28 -185zM187 606
q-12 22 -26.5 50t-30 54.5t-27.5 45.5v10h4q27 -32 53.5 -63.5t50.5 -63.5q22 32 48.5 63.5t53.5 63.5h5v-10q-13 -19 -28.5 -45.5t-30 -54.5t-24.5 -50h-48z" />
    <glyph glyph-name="Gcircumflex" unicode="&#x11c;" horiz-adv-x="541" 
d="M307 -10q-135 0 -199 96.5t-64 271.5q0 182 70.5 274t192.5 92q59 0 96.5 -17.5t54.5 -44t17 -54.5q0 -26 -13.5 -40t-36.5 -14q0 79 -24 119.5t-92 40.5q-100 0 -151 -86t-51 -270t46 -271t156 -87q31 0 58 5t44 16v220q0 33 -4.5 49t-17.5 21t-38 5h-12v10h188v-10h-5
q-22 0 -32.5 -5.5t-14.5 -22t-4 -49.5v-208q-37 -21 -76 -31t-88 -10zM194 771v10q12 19 27.5 45.5t30 54.5t26.5 50h48q10 -22 24.5 -50t30 -54.5t28.5 -45.5v-10h-5q-27 32 -53.5 63.5t-48.5 63.5q-24 -32 -50.5 -63.5t-53.5 -63.5h-4z" />
    <glyph glyph-name="gcircumflex" unicode="&#x11d;" horiz-adv-x="412" 
d="M188 -240q-80 0 -122.5 36t-42.5 104q0 105 115 135q-34 9 -48.5 31t-14.5 48q0 24 13.5 46.5t44.5 46.5q-36 17 -57.5 57t-21.5 95q0 96 37 140.5t107 44.5q58 0 94 -41q9 20 25.5 40t42.5 20q20 0 30.5 -14.5t10.5 -32.5q0 -19 -9 -30t-24 -11q0 55 -31 55
q-23 0 -38 -34q17 -22 26 -53t9 -79q0 -80 -34 -125t-104 -45q-13 0 -27.5 2t-27.5 7q-17 -17 -23.5 -31.5t-6.5 -30.5q0 -29 18.5 -45t48.5 -16h67q71 0 102 -39t31 -102q0 -82 -48.5 -130.5t-141.5 -48.5zM195 204q43 0 63.5 36.5t20.5 124.5q0 66 -9.5 102.5t-28.5 51.5
t-48 15q-40 0 -62 -37t-22 -133q0 -86 21 -123t65 -37zM194 -230q73 0 105.5 41t32.5 112q0 50 -21.5 78.5t-80.5 28.5h-62q-43 0 -70.5 -35.5t-27.5 -93.5q0 -65 33 -98t91 -33zM95 606v10q12 19 27.5 45.5t30 54.5t26.5 50h48q10 -22 24.5 -50t30 -54.5t28.5 -45.5v-10h-5
q-27 32 -53.5 63.5t-48.5 63.5q-24 -32 -50.5 -63.5t-53.5 -63.5h-4z" />
    <glyph glyph-name="Gbreve" unicode="&#x11e;" horiz-adv-x="541" 
d="M307 -10q-135 0 -199 96.5t-64 271.5q0 182 70.5 274t192.5 92q59 0 96.5 -17.5t54.5 -44t17 -54.5q0 -26 -13.5 -40t-36.5 -14q0 79 -24 119.5t-92 40.5q-100 0 -151 -86t-51 -270t46 -271t156 -87q31 0 58 5t44 16v220q0 33 -4.5 49t-17.5 21t-38 5h-12v10h188v-10h-5
q-22 0 -32.5 -5.5t-14.5 -22t-4 -49.5v-208q-37 -21 -76 -31t-88 -10zM304 771q-53 0 -78 34t-27 90h11q5 -45 26 -63.5t68 -18.5q46 0 67 18t26 64h10q-1 -55 -25.5 -89.5t-77.5 -34.5z" />
    <glyph glyph-name="gbreve" unicode="&#x11f;" horiz-adv-x="412" 
d="M188 -240q-80 0 -122.5 36t-42.5 104q0 105 115 135q-34 9 -48.5 31t-14.5 48q0 24 13.5 46.5t44.5 46.5q-36 17 -57.5 57t-21.5 95q0 96 37 140.5t107 44.5q58 0 94 -41q9 20 25.5 40t42.5 20q20 0 30.5 -14.5t10.5 -32.5q0 -19 -9 -30t-24 -11q0 55 -31 55
q-23 0 -38 -34q17 -22 26 -53t9 -79q0 -80 -34 -125t-104 -45q-13 0 -27.5 2t-27.5 7q-17 -17 -23.5 -31.5t-6.5 -30.5q0 -29 18.5 -45t48.5 -16h67q71 0 102 -39t31 -102q0 -82 -48.5 -130.5t-141.5 -48.5zM195 204q43 0 63.5 36.5t20.5 124.5q0 66 -9.5 102.5t-28.5 51.5
t-48 15q-40 0 -62 -37t-22 -133q0 -86 21 -123t65 -37zM194 -230q73 0 105.5 41t32.5 112q0 50 -21.5 78.5t-80.5 28.5h-62q-43 0 -70.5 -35.5t-27.5 -93.5q0 -65 33 -98t91 -33zM200 606q-53 0 -78 34t-27 90h11q5 -45 26 -63.5t68 -18.5q46 0 67 18t26 64h10
q-1 -55 -25.5 -89.5t-77.5 -34.5z" />
    <glyph glyph-name="Gdot" unicode="&#x120;" horiz-adv-x="541" 
d="M307 -10q-135 0 -199 96.5t-64 271.5q0 182 70.5 274t192.5 92q59 0 96.5 -17.5t54.5 -44t17 -54.5q0 -26 -13.5 -40t-36.5 -14q0 79 -24 119.5t-92 40.5q-100 0 -151 -86t-51 -270t46 -271t156 -87q31 0 58 5t44 16v220q0 33 -4.5 49t-17.5 21t-38 5h-12v10h188v-10h-5
q-22 0 -32.5 -5.5t-14.5 -22t-4 -49.5v-208q-37 -21 -76 -31t-88 -10zM312 815q-34 0 -34 48t34 48q35 0 35 -48t-35 -48z" />
    <glyph glyph-name="gdot" unicode="&#x121;" horiz-adv-x="412" 
d="M188 -240q-80 0 -122.5 36t-42.5 104q0 105 115 135q-34 9 -48.5 31t-14.5 48q0 24 13.5 46.5t44.5 46.5q-36 17 -57.5 57t-21.5 95q0 96 37 140.5t107 44.5q58 0 94 -41q9 20 25.5 40t42.5 20q20 0 30.5 -14.5t10.5 -32.5q0 -19 -9 -30t-24 -11q0 55 -31 55
q-23 0 -38 -34q17 -22 26 -53t9 -79q0 -80 -34 -125t-104 -45q-13 0 -27.5 2t-27.5 7q-17 -17 -23.5 -31.5t-6.5 -30.5q0 -29 18.5 -45t48.5 -16h67q71 0 102 -39t31 -102q0 -82 -48.5 -130.5t-141.5 -48.5zM195 204q43 0 63.5 36.5t20.5 124.5q0 66 -9.5 102.5t-28.5 51.5
t-48 15q-40 0 -62 -37t-22 -133q0 -86 21 -123t65 -37zM194 -230q73 0 105.5 41t32.5 112q0 50 -21.5 78.5t-80.5 28.5h-62q-43 0 -70.5 -35.5t-27.5 -93.5q0 -65 33 -98t91 -33zM199 650q-34 0 -34 48t34 48q35 0 35 -48t-35 -48z" />
    <glyph glyph-name="uni0122" unicode="&#x122;" horiz-adv-x="541" 
d="M307 -10q-135 0 -199 96.5t-64 271.5q0 182 70.5 274t192.5 92q59 0 96.5 -17.5t54.5 -44t17 -54.5q0 -26 -13.5 -40t-36.5 -14q0 79 -24 119.5t-92 40.5q-100 0 -151 -86t-51 -270t46 -271t156 -87q31 0 58 5t44 16v220q0 33 -4.5 49t-17.5 21t-38 5h-12v10h188v-10h-5
q-22 0 -32.5 -5.5t-14.5 -22t-4 -49.5v-208q-37 -21 -76 -31t-88 -10zM262 -221v9q10 38 16.5 74.5t9.5 76.5h47v-9q-14 -44 -32.5 -83t-34.5 -68h-6z" />
    <glyph glyph-name="uni0123" unicode="&#x123;" horiz-adv-x="412" 
d="M188 -240q-80 0 -122.5 36t-42.5 104q0 105 115 135q-34 9 -48.5 31t-14.5 48q0 24 13.5 46.5t44.5 46.5q-36 17 -57.5 57t-21.5 95q0 96 37 140.5t107 44.5q58 0 94 -41q9 20 25.5 40t42.5 20q20 0 30.5 -14.5t10.5 -32.5q0 -19 -9 -30t-24 -11q0 55 -31 55
q-23 0 -38 -34q17 -22 26 -53t9 -79q0 -80 -34 -125t-104 -45q-13 0 -27.5 2t-27.5 7q-17 -17 -23.5 -31.5t-6.5 -30.5q0 -29 18.5 -45t48.5 -16h67q71 0 102 -39t31 -102q0 -82 -48.5 -130.5t-141.5 -48.5zM195 204q43 0 63.5 36.5t20.5 124.5q0 66 -9.5 102.5t-28.5 51.5
t-48 15q-40 0 -62 -37t-22 -133q0 -86 21 -123t65 -37zM194 -230q73 0 105.5 41t32.5 112q0 50 -21.5 78.5t-80.5 28.5h-62q-43 0 -70.5 -35.5t-27.5 -93.5q0 -65 33 -98t91 -33zM182 606v10q11 33 27.5 72.5t32.5 77.5h7v-12q-7 -35 -12 -72t-8 -76h-47z" />
    <glyph glyph-name="Hcircumflex" unicode="&#x124;" horiz-adv-x="610" 
d="M33 0v10h23q22 0 32.5 6t14 23t3.5 51v533q0 35 -3.5 52t-15 23t-33.5 6h-21v10h211v-10h-27q-22 0 -32.5 -6t-14 -23t-3.5 -51v-245h275v245q0 34 -3.5 51t-14 23t-32.5 6h-26v10h213v-10h-25q-22 0 -32.5 -6t-14 -23t-3.5 -51v-534q0 -34 3.5 -51t14 -23t32.5 -6h25
v-10h-213v10h26q22 0 32.5 6t14 23t3.5 52v278h-275v-279q0 -34 3.5 -51t14 -23t32.5 -6h27v-10h-211zM208 771v10q12 19 27.5 45.5t30 54.5t26.5 50h48q10 -22 24.5 -50t30 -54.5t28.5 -45.5v-10h-5q-27 32 -53.5 63.5t-48.5 63.5q-24 -32 -50.5 -63.5t-53.5 -63.5h-4z" />
    <glyph glyph-name="hcircumflex" unicode="&#x125;" horiz-adv-x="485" 
d="M14 0v10h7q29 0 42.5 5t18 20.5t4.5 48.5v593q0 47 -10.5 60t-46.5 13h-15v10h132v-254v-21.5t-2 -43.5h2q11 47 43 75t81 28q61 0 94.5 -45t33.5 -137v-279q0 -31 4 -46.5t16 -21t38 -5.5h7v-10h-124v367q0 80 -20 118.5t-70 38.5t-77 -45t-27 -142v-254
q0 -33 4.5 -48.5t17.5 -20t41 -4.5h5v-10h-199zM110 798v10q12 19 27.5 45.5t30 54.5t26.5 50h48q10 -22 24.5 -50t30 -54.5t28.5 -45.5v-10h-5q-27 32 -53.5 63.5t-48.5 63.5q-24 -32 -50.5 -63.5t-53.5 -63.5h-4z" />
    <glyph glyph-name="Hbar" unicode="&#x126;" horiz-adv-x="610" 
d="M33 0v10h23q22 0 32.5 6t14 23t3.5 51v431h-71v10h71v92q0 35 -3.5 52t-15 23t-33.5 6h-21v10h211v-10h-27q-22 0 -32.5 -6t-14 -23t-3.5 -51v-93h275v93q0 34 -3.5 51t-14 23t-32.5 6h-26v10h213v-10h-25q-22 0 -32.5 -6t-14 -23t-3.5 -51v-93h72v-10h-72v-431
q0 -34 3.5 -51t14 -23t32.5 -6h25v-10h-213v10h26q22 0 32.5 6t14 23t3.5 52v278h-275v-279q0 -34 3.5 -51t14 -23t32.5 -6h27v-10h-211zM167 379h275v142h-275v-142z" />
    <glyph glyph-name="hbar" unicode="&#x127;" horiz-adv-x="485" 
d="M14 0v10h7q29 0 42.5 5t18 20.5t4.5 48.5v534h-72v10h72v49q0 47 -10.5 60t-46.5 13h-15v10h132v-132h136v-10h-136v-120q0 -16 -0.5 -32t-1.5 -33h2q11 47 43 74.5t81 27.5q61 0 94.5 -44.5t33.5 -136.5v-271q0 -31 4 -46.5t16 -21t38 -5.5h7v-10h-124v359
q0 79 -20 117.5t-70 38.5t-77 -44.5t-27 -141.5v-246q0 -33 4.5 -48.5t17.5 -20t41 -4.5h5v-10h-199z" />
    <glyph glyph-name="Itilde" unicode="&#x128;" horiz-adv-x="277" 
d="M32 0v10h26q32 0 41 14.5t9 65.5v533q0 52 -9 66.5t-41 14.5h-26v10h213v-10h-26q-22 0 -33 -6t-14.5 -23t-3.5 -52v-533q0 -51 9 -65.5t42 -14.5h26v-10h-213zM200 771q-22 0 -39 10.5t-32.5 24t-31.5 24t-36 10.5q-23 0 -32.5 -16.5t-13.5 -42.5h-10q4 24 11 47
t21 38.5t40 15.5q21 0 37.5 -10.5t31.5 -24t31 -24t37 -10.5q26 0 35.5 17t13.5 42h10q-3 -25 -10.5 -48t-22.5 -38t-40 -15z" />
    <glyph glyph-name="itilde" unicode="&#x129;" horiz-adv-x="241" 
d="M19 0v10h15q27 0 40.5 5t18 21t4.5 49v365q0 33 -4.5 49t-17 21.5t-37.5 5.5h-9v10h128v-451q0 -33 4.5 -49t18.5 -21t40 -5h12v-10h-213zM177 606q-22 0 -39 10.5t-32.5 24t-31.5 24t-36 10.5q-23 0 -32.5 -16.5t-13.5 -42.5h-10q4 24 11 47t21 38.5t40 15.5
q21 0 37.5 -10.5t31.5 -24t31 -24t37 -10.5q26 0 35.5 17t13.5 42h10q-3 -25 -10.5 -48t-22.5 -38t-40 -15z" />
    <glyph glyph-name="Imacron" unicode="&#x12a;" horiz-adv-x="277" 
d="M32 0v10h26q32 0 41 14.5t9 65.5v533q0 52 -9 66.5t-41 14.5h-26v10h213v-10h-26q-22 0 -33 -6t-14.5 -23t-3.5 -52v-533q0 -51 9 -65.5t42 -14.5h26v-10h-213zM25 804v20h225v-20h-225z" />
    <glyph glyph-name="imacron" unicode="&#x12b;" horiz-adv-x="241" 
d="M19 0v10h15q27 0 40.5 5t18 21t4.5 49v365q0 33 -4.5 49t-17 21.5t-37.5 5.5h-9v10h128v-451q0 -33 4.5 -49t18.5 -21t40 -5h12v-10h-213zM-3 639v20h225v-20h-225z" />
    <glyph glyph-name="Ibreve" unicode="&#x12c;" horiz-adv-x="277" 
d="M32 0v10h26q32 0 41 14.5t9 65.5v533q0 52 -9 66.5t-41 14.5h-26v10h213v-10h-26q-22 0 -33 -6t-14.5 -23t-3.5 -52v-533q0 -51 9 -65.5t42 -14.5h26v-10h-213zM139 771q-53 0 -78 34t-27 90h11q5 -45 26 -63.5t68 -18.5q46 0 67 18t26 64h10q-1 -55 -25.5 -89.5
t-77.5 -34.5z" />
    <glyph glyph-name="ibreve" unicode="&#x12d;" horiz-adv-x="241" 
d="M19 0v10h15q27 0 40.5 5t18 21t4.5 49v365q0 33 -4.5 49t-17 21.5t-37.5 5.5h-9v10h128v-451q0 -33 4.5 -49t18.5 -21t40 -5h12v-10h-213zM115 606q-53 0 -78 34t-27 90h11q5 -45 26 -63.5t68 -18.5q46 0 67 18t26 64h10q-1 -55 -25.5 -89.5t-77.5 -34.5z" />
    <glyph glyph-name="Iogonek" unicode="&#x12e;" horiz-adv-x="277" 
d="M32 0v10h26q32 0 41 14.5t9 65.5v533q0 52 -9 66.5t-41 14.5h-26v10h213v-10h-26q-22 0 -33 -6t-14.5 -23t-3.5 -52v-533q0 -51 9 -65.5t42 -14.5h26v-10h-213zM161 -231q-42 0 -67.5 25t-25.5 76q0 53 27.5 84.5t66.5 45.5h21q-31 -13 -52.5 -42.5t-21.5 -85.5
q0 -91 60 -91q10 0 21.5 2.5t24.5 10.5v-11q-25 -14 -54 -14z" />
    <glyph glyph-name="iogonek" unicode="&#x12f;" horiz-adv-x="241" 
d="M122 650q-15 0 -24.5 10.5t-9.5 37.5t9.5 37.5t24.5 10.5q14 0 24.5 -10.5t10.5 -37.5t-10.5 -37.5t-24.5 -10.5zM19 0v10h15q27 0 40.5 5t18 21t4.5 49v365q0 33 -4.5 49t-17 21.5t-37.5 5.5h-9v10h128v-451q0 -33 4.5 -49t18.5 -21t40 -5h12v-10h-213zM141 -231
q-42 0 -67.5 25t-25.5 76q0 53 27.5 84.5t66.5 45.5h21q-31 -13 -52.5 -42.5t-21.5 -85.5q0 -91 60 -91q10 0 21.5 2.5t24.5 10.5v-11q-25 -14 -54 -14z" />
    <glyph glyph-name="Idotaccent" unicode="&#x130;" horiz-adv-x="277" 
d="M32 0v10h26q32 0 41 14.5t9 65.5v533q0 52 -9 66.5t-41 14.5h-26v10h213v-10h-26q-22 0 -33 -6t-14.5 -23t-3.5 -52v-533q0 -51 9 -65.5t42 -14.5h26v-10h-213zM138 815q-34 0 -34 48t34 48q35 0 35 -48t-35 -48z" />
    <glyph glyph-name="dotlessi" unicode="&#x131;" horiz-adv-x="241" 
d="M19 0v10h15q27 0 40.5 5t18 21t4.5 49v365q0 33 -4.5 49t-17 21.5t-37.5 5.5h-9v10h128v-451q0 -33 4.5 -49t18.5 -21t40 -5h12v-10h-213z" />
    <glyph glyph-name="IJ" unicode="&#x132;" horiz-adv-x="562" 
d="M32 0v10h26q32 0 41 14.5t9 65.5v533q0 52 -9 66.5t-41 14.5h-26v10h213v-10h-26q-22 0 -33 -6t-14.5 -23t-3.5 -52v-533q0 -51 9 -65.5t42 -14.5h26v-10h-213zM282 -240v10h6q58 0 83 46t25 159v649q0 34 -3.5 51t-14 23t-32.5 6h-26v10h213v-10h-25q-23 0 -33.5 -6
t-14 -23t-3.5 -52v-635q0 -88 -21 -137.5t-58 -70t-84 -20.5h-12z" />
    <glyph glyph-name="ij" unicode="&#x133;" horiz-adv-x="477" 
d="M122 650q-15 0 -24.5 10.5t-9.5 37.5t9.5 37.5t24.5 10.5q14 0 24.5 -10.5t10.5 -37.5t-10.5 -37.5t-24.5 -10.5zM19 0v10h15q27 0 40.5 5t18 21t4.5 49v365q0 33 -4.5 49t-17 21.5t-37.5 5.5h-9v10h128v-451q0 -33 4.5 -49t18.5 -21t40 -5h12v-10h-213zM363 650
q-14 0 -24 10.5t-10 37.5t10 37.5t24 10.5t25 -10.5t11 -37.5t-11 -37.5t-25 -10.5zM245 -240v10h5q28 0 47.5 17t30 58.5t10.5 115.5v491q0 48 -11.5 61t-46.5 13h-9v10h127v-552q0 -91 -19 -139.5t-50.5 -66.5t-71.5 -18h-12z" />
    <glyph glyph-name="Jcircumflex" unicode="&#x134;" horiz-adv-x="280" 
d="M1 -240v10h6q58 0 83 46t25 159v649q0 34 -3.5 51t-14 23t-32.5 6h-26v10h213v-10h-25q-23 0 -33.5 -6t-14 -23t-3.5 -52v-635q0 -88 -21 -137.5t-58 -70t-84 -20.5h-12zM38 771v10q12 19 27.5 45.5t30 54.5t26.5 50h48q10 -22 24.5 -50t30 -54.5t28.5 -45.5v-10h-5
q-27 32 -53.5 63.5t-48.5 63.5q-24 -32 -50.5 -63.5t-53.5 -63.5h-4z" />
    <glyph glyph-name="jcircumflex" unicode="&#x135;" horiz-adv-x="237" 
d="M4 -240v10h5q28 0 47.5 17t30 58.5t10.5 115.5v491q0 48 -11.5 61t-46.5 13h-9v10h127v-552q0 -91 -19 -139.5t-50.5 -66.5t-71.5 -18h-12zM-7 606v10q12 19 27.5 45.5t30 54.5t26.5 50h48q10 -22 24.5 -50t30 -54.5t28.5 -45.5v-10h-5q-27 32 -53.5 63.5t-48.5 63.5
q-24 -32 -50.5 -63.5t-53.5 -63.5h-4z" />
    <glyph glyph-name="uni0136" unicode="&#x136;" horiz-adv-x="538" 
d="M32 0v10h22q32 0 42 14.5t10 65.5v535q0 50 -9.5 64.5t-41.5 14.5h-23v10h212v-10h-27q-31 0 -40.5 -14.5t-9.5 -64.5v-349l226 329q25 39 35.5 55t10.5 25q0 11 -13.5 15t-56.5 4v10h145v-10q-22 0 -35.5 -7.5t-29 -29t-45.5 -64.5l-123 -179l197 -344q26 -44 41 -57
t30 -13h2v-10h-23q-31 0 -51.5 7t-38.5 28t-41 63l-152 275l-78 -115v-165q0 -36 4 -53.5t15.5 -23.5t33.5 -6h24v-10h-212zM245 -221v9q10 38 16.5 74.5t9.5 76.5h47v-9q-14 -44 -32.5 -83t-34.5 -68h-6z" />
    <glyph glyph-name="uni0137" unicode="&#x137;" horiz-adv-x="442" 
d="M14 0v10h6q27 0 41.5 4.5t19.5 20t5 48.5v594q0 33 -5 48.5t-19.5 20t-41.5 4.5h-6v10h132v-397v-69.5t-2 -72.5l113 160q43 60 56.5 85.5t13.5 36.5q0 13 -14.5 18t-55.5 5v10h158v-10q-23 0 -40 -11t-39 -42l-95 -132l137 -278q16 -32 28 -42.5t32 -10.5h6v-10h-5
q-39 0 -62.5 6t-41 26.5t-39.5 65.5l-91 192l-59 -83v-124q0 -33 5.5 -48.5t19 -20t36.5 -4.5h4v-10h-197zM194 -221v9q10 38 16.5 74.5t9.5 76.5h47v-9q-14 -44 -32.5 -83t-34.5 -68h-6z" />
    <glyph glyph-name="kgreenlandic" unicode="&#x138;" horiz-adv-x="442" 
d="M14 0v10h6q27 0 41.5 4.5t19.5 20t5 48.5v370q0 33 -5 48.5t-19.5 20t-41.5 4.5h-6v10h132v-173v-65t-2 -70l109 153q43 60 58.5 85.5t15.5 36.5q0 13 -14.5 18t-55.5 5v10h158v-10q-26 0 -41.5 -8.5t-33.5 -33t-53 -72.5l-48 -67l118 -239q19 -38 30.5 -58.5t22 -29
t28.5 -8.5h6v-10h-5q-38 0 -61.5 6t-41.5 26.5t-40 65.5l-94 196l-56 -80v-131q0 -33 5.5 -48.5t19 -20t36.5 -4.5h4v-10h-197z" />
    <glyph glyph-name="Lacute" unicode="&#x139;" horiz-adv-x="475" 
d="M32 0v10h19q23 0 34.5 5.5t16 23.5t4.5 54v528q0 37 -4.5 54.5t-16 23t-34.5 5.5h-19v10h213v-10h-23q-22 0 -34 -5.5t-16.5 -23t-4.5 -52.5v-613h174q51 0 68 19t19 71l4 109h10l-5 -209h-405zM112 771v10q22 41 39.5 78.5t31.5 71.5h58v-10q-12 -18 -33.5 -44.5
t-45.5 -55t-44 -50.5h-6z" />
    <glyph glyph-name="lacute" unicode="&#x13a;" horiz-adv-x="230" 
d="M9 0v10h5q31 0 46 4.5t20 20t5 48.5v593q0 34 -5.5 50t-19.5 20t-38 4h-13v10h136v-677q0 -33 4.5 -48.5t19.5 -20t47 -4.5h5v-10h-212zM82 799v10q22 41 39.5 78.5t31.5 71.5h58v-10q-12 -18 -33.5 -44.5t-45.5 -55t-44 -50.5h-6z" />
    <glyph glyph-name="uni013B" unicode="&#x13b;" horiz-adv-x="475" 
d="M32 0v10h19q23 0 34.5 5.5t16 23.5t4.5 54v528q0 37 -4.5 54.5t-16 23t-34.5 5.5h-19v10h213v-10h-23q-22 0 -34 -5.5t-16.5 -23t-4.5 -52.5v-613h174q51 0 68 19t19 71l4 109h10l-5 -209h-405zM210 -221v9q10 38 16.5 74.5t9.5 76.5h47v-9q-14 -44 -32.5 -83t-34.5 -68
h-6z" />
    <glyph glyph-name="uni013C" unicode="&#x13c;" horiz-adv-x="230" 
d="M9 0v10h5q31 0 46 4.5t20 20t5 48.5v593q0 34 -5.5 50t-19.5 20t-38 4h-13v10h136v-677q0 -33 4.5 -48.5t19.5 -20t47 -4.5h5v-10h-212zM70 -221v9q10 38 16.5 74.5t9.5 76.5h47v-9q-14 -44 -32.5 -83t-34.5 -68h-6z" />
    <glyph glyph-name="Lcaron" unicode="&#x13d;" horiz-adv-x="475" 
d="M32 0v10h19q23 0 34.5 5.5t16 23.5t4.5 54v528q0 37 -4.5 54.5t-16 23t-34.5 5.5h-19v10h213v-10h-23q-22 0 -34 -5.5t-16.5 -23t-4.5 -52.5v-613h174q51 0 68 19t19 71l4 109h10l-5 -209h-405zM323 554v12q10 49 16 86t9 62h44v-10q-12 -38 -29.5 -77t-34.5 -73h-5z" />
    <glyph glyph-name="lcaron" unicode="&#x13e;" horiz-adv-x="230" 
d="M9 0v10h5q31 0 46 4.5t20 20t5 48.5v593q0 34 -5.5 50t-19.5 20t-38 4h-13v10h136v-677q0 -33 4.5 -48.5t19.5 -20t47 -4.5h5v-10h-212zM205 600v12q10 49 16 86t9 62h44v-10q-12 -38 -29.5 -77t-34.5 -73h-5z" />
    <glyph glyph-name="Ldot" unicode="&#x13f;" horiz-adv-x="475" 
d="M32 0v10h19q23 0 34.5 5.5t16 23.5t4.5 54v528q0 37 -4.5 54.5t-16 23t-34.5 5.5h-19v10h213v-10h-23q-22 0 -34 -5.5t-16.5 -23t-4.5 -52.5v-613h174q51 0 68 19t19 71l4 109h10l-5 -209h-405zM372 343q-34 0 -34 48t34 48q35 0 35 -48t-35 -48z" />
    <glyph glyph-name="ldot" unicode="&#x140;" horiz-adv-x="239" 
d="M9 0v10h5q31 0 46 4.5t20 20t5 48.5v593q0 34 -5.5 50t-19.5 20t-38 4h-13v10h136v-677q0 -33 4.5 -48.5t19.5 -20t47 -4.5h5v-10h-212zM274 280q-34 0 -34 48t34 48q35 0 35 -48t-35 -48z" />
    <glyph glyph-name="Lslash" unicode="&#x141;" horiz-adv-x="476" 
d="M32 0v10h19q23 0 34.5 5.5t16 23.5t4.5 54v214l-76 -55v12l76 55v302q0 37 -4.5 54.5t-16 23t-34.5 5.5h-19v10h213v-10h-23q-22 0 -34 -5.5t-16.5 -23t-4.5 -52.5v-261l129 93v-12l-129 -93v-340h173q52 0 69 19t19 72l4 108h10l-6 -209h-404z" />
    <glyph glyph-name="lslash" unicode="&#x142;" horiz-adv-x="245" 
d="M27 0v10h4q31 0 46.5 4.5t20 20t4.5 48.5v222l-70 -50v11l70 50v360q0 34 -5.5 50t-19 20t-38.5 4h-12v10h136v-401l76 55v-13l-76 -55v-263q0 -33 4.5 -48.5t19.5 -20t47 -4.5h5v-10h-212z" />
    <glyph glyph-name="Nacute" unicode="&#x143;" horiz-adv-x="586" 
d="M32 0v10h25q23 0 34.5 6t15.5 23.5t4 52.5v531q0 35 -3.5 52t-15 23t-34.5 6h-26v10h131l308 -648v557q0 35 -3.5 52t-14.5 23t-34 6h-37v10h181v-10h-30q-23 0 -34 -6t-14.5 -23.5t-3.5 -52.5v-622h-40l-320 671v-579q0 -35 3.5 -52.5t14.5 -23.5t34 -6h38v-10h-179z
M280 771v10q22 41 39.5 78.5t31.5 71.5h58v-10q-12 -18 -33.5 -44.5t-45.5 -55t-44 -50.5h-6z" />
    <glyph glyph-name="nacute" unicode="&#x144;" horiz-adv-x="496" 
d="M24 0v10h7q29 0 42.5 5t18 20.5t4.5 48.5v370q0 32 -4.5 47.5t-18 20t-41.5 4.5h-5v10h128v-99h2q13 48 42.5 77.5t79.5 29.5q67 0 98 -44t31 -139v-277q0 -32 4 -48t17 -21t40 -5h4v-10h-124v367q0 77 -19.5 117t-66.5 40q-45 0 -76 -43t-31 -144v-254q0 -33 4 -48.5
t17 -20t41 -4.5h6v-10h-200zM226 606v10q22 41 39.5 78.5t31.5 71.5h58v-10q-12 -18 -33.5 -44.5t-45.5 -55t-44 -50.5h-6z" />
    <glyph glyph-name="uni0145" unicode="&#x145;" horiz-adv-x="586" 
d="M32 0v10h25q23 0 34.5 6t15.5 23.5t4 52.5v531q0 35 -3.5 52t-15 23t-34.5 6h-26v10h131l308 -648v557q0 35 -3.5 52t-14.5 23t-34 6h-37v10h181v-10h-30q-23 0 -34 -6t-14.5 -23.5t-3.5 -52.5v-622h-40l-320 671v-579q0 -35 3.5 -52.5t14.5 -23.5t34 -6h38v-10h-179z
M268 -221v9q10 38 16.5 74.5t9.5 76.5h47v-9q-14 -44 -32.5 -83t-34.5 -68h-6z" />
    <glyph glyph-name="uni0146" unicode="&#x146;" horiz-adv-x="496" 
d="M24 0v10h7q29 0 42.5 5t18 20.5t4.5 48.5v370q0 32 -4.5 47.5t-18 20t-41.5 4.5h-5v10h128v-99h2q13 48 42.5 77.5t79.5 29.5q67 0 98 -44t31 -139v-277q0 -32 4 -48t17 -21t40 -5h4v-10h-124v367q0 77 -19.5 117t-66.5 40q-45 0 -76 -43t-31 -144v-254q0 -33 4 -48.5
t17 -20t41 -4.5h6v-10h-200zM223 -221v9q10 38 16.5 74.5t9.5 76.5h47v-9q-14 -44 -32.5 -83t-34.5 -68h-6z" />
    <glyph glyph-name="Ncaron" unicode="&#x147;" horiz-adv-x="586" 
d="M32 0v10h25q23 0 34.5 6t15.5 23.5t4 52.5v531q0 35 -3.5 52t-15 23t-34.5 6h-26v10h131l308 -648v557q0 35 -3.5 52t-14.5 23t-34 6h-37v10h181v-10h-30q-23 0 -34 -6t-14.5 -23.5t-3.5 -52.5v-622h-40l-320 671v-579q0 -35 3.5 -52.5t14.5 -23.5t34 -6h38v-10h-179z
M280 771q-12 22 -26.5 50t-30 54.5t-27.5 45.5v10h4q27 -32 53.5 -63.5t50.5 -63.5q22 32 48.5 63.5t53.5 63.5h5v-10q-13 -19 -28.5 -45.5t-30 -54.5t-24.5 -50h-48z" />
    <glyph glyph-name="ncaron" unicode="&#x148;" horiz-adv-x="496" 
d="M24 0v10h7q29 0 42.5 5t18 20.5t4.5 48.5v370q0 32 -4.5 47.5t-18 20t-41.5 4.5h-5v10h128v-99h2q13 48 42.5 77.5t79.5 29.5q67 0 98 -44t31 -139v-277q0 -32 4 -48t17 -21t40 -5h4v-10h-124v367q0 77 -19.5 117t-66.5 40q-45 0 -76 -43t-31 -144v-254q0 -33 4 -48.5
t17 -20t41 -4.5h6v-10h-200zM232 606q-12 22 -26.5 50t-30 54.5t-27.5 45.5v10h4q27 -32 53.5 -63.5t50.5 -63.5q22 32 48.5 63.5t53.5 63.5h5v-10q-13 -19 -28.5 -45.5t-30 -54.5t-24.5 -50h-48z" />
    <glyph glyph-name="napostrophe" unicode="&#x149;" horiz-adv-x="603" 
d="M131 0v10h7q29 0 42.5 5t18 20.5t4.5 48.5v370q0 32 -4.5 47.5t-18 20t-41.5 4.5h-5v10h128v-99h2q13 48 42.5 77.5t79.5 29.5q67 0 98 -44t31 -139v-277q0 -32 4 -48t17 -21t40 -5h4v-10h-124v367q0 77 -19.5 117t-66.5 40q-45 0 -76 -43t-31 -144v-254q0 -33 4 -48.5
t17 -20t41 -4.5h6v-10h-200zM3 448v11q41 18 64.5 45t23.5 68q0 24 -9.5 36.5t-22.5 20t-22.5 17.5t-9.5 30q0 16 10.5 27t28.5 11q26 0 41 -27t15 -68q0 -59 -25.5 -101t-93.5 -70z" />
    <glyph glyph-name="Eng" unicode="&#x14a;" horiz-adv-x="586" 
d="M348 -240v10h7q61 0 86 49.5t25 170.5v8l-339 660v-566q0 -35 3.5 -52.5t14.5 -23.5t34 -6h43v-10h-190v10h31q23 0 35 6t15.5 23.5t3.5 52.5v531q0 35 -3.5 52t-14.5 23t-34 6h-33v10h131l303 -606v515q0 35 -3.5 52t-15 23t-34.5 6h-43v10h193v-10h-35q-23 0 -34 -6
t-14.5 -23.5t-3.5 -52.5v-633q0 -87 -11.5 -137t-38 -71t-70.5 -21h-8z" />
    <glyph glyph-name="eng" unicode="&#x14b;" horiz-adv-x="485" 
d="M267 -240v10h5q24 0 41.5 17.5t26.5 61t9 123.5v395q0 77 -19.5 117t-66.5 40q-45 0 -76 -43t-31 -144v-254q0 -33 4 -48.5t17 -20t41 -4.5h6v-10h-200v10h7q29 0 42.5 5t18 20.5t4.5 48.5v370q0 32 -4.5 47.5t-18 20t-41.5 4.5h-5v10h128v-99h2q13 48 42.5 77.5
t79.5 29.5q67 0 98 -44t31 -139v-378q0 -92 -17 -140t-46.5 -65.5t-67.5 -17.5h-10z" />
    <glyph glyph-name="Omacron" unicode="&#x14c;" horiz-adv-x="567" 
d="M283 -10q-81 0 -134 46t-79 129t-26 194q0 175 59.5 270.5t180.5 95.5q238 0 238 -367q0 -172 -62.5 -270t-176.5 -98zM283 0q176 0 176 358q0 182 -39 269.5t-136 87.5q-94 0 -135.5 -87.5t-41.5 -269.5q0 -176 43.5 -267t132.5 -91zM168 804v20h225v-20h-225z" />
    <glyph glyph-name="omacron" unicode="&#x14d;" horiz-adv-x="439" 
d="M219 -10q-83 0 -128.5 68t-45.5 210q0 139 43 207.5t133 68.5q173 0 173 -276q0 -145 -44.5 -211.5t-130.5 -66.5zM220 0q64 0 89 63.5t25 204.5q0 142 -25 204t-90 62q-63 0 -88.5 -62t-25.5 -204t27.5 -205t87.5 -63zM105 639v20h225v-20h-225z" />
    <glyph glyph-name="Obreve" unicode="&#x14e;" horiz-adv-x="567" 
d="M283 -10q-81 0 -134 46t-79 129t-26 194q0 175 59.5 270.5t180.5 95.5q238 0 238 -367q0 -172 -62.5 -270t-176.5 -98zM283 0q176 0 176 358q0 182 -39 269.5t-136 87.5q-94 0 -135.5 -87.5t-41.5 -269.5q0 -176 43.5 -267t132.5 -91zM284 771q-53 0 -78 34t-27 90h11
q5 -45 26 -63.5t68 -18.5q46 0 67 18t26 64h10q-1 -55 -25.5 -89.5t-77.5 -34.5z" />
    <glyph glyph-name="obreve" unicode="&#x14f;" horiz-adv-x="439" 
d="M219 -10q-83 0 -128.5 68t-45.5 210q0 139 43 207.5t133 68.5q173 0 173 -276q0 -145 -44.5 -211.5t-130.5 -66.5zM220 0q64 0 89 63.5t25 204.5q0 142 -25 204t-90 62q-63 0 -88.5 -62t-25.5 -204t27.5 -205t87.5 -63zM221 606q-53 0 -78 34t-27 90h11q5 -45 26 -63.5
t68 -18.5q46 0 67 18t26 64h10q-1 -55 -25.5 -89.5t-77.5 -34.5z" />
    <glyph glyph-name="Ohungarumlaut" unicode="&#x150;" horiz-adv-x="567" 
d="M283 -10q-81 0 -134 46t-79 129t-26 194q0 175 59.5 270.5t180.5 95.5q238 0 238 -367q0 -172 -62.5 -270t-176.5 -98zM283 0q176 0 176 358q0 182 -39 269.5t-136 87.5q-94 0 -135.5 -87.5t-41.5 -269.5q0 -176 43.5 -267t132.5 -91zM205 771v9q20 41 37 79t31 72h44
v-10q-11 -18 -29.5 -44.5t-39 -55t-37.5 -50.5h-6zM338 771v9q21 41 38 79t30 72h45v-10q-12 -18 -30 -44.5t-39 -55t-38 -50.5h-6z" />
    <glyph glyph-name="ohungarumlaut" unicode="&#x151;" horiz-adv-x="439" 
d="M219 -10q-83 0 -128.5 68t-45.5 210q0 139 43 207.5t133 68.5q173 0 173 -276q0 -145 -44.5 -211.5t-130.5 -66.5zM220 0q64 0 89 63.5t25 204.5q0 142 -25 204t-90 62q-63 0 -88.5 -62t-25.5 -204t27.5 -205t87.5 -63zM131 606v9q20 41 37 79t31 72h44v-10
q-11 -18 -29.5 -44.5t-39 -55t-37.5 -50.5h-6zM264 606v9q21 41 38 79t30 72h45v-10q-12 -18 -30 -44.5t-39 -55t-38 -50.5h-6z" />
    <glyph glyph-name="OE" unicode="&#x152;" horiz-adv-x="731" 
d="M283 -10q-81 0 -134 46t-79 129t-26 194q0 175 59.5 270.5t180.5 95.5q22 0 42 -3t38 -8h301l5 -169h-10l-2 58q-2 43 -10 64.5t-28 29t-58 7.5h-142v-325h197v-10h-197l-1 -359h170q37 0 56.5 6.5t27 25t9.5 54.5l4 73h10l-5 -169h-328q-36 -10 -80 -10zM283 0
q23 0 41.5 5t34.5 12v681q-14 8 -33.5 12.5t-41.5 4.5q-93 0 -135 -92.5t-42 -264.5q0 -166 43.5 -262t132.5 -96z" />
    <glyph glyph-name="oe" unicode="&#x153;" horiz-adv-x="697" 
d="M219 -10q-84 0 -129 69t-45 209q0 142 43.5 209t132.5 67q51 0 88 -28.5t55 -94.5q19 66 54.5 94.5t81.5 28.5q72 0 114.5 -62.5t42.5 -184.5v-18h-264q-1 -101 15 -162t44.5 -88.5t66.5 -27.5q41 0 67.5 27.5t36.5 83.5q18 -5 18 -27q0 -19 -14.5 -41t-43.5 -38t-74 -16
q-102 0 -144 121q-19 -64 -55.5 -92.5t-90.5 -28.5zM220 0q62 0 88 63t26 205t-26 204t-89 62q-62 0 -88 -62t-26 -204t26.5 -205t88.5 -63zM394 289h203q-1 120 -22 182.5t-76 62.5q-49 0 -76 -58t-29 -187z" />
    <glyph glyph-name="Racute" unicode="&#x154;" horiz-adv-x="497" 
d="M32 0v10h21q23 0 34.5 6t15 23t3.5 52v532q0 35 -3.5 52t-15 23t-34.5 6h-21v10h196q108 0 152.5 -48.5t44.5 -138.5q0 -82 -31.5 -129.5t-92.5 -66.5l117 -227q22 -42 35.5 -62t23.5 -26t21 -6h5v-10h-12q-33 0 -56.5 8t-42 28t-36.5 58l-113 230h-76v-233
q0 -35 3.5 -52t15 -23t34.5 -6h24v-10h-212zM167 334h56q76 0 107 47t31 145q0 91 -30 134.5t-104 43.5h-60v-370zM210 771v10q22 41 39.5 78.5t31.5 71.5h58v-10q-12 -18 -33.5 -44.5t-45.5 -55t-44 -50.5h-6z" />
    <glyph glyph-name="racute" unicode="&#x155;" horiz-adv-x="353" 
d="M29 0v10h1q29 0 43 4.5t18.5 20t4.5 48.5v370q0 33 -4 48.5t-18 20t-44 4.5h-3v10h129v-121h2q14 55 38 92.5t74 37.5q36 0 54 -19.5t18 -48.5q0 -25 -12.5 -39t-36.5 -14q0 56 -8.5 77.5t-33.5 21.5q-43 0 -68.5 -61.5t-25.5 -173.5v-205q0 -33 4.5 -48.5t19.5 -20
t45 -4.5h11v-10h-208zM143 606v10q22 41 39.5 78.5t31.5 71.5h58v-10q-12 -18 -33.5 -44.5t-45.5 -55t-44 -50.5h-6z" />
    <glyph glyph-name="uni0156" unicode="&#x156;" horiz-adv-x="497" 
d="M32 0v10h21q23 0 34.5 6t15 23t3.5 52v532q0 35 -3.5 52t-15 23t-34.5 6h-21v10h196q108 0 152.5 -48.5t44.5 -138.5q0 -82 -31.5 -129.5t-92.5 -66.5l117 -227q22 -42 35.5 -62t23.5 -26t21 -6h5v-10h-12q-33 0 -56.5 8t-42 28t-36.5 58l-113 230h-76v-233
q0 -35 3.5 -52t15 -23t34.5 -6h24v-10h-212zM167 334h56q76 0 107 47t31 145q0 91 -30 134.5t-104 43.5h-60v-370zM210 -221v9q10 38 16.5 74.5t9.5 76.5h47v-9q-14 -44 -32.5 -83t-34.5 -68h-6z" />
    <glyph glyph-name="uni0157" unicode="&#x157;" horiz-adv-x="353" 
d="M29 0v10h1q29 0 43 4.5t18.5 20t4.5 48.5v370q0 33 -4 48.5t-18 20t-44 4.5h-3v10h129v-121h2q14 55 38 92.5t74 37.5q36 0 54 -19.5t18 -48.5q0 -25 -12.5 -39t-36.5 -14q0 56 -8.5 77.5t-33.5 21.5q-43 0 -68.5 -61.5t-25.5 -173.5v-205q0 -33 4.5 -48.5t19.5 -20
t45 -4.5h11v-10h-208zM89 -221v9q10 38 16.5 74.5t9.5 76.5h47v-9q-14 -44 -32.5 -83t-34.5 -68h-6z" />
    <glyph glyph-name="Rcaron" unicode="&#x158;" horiz-adv-x="497" 
d="M32 0v10h21q23 0 34.5 6t15 23t3.5 52v532q0 35 -3.5 52t-15 23t-34.5 6h-21v10h196q108 0 152.5 -48.5t44.5 -138.5q0 -82 -31.5 -129.5t-92.5 -66.5l117 -227q22 -42 35.5 -62t23.5 -26t21 -6h5v-10h-12q-33 0 -56.5 8t-42 28t-36.5 58l-113 230h-76v-233
q0 -35 3.5 -52t15 -23t34.5 -6h24v-10h-212zM167 334h56q76 0 107 47t31 145q0 91 -30 134.5t-104 43.5h-60v-370zM208 771q-12 22 -26.5 50t-30 54.5t-27.5 45.5v10h4q27 -32 53.5 -63.5t50.5 -63.5q22 32 48.5 63.5t53.5 63.5h5v-10q-13 -19 -28.5 -45.5t-30 -54.5
t-24.5 -50h-48z" />
    <glyph glyph-name="rcaron" unicode="&#x159;" horiz-adv-x="353" 
d="M29 0v10h1q29 0 43 4.5t18.5 20t4.5 48.5v370q0 33 -4 48.5t-18 20t-44 4.5h-3v10h129v-121h2q14 55 38 92.5t74 37.5q36 0 54 -19.5t18 -48.5q0 -25 -12.5 -39t-36.5 -14q0 56 -8.5 77.5t-33.5 21.5q-43 0 -68.5 -61.5t-25.5 -173.5v-205q0 -33 4.5 -48.5t19.5 -20
t45 -4.5h11v-10h-208zM149 606q-12 22 -26.5 50t-30 54.5t-27.5 45.5v10h4q27 -32 53.5 -63.5t50.5 -63.5q22 32 48.5 63.5t53.5 63.5h5v-10q-13 -19 -28.5 -45.5t-30 -54.5t-24.5 -50h-48z" />
    <glyph glyph-name="Sacute" unicode="&#x15a;" horiz-adv-x="411" 
d="M200 -10q-58 0 -93 21.5t-50.5 53t-15.5 60.5q0 23 11 40t33 17q0 -81 28.5 -131.5t95.5 -50.5q55 0 85.5 37t30.5 115q0 52 -15 83.5t-45 55t-75 50.5q-63 37 -98 84t-35 121q0 82 43.5 130t116.5 48q47 0 78 -17.5t47 -44t16 -53.5q0 -49 -47 -49q0 154 -100 154
q-49 0 -77.5 -38t-28.5 -108q0 -48 14.5 -78.5t42.5 -53t69 -47.5q41 -26 73 -52t50.5 -62.5t18.5 -95.5q0 -88 -43.5 -138.5t-129.5 -50.5zM188 771v10q22 41 39.5 78.5t31.5 71.5h58v-10q-12 -18 -33.5 -44.5t-45.5 -55t-44 -50.5h-6z" />
    <glyph glyph-name="sacute" unicode="&#x15b;" horiz-adv-x="340" 
d="M162 -10q-46 0 -74.5 16.5t-41 41t-12.5 49.5q0 27 12 39.5t28 12.5q0 -77 21 -113t70 -36q44 0 69.5 28.5t25.5 87.5q0 32 -9 52.5t-29 38t-55 40.5t-62 44t-41.5 48.5t-14.5 69.5q0 64 34.5 99t95.5 35q55 0 85 -26.5t30 -66.5q0 -50 -41 -50q0 70 -17.5 101.5
t-58.5 31.5t-62 -27.5t-21 -73.5q0 -48 24 -76t76 -59q30 -18 55 -37.5t40.5 -48.5t15.5 -75q0 -68 -36.5 -107t-106.5 -39zM153 606v10q22 41 39.5 78.5t31.5 71.5h58v-10q-12 -18 -33.5 -44.5t-45.5 -55t-44 -50.5h-6z" />
    <glyph glyph-name="Scircumflex" unicode="&#x15c;" horiz-adv-x="411" 
d="M200 -10q-58 0 -93 21.5t-50.5 53t-15.5 60.5q0 23 11 40t33 17q0 -81 28.5 -131.5t95.5 -50.5q55 0 85.5 37t30.5 115q0 52 -15 83.5t-45 55t-75 50.5q-63 37 -98 84t-35 121q0 82 43.5 130t116.5 48q47 0 78 -17.5t47 -44t16 -53.5q0 -49 -47 -49q0 154 -100 154
q-49 0 -77.5 -38t-28.5 -108q0 -48 14.5 -78.5t42.5 -53t69 -47.5q41 -26 73 -52t50.5 -62.5t18.5 -95.5q0 -88 -43.5 -138.5t-129.5 -50.5zM105 771v10q12 19 27.5 45.5t30 54.5t26.5 50h48q10 -22 24.5 -50t30 -54.5t28.5 -45.5v-10h-5q-27 32 -53.5 63.5t-48.5 63.5
q-24 -32 -50.5 -63.5t-53.5 -63.5h-4z" />
    <glyph glyph-name="scircumflex" unicode="&#x15d;" horiz-adv-x="340" 
d="M162 -10q-46 0 -74.5 16.5t-41 41t-12.5 49.5q0 27 12 39.5t28 12.5q0 -77 21 -113t70 -36q44 0 69.5 28.5t25.5 87.5q0 32 -9 52.5t-29 38t-55 40.5t-62 44t-41.5 48.5t-14.5 69.5q0 64 34.5 99t95.5 35q55 0 85 -26.5t30 -66.5q0 -50 -41 -50q0 70 -17.5 101.5
t-58.5 31.5t-62 -27.5t-21 -73.5q0 -48 24 -76t76 -59q30 -18 55 -37.5t40.5 -48.5t15.5 -75q0 -68 -36.5 -107t-106.5 -39zM66 606v10q12 19 27.5 45.5t30 54.5t26.5 50h48q10 -22 24.5 -50t30 -54.5t28.5 -45.5v-10h-5q-27 32 -53.5 63.5t-48.5 63.5q-24 -32 -50.5 -63.5
t-53.5 -63.5h-4z" />
    <glyph glyph-name="Scedilla" unicode="&#x15e;" horiz-adv-x="411" 
d="M200 -10q-58 0 -93 21.5t-50.5 53t-15.5 60.5q0 23 11 40t33 17q0 -81 28.5 -131.5t95.5 -50.5q55 0 85.5 37t30.5 115q0 52 -15 83.5t-45 55t-75 50.5q-63 37 -98 84t-35 121q0 82 43.5 130t116.5 48q47 0 78 -17.5t47 -44t16 -53.5q0 -49 -47 -49q0 154 -100 154
q-49 0 -77.5 -38t-28.5 -108q0 -48 14.5 -78.5t42.5 -53t69 -47.5q41 -26 73 -52t50.5 -62.5t18.5 -95.5q0 -88 -43.5 -138.5t-129.5 -50.5zM191 -232q-27 0 -55 11v10q13 -5 23.5 -7.5t20.5 -2.5q29 0 46 20t17 61q0 34 -13.5 51t-40.5 19l14 70h10l-12 -61q86 -9 86 -82
q0 -41 -25.5 -65t-70.5 -24z" />
    <glyph glyph-name="scedilla" unicode="&#x15f;" horiz-adv-x="340" 
d="M162 -10q-46 0 -74.5 16.5t-41 41t-12.5 49.5q0 27 12 39.5t28 12.5q0 -77 21 -113t70 -36q44 0 69.5 28.5t25.5 87.5q0 32 -9 52.5t-29 38t-55 40.5t-62 44t-41.5 48.5t-14.5 69.5q0 64 34.5 99t95.5 35q55 0 85 -26.5t30 -66.5q0 -50 -41 -50q0 70 -17.5 101.5
t-58.5 31.5t-62 -27.5t-21 -73.5q0 -48 24 -76t76 -59q30 -18 55 -37.5t40.5 -48.5t15.5 -75q0 -68 -36.5 -107t-106.5 -39zM149 -232q-27 0 -55 11v10q13 -5 23.5 -7.5t20.5 -2.5q29 0 46 20t17 61q0 34 -13.5 51t-40.5 19l14 70h10l-12 -61q86 -9 86 -82q0 -41 -25.5 -65
t-70.5 -24z" />
    <glyph glyph-name="Scaron" unicode="&#x160;" horiz-adv-x="411" 
d="M200 -10q-58 0 -93 21.5t-50.5 53t-15.5 60.5q0 23 11 40t33 17q0 -81 28.5 -131.5t95.5 -50.5q55 0 85.5 37t30.5 115q0 52 -15 83.5t-45 55t-75 50.5q-63 37 -98 84t-35 121q0 82 43.5 130t116.5 48q47 0 78 -17.5t47 -44t16 -53.5q0 -49 -47 -49q0 154 -100 154
q-49 0 -77.5 -38t-28.5 -108q0 -48 14.5 -78.5t42.5 -53t69 -47.5q41 -26 73 -52t50.5 -62.5t18.5 -95.5q0 -88 -43.5 -138.5t-129.5 -50.5zM192 771q-12 22 -26.5 50t-30 54.5t-27.5 45.5v10h4q27 -32 53.5 -63.5t50.5 -63.5q22 32 48.5 63.5t53.5 63.5h5v-10
q-13 -19 -28.5 -45.5t-30 -54.5t-24.5 -50h-48z" />
    <glyph glyph-name="scaron" unicode="&#x161;" horiz-adv-x="340" 
d="M162 -10q-46 0 -74.5 16.5t-41 41t-12.5 49.5q0 27 12 39.5t28 12.5q0 -77 21 -113t70 -36q44 0 69.5 28.5t25.5 87.5q0 32 -9 52.5t-29 38t-55 40.5t-62 44t-41.5 48.5t-14.5 69.5q0 64 34.5 99t95.5 35q55 0 85 -26.5t30 -66.5q0 -50 -41 -50q0 70 -17.5 101.5
t-58.5 31.5t-62 -27.5t-21 -73.5q0 -48 24 -76t76 -59q30 -18 55 -37.5t40.5 -48.5t15.5 -75q0 -68 -36.5 -107t-106.5 -39zM152 606q-12 22 -26.5 50t-30 54.5t-27.5 45.5v10h4q27 -32 53.5 -63.5t50.5 -63.5q22 32 48.5 63.5t53.5 63.5h5v-10q-13 -19 -28.5 -45.5
t-30 -54.5t-24.5 -50h-48z" />
    <glyph glyph-name="uni0162" unicode="&#x162;" horiz-adv-x="468" 
d="M114 0v10h33q23 0 35 6t16 23.5t4 53.5v611h-87q-50 0 -66 -18t-18 -68l-3 -65h-10l6 161h419l6 -161h-10l-3 65q-3 50 -18.5 68t-65.5 18h-89v-611q0 -36 3.5 -53.5t15.5 -23.5t36 -6h32v-10h-236zM216 -226q-27 0 -55 11v10q12 -5 23 -7.5t21 -2.5q29 0 46 20t17 61
q0 34 -13 51t-41 19l13 68h10l-11 -59q85 -9 85 -82q0 -41 -25 -65t-70 -24z" />
    <glyph glyph-name="uni0163" unicode="&#x163;" horiz-adv-x="262" 
d="M180 -10q-54 0 -79.5 33t-25.5 120v383h-60v10q29 1 47.5 7.5t29.5 16.5q17 16 23.5 41t9.5 57h10v-122h101v-10h-101v-406q0 -68 15.5 -92t46.5 -24q11 0 21.5 1t25.5 5v-10q-13 -4 -29.5 -7t-34.5 -3zM138 -226q-27 0 -55 11v10q12 -5 23 -7.5t21 -2.5q29 0 46 20
t17 61q0 34 -13 51t-41 19l13 68h10l-11 -59q85 -9 85 -82q0 -41 -25 -65t-70 -24z" />
    <glyph glyph-name="Tcaron" unicode="&#x164;" horiz-adv-x="468" 
d="M114 0v10h33q23 0 35 6t16 23.5t4 53.5v611h-87q-50 0 -66 -18t-18 -68l-3 -65h-10l6 161h419l6 -161h-10l-3 65q-3 50 -18.5 68t-65.5 18h-89v-611q0 -36 3.5 -53.5t15.5 -23.5t36 -6h32v-10h-236zM209 771q-12 22 -26.5 50t-30 54.5t-27.5 45.5v10h4q27 -32 53.5 -63.5
t50.5 -63.5q22 32 48.5 63.5t53.5 63.5h5v-10q-13 -19 -28.5 -45.5t-30 -54.5t-24.5 -50h-48z" />
    <glyph glyph-name="tcaron" unicode="&#x165;" horiz-adv-x="262" 
d="M180 -10q-54 0 -79.5 33t-25.5 120v383h-60v10q29 1 47.5 7.5t29.5 16.5q17 16 23.5 41t9.5 57h10v-122h101v-10h-101v-406q0 -68 15.5 -92t46.5 -24q11 0 21.5 1t25.5 5v-10q-13 -4 -29.5 -7t-34.5 -3zM194 600v12q10 49 16 86t9 62h44v-10q-12 -38 -29.5 -77t-34.5 -73
h-5z" />
    <glyph glyph-name="Tbar" unicode="&#x166;" horiz-adv-x="468" 
d="M114 0v10h33q23 0 35 6t16 23.5t4 53.5v260h-118v10h118v341h-88q-50 0 -65.5 -18t-18.5 -68l-2 -65h-10l5 161h421l5 -161h-10l-2 65q-3 50 -19 68t-65 18h-90v-341h116v-10h-116v-260q0 -36 3.5 -53.5t15.5 -23.5t36 -6h32v-10h-236z" />
    <glyph glyph-name="tbar" unicode="&#x167;" horiz-adv-x="262" 
d="M180 -10q-54 0 -79.5 33t-25.5 120v166h-54v10h54v207h-60v10q29 1 47.5 7.5t29.5 16.5q17 16 23.5 41t9.5 57h10v-122h101v-10h-101v-207h80v-10h-80v-189q0 -68 15.5 -92t46.5 -24q11 0 21.5 1t25.5 5v-10q-13 -4 -29.5 -7t-34.5 -3z" />
    <glyph glyph-name="Utilde" unicode="&#x168;" horiz-adv-x="549" 
d="M276 -10q-86 0 -138.5 52t-52.5 173v410q0 35 -4.5 51.5t-16.5 22t-34 5.5h-19v10h213v-10h-23q-22 0 -34 -5.5t-16.5 -23t-4.5 -53.5v-425q0 -105 38 -148t102 -43q60 0 94.5 25.5t48.5 70t14 103.5v419q0 35 -4.5 52t-16.5 22.5t-35 5.5h-39v10h189v-10h-32
q-21 0 -32.5 -5.5t-15.5 -23t-4 -53.5v-419q0 -101 -41.5 -157t-135.5 -56zM341 771q-22 0 -39 10.5t-32.5 24t-31.5 24t-36 10.5q-23 0 -32.5 -16.5t-13.5 -42.5h-10q4 24 11 47t21 38.5t40 15.5q21 0 37.5 -10.5t31.5 -24t31 -24t37 -10.5q26 0 35.5 17t13.5 42h10
q-3 -25 -10.5 -48t-22.5 -38t-40 -15z" />
    <glyph glyph-name="utilde" unicode="&#x169;" horiz-adv-x="486" 
d="M213 -10q-61 0 -95 45t-34 149v270q0 32 -4.5 47.5t-18.5 20t-43 4.5h-3v10h128v-367q0 -83 21 -121t67 -38q54 0 80.5 52.5t26.5 137.5v242q0 38 -3.5 56t-17 23t-44.5 5h-2v10h127v-449q0 -35 4 -51.5t18 -21t44 -4.5h3v-10h-128v103h-2q-13 -54 -44.5 -83.5
t-79.5 -29.5zM298 606q-22 0 -39 10.5t-32.5 24t-31.5 24t-36 10.5q-23 0 -32.5 -16.5t-13.5 -42.5h-10q4 24 11 47t21 38.5t40 15.5q21 0 37.5 -10.5t31.5 -24t31 -24t37 -10.5q26 0 35.5 17t13.5 42h10q-3 -25 -10.5 -48t-22.5 -38t-40 -15z" />
    <glyph glyph-name="Umacron" unicode="&#x16a;" horiz-adv-x="549" 
d="M276 -10q-86 0 -138.5 52t-52.5 173v410q0 35 -4.5 51.5t-16.5 22t-34 5.5h-19v10h213v-10h-23q-22 0 -34 -5.5t-16.5 -23t-4.5 -53.5v-425q0 -105 38 -148t102 -43q60 0 94.5 25.5t48.5 70t14 103.5v419q0 35 -4.5 52t-16.5 22.5t-35 5.5h-39v10h189v-10h-32
q-21 0 -32.5 -5.5t-15.5 -23t-4 -53.5v-419q0 -101 -41.5 -157t-135.5 -56zM174 804v20h225v-20h-225z" />
    <glyph glyph-name="umacron" unicode="&#x16b;" horiz-adv-x="486" 
d="M213 -10q-61 0 -95 45t-34 149v270q0 32 -4.5 47.5t-18.5 20t-43 4.5h-3v10h128v-367q0 -83 21 -121t67 -38q54 0 80.5 52.5t26.5 137.5v242q0 38 -3.5 56t-17 23t-44.5 5h-2v10h127v-449q0 -35 4 -51.5t18 -21t44 -4.5h3v-10h-128v103h-2q-13 -54 -44.5 -83.5
t-79.5 -29.5zM120 639v20h225v-20h-225z" />
    <glyph glyph-name="Ubreve" unicode="&#x16c;" horiz-adv-x="549" 
d="M276 -10q-86 0 -138.5 52t-52.5 173v410q0 35 -4.5 51.5t-16.5 22t-34 5.5h-19v10h213v-10h-23q-22 0 -34 -5.5t-16.5 -23t-4.5 -53.5v-425q0 -105 38 -148t102 -43q60 0 94.5 25.5t48.5 70t14 103.5v419q0 35 -4.5 52t-16.5 22.5t-35 5.5h-39v10h189v-10h-32
q-21 0 -32.5 -5.5t-15.5 -23t-4 -53.5v-419q0 -101 -41.5 -157t-135.5 -56zM283 771q-53 0 -78 34t-27 90h11q5 -45 26 -63.5t68 -18.5q46 0 67 18t26 64h10q-1 -55 -25.5 -89.5t-77.5 -34.5z" />
    <glyph glyph-name="ubreve" unicode="&#x16d;" horiz-adv-x="486" 
d="M213 -10q-61 0 -95 45t-34 149v270q0 32 -4.5 47.5t-18.5 20t-43 4.5h-3v10h128v-367q0 -83 21 -121t67 -38q54 0 80.5 52.5t26.5 137.5v242q0 38 -3.5 56t-17 23t-44.5 5h-2v10h127v-449q0 -35 4 -51.5t18 -21t44 -4.5h3v-10h-128v103h-2q-13 -54 -44.5 -83.5
t-79.5 -29.5zM238 606q-53 0 -78 34t-27 90h11q5 -45 26 -63.5t68 -18.5q46 0 67 18t26 64h10q-1 -55 -25.5 -89.5t-77.5 -34.5z" />
    <glyph glyph-name="Uring" unicode="&#x16e;" horiz-adv-x="549" 
d="M276 -10q-86 0 -138.5 52t-52.5 173v410q0 35 -4.5 51.5t-16.5 22t-34 5.5h-19v10h213v-10h-23q-22 0 -34 -5.5t-16.5 -23t-4.5 -53.5v-425q0 -105 38 -148t102 -43q60 0 94.5 25.5t48.5 70t14 103.5v419q0 35 -4.5 52t-16.5 22.5t-35 5.5h-39v10h189v-10h-32
q-21 0 -32.5 -5.5t-15.5 -23t-4 -53.5v-419q0 -101 -41.5 -157t-135.5 -56zM284 761q-43 0 -69 28.5t-26 80.5t26 80.5t69 28.5t69 -28.5t26 -80.5t-26 -80.5t-69 -28.5zM285 771q37 0 59.5 26t22.5 73t-22.5 73t-59.5 26q-39 0 -61.5 -26t-22.5 -73t22.5 -73t61.5 -26z" />
    <glyph glyph-name="uring" unicode="&#x16f;" horiz-adv-x="486" 
d="M213 -10q-61 0 -95 45t-34 149v270q0 32 -4.5 47.5t-18.5 20t-43 4.5h-3v10h128v-367q0 -83 21 -121t67 -38q54 0 80.5 52.5t26.5 137.5v242q0 38 -3.5 56t-17 23t-44.5 5h-2v10h127v-449q0 -35 4 -51.5t18 -21t44 -4.5h3v-10h-128v103h-2q-13 -54 -44.5 -83.5
t-79.5 -29.5zM232 596q-43 0 -69 28.5t-26 80.5t26 80.5t69 28.5t69 -28.5t26 -80.5t-26 -80.5t-69 -28.5zM233 606q37 0 59.5 26t22.5 73t-22.5 73t-59.5 26q-39 0 -61.5 -26t-22.5 -73t22.5 -73t61.5 -26z" />
    <glyph glyph-name="Uhungarumlaut" unicode="&#x170;" horiz-adv-x="549" 
d="M276 -10q-86 0 -138.5 52t-52.5 173v410q0 35 -4.5 51.5t-16.5 22t-34 5.5h-19v10h213v-10h-23q-22 0 -34 -5.5t-16.5 -23t-4.5 -53.5v-425q0 -105 38 -148t102 -43q60 0 94.5 25.5t48.5 70t14 103.5v419q0 35 -4.5 52t-16.5 22.5t-35 5.5h-39v10h189v-10h-32
q-21 0 -32.5 -5.5t-15.5 -23t-4 -53.5v-419q0 -101 -41.5 -157t-135.5 -56zM205 771v9q20 41 37 79t31 72h44v-10q-11 -18 -29.5 -44.5t-39 -55t-37.5 -50.5h-6zM338 771v9q21 41 38 79t30 72h45v-10q-12 -18 -30 -44.5t-39 -55t-38 -50.5h-6z" />
    <glyph glyph-name="uhungarumlaut" unicode="&#x171;" horiz-adv-x="486" 
d="M213 -10q-61 0 -95 45t-34 149v270q0 32 -4.5 47.5t-18.5 20t-43 4.5h-3v10h128v-367q0 -83 21 -121t67 -38q54 0 80.5 52.5t26.5 137.5v242q0 38 -3.5 56t-17 23t-44.5 5h-2v10h127v-449q0 -35 4 -51.5t18 -21t44 -4.5h3v-10h-128v103h-2q-13 -54 -44.5 -83.5
t-79.5 -29.5zM155 606v9q20 41 37 79t31 72h44v-10q-11 -18 -29.5 -44.5t-39 -55t-37.5 -50.5h-6zM288 606v9q21 41 38 79t30 72h45v-10q-12 -18 -30 -44.5t-39 -55t-38 -50.5h-6z" />
    <glyph glyph-name="Uogonek" unicode="&#x172;" horiz-adv-x="538" 
d="M280 -10q-86 0 -138.5 52t-52.5 173v410q0 35 -4.5 51.5t-16.5 22t-34 5.5h-19v10h213v-10h-23q-22 0 -34 -5.5t-16.5 -23t-4.5 -53.5v-425q0 -105 38 -148t102 -43q60 0 94.5 25.5t48.5 70t14 103.5v419q0 35 -4.5 52t-16.5 22.5t-35 5.5h-39v10h189v-10h-32
q-21 0 -32.5 -5.5t-15.5 -23t-4 -53.5v-419q0 -101 -41.5 -157t-135.5 -56zM307 -231q-42 0 -67.5 25t-25.5 76q0 53 27.5 84.5t66.5 45.5h21q-31 -13 -52.5 -42.5t-21.5 -85.5q0 -91 60 -91q10 0 21.5 2.5t24.5 10.5v-11q-25 -14 -54 -14z" />
    <glyph glyph-name="uogonek" unicode="&#x173;" horiz-adv-x="486" 
d="M213 -10q-61 0 -95 45t-34 149v270q0 32 -4.5 47.5t-18.5 20t-43 4.5h-3v10h128v-367q0 -83 21 -121t67 -38q54 0 80.5 52.5t26.5 137.5v242q0 38 -3.5 56t-17 23t-44.5 5h-2v10h127v-449q0 -35 4 -51.5t18 -21t44 -4.5h3v-10h-128v103h-2q-13 -54 -44.5 -83.5
t-79.5 -29.5zM392 -231q-41 0 -67 25.5t-26 75.5q0 53 28 84.5t66 45.5h22q-30 -12 -52.5 -42t-22.5 -86q0 -46 16.5 -68.5t44.5 -22.5q10 0 21 2.5t25 10.5v-11q-25 -14 -55 -14z" />
    <glyph glyph-name="Wcircumflex" unicode="&#x174;" horiz-adv-x="807" 
d="M214 0l-135 655q-7 32 -19 40.5t-40 8.5h-10v10h205v-10h-21q-32 0 -42 -7.5t-10 -22.5q0 -11 3.5 -34t6.5 -40l74 -372q18 -85 31 -170q10 44 18.5 82t17.5 79l111 493h29l113 -463q12 -51 21.5 -91.5t17.5 -82.5q7 32 12.5 57.5t11.5 52.5t15 66l78 352q6 28 8 43.5
t2 25.5q0 16 -9.5 24t-43.5 8h-32v10h172v-10h-13q-31 0 -43.5 -9t-20.5 -47l-143 -648h-33l-150 628l-141 -628h-41zM308 771v10q12 19 27.5 45.5t30 54.5t26.5 50h48q10 -22 24.5 -50t30 -54.5t28.5 -45.5v-10h-5q-27 32 -53.5 63.5t-48.5 63.5q-24 -32 -50.5 -63.5
t-53.5 -63.5h-4z" />
    <glyph glyph-name="wcircumflex" unicode="&#x175;" horiz-adv-x="671" 
d="M170 0l-110 473q-8 36 -18 44.5t-38 8.5h-1v10h171v-10h-28q-24 0 -31 -5t-7 -14t4.5 -31t8.5 -41l56 -238q10 -42 18 -80t12 -65h2q3 16 10.5 45t15 59t12.5 51l80 329h36l89 -315q6 -22 14 -54.5t15.5 -64.5t11.5 -51h2q5 26 14 71t17 86l47 230q11 50 11 68
q0 10 -6 15t-29 5h-27v10h147v-10h-19q-31 0 -41 -7t-17 -42l-98 -477h-37l-133 483l-119 -483h-35zM234 606v10q12 19 27.5 45.5t30 54.5t26.5 50h48q10 -22 24.5 -50t30 -54.5t28.5 -45.5v-10h-5q-27 32 -53.5 63.5t-48.5 63.5q-24 -32 -50.5 -63.5t-53.5 -63.5h-4z" />
    <glyph glyph-name="Ycircumflex" unicode="&#x176;" horiz-adv-x="469" 
d="M121 0v10h28q24 0 36 6t16 23.5t4 53.5v249l-148 317q-14 30 -25.5 37.5t-30.5 7.5h-6v10h192v-10h-25q-28 0 -36.5 -5t-8.5 -15q0 -8 4.5 -20t13.5 -31l71 -160q14 -31 26.5 -58t27.5 -61q7 15 18 40t23 51l84 190q10 23 12.5 32t2.5 17q0 10 -7 15t-33 5h-52v10h164
v-10h-8q-24 0 -33 -7t-23 -36l-142 -314v-254q0 -36 3.5 -53.5t15 -23.5t35.5 -6h29v-10h-228zM126 771v10q12 19 27.5 45.5t30 54.5t26.5 50h48q10 -22 24.5 -50t30 -54.5t28.5 -45.5v-10h-5q-27 32 -53.5 63.5t-48.5 63.5q-24 -32 -50.5 -63.5t-53.5 -63.5h-4z" />
    <glyph glyph-name="ycircumflex" unicode="&#x177;" horiz-adv-x="434" 
d="M34 -237v10q53 0 87.5 16.5t59.5 59.5t48 124l-164 493q-9 27 -15 39.5t-15 16.5t-27 4h-3v10h173v-10h-5q-34 0 -45 -5t-11 -18q0 -9 5.5 -26.5t12.5 -40.5l65 -208q16 -50 24.5 -77.5t14.5 -48t14 -49.5q7 28 18 70.5t23 85.5l63 229q6 25 9.5 41t3.5 24q0 11 -8 17
t-40 6h-22v10h135v-10h-5q-18 0 -27.5 -5.5t-16 -22.5t-16.5 -51l-131 -477q-22 -82 -48 -126.5t-62 -62.5t-87 -18h-8zM115 606v10q12 19 27.5 45.5t30 54.5t26.5 50h48q10 -22 24.5 -50t30 -54.5t28.5 -45.5v-10h-5q-27 32 -53.5 63.5t-48.5 63.5q-24 -32 -50.5 -63.5
t-53.5 -63.5h-4z" />
    <glyph glyph-name="Ydieresis" unicode="&#x178;" horiz-adv-x="469" 
d="M121 0v10h28q24 0 36 6t16 23.5t4 53.5v249l-148 317q-14 30 -25.5 37.5t-30.5 7.5h-6v10h192v-10h-25q-28 0 -36.5 -5t-8.5 -15q0 -8 4.5 -20t13.5 -31l71 -160q14 -31 26.5 -58t27.5 -61q7 15 18 40t23 51l84 190q10 23 12.5 32t2.5 17q0 10 -7 15t-33 5h-52v10h164
v-10h-8q-24 0 -33 -7t-23 -36l-142 -314v-254q0 -36 3.5 -53.5t15 -23.5t35.5 -6h29v-10h-228zM305 817q-14 0 -21.5 10t-7.5 34q0 45 29 45t29 -45q0 -24 -7.5 -34t-21.5 -10zM160 817q-12 0 -19.5 10t-7.5 34t7.5 34.5t19.5 10.5q13 0 21.5 -10.5t8.5 -34.5t-8.5 -34
t-21.5 -10z" />
    <glyph glyph-name="Zacute" unicode="&#x179;" horiz-adv-x="441" 
d="M25 0v19l310 681h-198q-51 0 -67 -18.5t-17 -67.5l-2 -54h-10l5 154h352v-18l-310 -682h225q48 0 64.5 18t18.5 67l2 56h10l-1 -155h-382zM198 771v10q22 41 39.5 78.5t31.5 71.5h58v-10q-12 -18 -33.5 -44.5t-45.5 -55t-44 -50.5h-6z" />
    <glyph glyph-name="zacute" unicode="&#x17a;" horiz-adv-x="393" 
d="M38 0v19l242 503h-139q-47 0 -63 -17.5t-20 -65.5l-2 -30h-10l9 127h284v-19l-242 -503h152q47 0 64 17t19 67l2 50h10l-6 -148h-300zM172 606v10q22 41 39.5 78.5t31.5 71.5h58v-10q-12 -18 -33.5 -44.5t-45.5 -55t-44 -50.5h-6z" />
    <glyph glyph-name="Zdotaccent" unicode="&#x17b;" horiz-adv-x="441" 
d="M25 0v19l310 681h-198q-51 0 -67 -18.5t-17 -67.5l-2 -54h-10l5 154h352v-18l-310 -682h225q48 0 64.5 18t18.5 67l2 56h10l-1 -155h-382zM233 815q-34 0 -34 48t34 48q35 0 35 -48t-35 -48z" />
    <glyph glyph-name="zdotaccent" unicode="&#x17c;" horiz-adv-x="393" 
d="M38 0v19l242 503h-139q-47 0 -63 -17.5t-20 -65.5l-2 -30h-10l9 127h284v-19l-242 -503h152q47 0 64 17t19 67l2 50h10l-6 -148h-300zM203 650q-34 0 -34 48t34 48q35 0 35 -48t-35 -48z" />
    <glyph glyph-name="Zcaron" unicode="&#x17d;" horiz-adv-x="441" 
d="M25 0v19l310 681h-198q-51 0 -67 -18.5t-17 -67.5l-2 -54h-10l5 154h352v-18l-310 -682h225q48 0 64.5 18t18.5 67l2 56h10l-1 -155h-382zM204 771q-12 22 -26.5 50t-30 54.5t-27.5 45.5v10h4q27 -32 53.5 -63.5t50.5 -63.5q22 32 48.5 63.5t53.5 63.5h5v-10
q-13 -19 -28.5 -45.5t-30 -54.5t-24.5 -50h-48z" />
    <glyph glyph-name="zcaron" unicode="&#x17e;" horiz-adv-x="393" 
d="M38 0v19l242 503h-139q-47 0 -63 -17.5t-20 -65.5l-2 -30h-10l9 127h284v-19l-242 -503h152q47 0 64 17t19 67l2 50h10l-6 -148h-300zM182 606q-12 22 -26.5 50t-30 54.5t-27.5 45.5v10h4q27 -32 53.5 -63.5t50.5 -63.5q22 32 48.5 63.5t53.5 63.5h5v-10
q-13 -19 -28.5 -45.5t-30 -54.5t-24.5 -50h-48z" />
    <glyph glyph-name="longs" unicode="&#x17f;" horiz-adv-x="266" 
d="M13 0v10h18q35 0 45.5 14t10.5 66v503q0 89 35 133.5t101 44.5q51 0 74.5 -20t23.5 -53q0 -28 -14.5 -37.5t-30.5 -9.5q0 59 -9 84.5t-41 25.5q-45 0 -62.5 -40t-17.5 -112v-519q0 -52 10.5 -66t44.5 -14h40v-10h-228z" />
    <glyph glyph-name="uni0180" unicode="&#x180;" horiz-adv-x="468" 
d="M275 -10q-54 0 -84.5 32.5t-44.5 96.5h-2v-119h-130v10h8q40 0 52 12.5t12 57.5v539h-71v10h71v46q0 35 -5.5 50.5t-19.5 20t-40 4.5h-7v10h131v-131h137v-10h-137v-58v-64.5t-1 -89.5h2q12 65 43.5 98.5t85.5 33.5q73 0 111 -64.5t38 -210.5q0 -103 -18.5 -163
t-52 -85.5t-78.5 -25.5zM263 3q32 0 54.5 24t34.5 81.5t12 156.5q0 139 -23.5 199.5t-77.5 60.5q-59 0 -88.5 -62.5t-29.5 -198.5q0 -140 30.5 -200.5t87.5 -60.5z" />
    <glyph glyph-name="uni0181" unicode="&#x181;" horiz-adv-x="557" 
d="M85 0v10h23q33 0 42 15t9 68v514q0 59 -10 78t-38 19q-29 0 -45 -20t-15 -56q1 -20 8.5 -33.5t16.5 -20.5q-8 -11 -26 -11t-30 15t-12 43q0 39 26.5 66t79.5 27h176q97 0 145 -42t48 -130q0 -76 -35 -114.5t-92 -48.5v-2q71 -9 110 -51t39 -135q0 -96 -47.5 -143.5
t-145.5 -47.5h-227zM219 380h68q77 0 105.5 45t28.5 118q0 82 -29.5 121.5t-100.5 39.5h-72v-324zM219 10h89q75 0 105 42.5t30 137.5q0 88 -28.5 134t-105.5 46h-90v-360z" />
    <glyph glyph-name="uni0182" unicode="&#x182;" horiz-adv-x="464" 
d="M32 0v10h22q34 0 43 15t9 68v529q0 36 -3.5 53.5t-14.5 23t-33 5.5h-23v10h360l4 -162h-10l-2 63q-4 52 -19 70.5t-65 18.5h-133v-314h60q109 0 156 -47t47 -147q0 -92 -45.5 -144t-152.5 -52h-200zM167 10h62q79 0 108.5 47.5t29.5 138.5q0 102 -34.5 143t-116.5 41h-49
v-370z" />
    <glyph glyph-name="uni0183" unicode="&#x183;" horiz-adv-x="468" 
d="M275 -10q-54 0 -84.5 32.5t-44.5 96.5h-2v-119h-130v10h8q40 0 52 12.5t12 57.5v595q0 35 -5.5 50.5t-19.5 20t-40 4.5h-7v10h366l1 -147h-9l-1 39q-1 43 -7 64t-20.5 27.5t-42.5 6.5h-156v-182v-65.5t-1 -89.5h2q24 132 129 132q73 0 111 -65t38 -213q0 -103 -18.5 -164
t-52 -87t-78.5 -26zM263 3q32 0 54.5 25t34.5 83t12 157q0 142 -23.5 202.5t-77.5 60.5q-59 0 -88.5 -62.5t-29.5 -201.5t30.5 -201.5t87.5 -62.5z" />
    <glyph glyph-name="uni0184" unicode="&#x184;" horiz-adv-x="441" 
d="M237 -10q-80 0 -116 49.5t-36 147.5v436q0 35 -4 52.5t-15.5 23t-33.5 5.5h-21v10h224v-10h-36q-23 0 -34 -6t-15 -23.5t-4 -53.5v-231h51q209 0 209 -206q0 -88 -42.5 -141t-126.5 -53zM241 0q50 0 76 43.5t26 139.5q0 103 -36 150t-120 47h-41v-199q0 -101 23.5 -141
t71.5 -40z" />
    <glyph glyph-name="uni0185" unicode="&#x185;" horiz-adv-x="455" 
d="M240 -10q-92 0 -130.5 69t-38.5 208v408q0 35 -5 50.5t-19 20t-40 4.5h-5v10h129v-192v-65.5t-1 -87.5h1q13 64 44.5 97t84.5 33q74 0 111.5 -65t37.5 -213q0 -101 -20.5 -162t-58.5 -88t-90 -27zM240 0q36 0 60.5 24.5t36.5 83t12 160.5q0 142 -23.5 202.5t-77.5 60.5
q-58 0 -88 -62.5t-30 -201.5q0 -140 25 -203.5t85 -63.5z" />
    <glyph glyph-name="uni0186" unicode="&#x186;" horiz-adv-x="456" 
d="M186 -10q-50 0 -83 17.5t-49.5 42t-16.5 45.5q0 17 9 28t33 14q8 -69 33.5 -103t77.5 -34q84 0 121.5 95t37.5 272q0 107 -14.5 185t-48.5 120t-94 42q-59 0 -84 -40t-25 -123q-26 0 -36 14.5t-10 36.5q0 32 19 60t53.5 45t82.5 17q78 0 126.5 -44.5t71 -125t22.5 -187.5
q0 -117 -25.5 -201.5t-76 -130t-124.5 -45.5z" />
    <glyph glyph-name="uni0187" unicode="&#x187;" horiz-adv-x="466" 
d="M279 -10q-78 0 -130.5 46t-78.5 128.5t-26 193.5q0 112 27.5 194t81 127t129.5 45q49 0 86 -14.5t60 -50.5v93q0 50 15 72t47 22q25 0 39 -12.5t14 -35.5q0 -20 -11 -24q-7 31 -43 31q-27 0 -39 -13t-12 -44v-138q0 -26 -11.5 -41t-34.5 -15q0 82 -25 121t-87 39
q-88 0 -130.5 -94.5t-42.5 -261.5t42 -262t140 -95q58 0 88 33.5t37 93.5q13 -4 17.5 -13.5t4.5 -18.5q0 -22 -17 -46.5t-51.5 -42t-88.5 -17.5z" />
    <glyph glyph-name="uni0188" unicode="&#x188;" horiz-adv-x="374" 
d="M215 -10q-49 0 -87.5 25t-60.5 85t-22 164q0 108 21 169t58.5 86t89.5 25q38 0 68 -12.5t51 -43.5v174q0 50 14.5 72t46.5 22q25 0 39 -13t14 -35q0 -21 -11 -25q-6 31 -43 31q-27 0 -38.5 -13t-11.5 -43v-220q0 -20 -11.5 -32.5t-39.5 -12.5q0 78 -18 109.5t-61 31.5
q-34 0 -58 -22.5t-37 -81t-13 -165.5q0 -97 13.5 -155t39.5 -83.5t66 -25.5q46 0 71 32t30 87q20 -3 20 -33q0 -19 -14 -42t-42.5 -39t-73.5 -16z" />
    <glyph glyph-name="uni0189" unicode="&#x189;" horiz-adv-x="555" 
d="M32 0v10h19q23 0 35 5.5t16 23t4 53.5v277h-76v10h76v247q0 34 -4 50.5t-16 22t-35 5.5h-19v10h220q126 0 192.5 -95.5t66.5 -268.5q0 -164 -63.5 -257t-196.5 -93h-219zM167 10h80q102 0 151 81t49 260q0 173 -49 263t-150 90h-81v-325h146v-10h-146v-359z" />
    <glyph glyph-name="uni018A" unicode="&#x18a;" horiz-adv-x="608" 
d="M84 0v10h20q23 0 35 5.5t16 23t4 53.5v519q0 56 -10 74.5t-38 18.5q-60 0 -60 -74q0 -38 24 -57q-10 -10 -25 -10q-20 0 -31 15.5t-11 42.5q0 39 26.5 66t79.5 27h190q127 0 193 -95.5t66 -268.5q0 -164 -63 -257t-196 -93h-220zM219 10h80q102 0 151.5 81t49.5 260
q0 173 -49.5 263t-150.5 90h-81v-694z" />
    <glyph glyph-name="uni018B" unicode="&#x18b;" horiz-adv-x="457" 
d="M221 0q-107 0 -151 52t-44 143q0 99 47 147t156 48h59v314l-141 -1q-45 0 -59 -16.5t-16 -64.5l-3 -70h-10l5 161l360 1v-10h-23q-22 0 -33 -5.5t-15 -23t-4 -53.5v-529q0 -53 9.5 -68t43.5 -15h22v-10h-203zM226 10h62v370h-48q-82 0 -116.5 -41.5t-34.5 -143.5
q0 -90 29 -137.5t108 -47.5z" />
    <glyph glyph-name="uni018C" unicode="&#x18c;" horiz-adv-x="468" 
d="M199 -10q-48 0 -82.5 27t-53 87.5t-18.5 162.5q0 103 19.5 163.5t54.5 87.5t82 27q51 0 80.5 -30t41.5 -93h2q-1 46 -1.5 75.5t-0.5 56.5v196h-155q-28 0 -42.5 -6.5t-20 -27t-6.5 -62.5l-1 -41h-10l1 147h294v-681q0 -45 12 -57t50 -12h9v-10h-131v114h-2
q-13 -63 -42.5 -93.5t-79.5 -30.5zM212 3q112 0 112 262q0 132 -23.5 199t-84.5 67q-35 0 -60 -25t-38 -83t-13 -158q0 -97 12 -154t36 -82.5t59 -25.5z" />
    <glyph glyph-name="uni018D" unicode="&#x18d;" horiz-adv-x="439" 
d="M216 546q82 0 130 -59t48 -165q0 -102 -43 -164t-116 -90q43 -35 72 -71.5t29 -93.5q0 -63 -39.5 -97.5t-95.5 -34.5q-41 0 -69 16t-41.5 41.5t-13.5 52.5q0 25 12.5 39t34.5 14q0 -77 15 -115t62 -38q40 0 63 27t23 82q0 35 -13 59t-36.5 45.5t-57.5 49.5
q-45 37 -75.5 74t-46.5 83.5t-16 111.5q0 110 46 171.5t128 61.5zM217 536q-116 0 -116 -210q0 -62 13.5 -105t40.5 -77t69 -69q58 30 85.5 90.5t27.5 161.5t-30.5 155t-89.5 54z" />
    <glyph glyph-name="uni018E" unicode="&#x18e;" horiz-adv-x="476" 
d="M444 0v10h-19q-22 0 -34 5.5t-16.5 22.5t-4.5 53v530q0 37 4.5 54.5t16 23t34.5 5.5h19v10h-379l-5 -169h10l2 58q2 43 10 64.5t28 29t59 7.5h141v-325h-196v-10h196l1 -359h-170q-37 0 -56.5 6.5t-27 25t-9.5 54.5l-4 73h-10l5 -169h405z" />
    <glyph glyph-name="uni018F" unicode="&#x18f;" horiz-adv-x="529" 
d="M257 -10q-78 0 -125 46.5t-67.5 127t-20.5 181.5v11h377q-1 173 -45 265.5t-129 92.5q-117 0 -154 -123q-15 5 -15 28q0 21 21.5 45.5t61 42t92.5 17.5q74 0 125.5 -44.5t78 -125t26.5 -187.5q0 -181 -58.5 -279t-167.5 -98zM259 0q83 0 120 88t42 258h-314
q0 -101 13.5 -179t46.5 -122.5t92 -44.5z" />
    <glyph glyph-name="uni0190" unicode="&#x190;" horiz-adv-x="440" 
d="M246 -10q-86 0 -140.5 49t-54.5 146q0 61 20.5 99.5t55.5 59.5t78 28q-76 15 -111.5 58.5t-35.5 114.5q0 82 47 130.5t136 48.5q59 0 94.5 -20t50.5 -49t15 -56q0 -50 -52 -50q0 48 -7 85.5t-29.5 58.5t-70.5 21q-70 0 -98 -45.5t-28 -125.5q0 -77 34.5 -122.5
t96.5 -45.5h67v-10h-67q-66 0 -102 -47.5t-36 -131.5q0 -98 40.5 -142t102.5 -44q56 0 89 33t46 97q24 -8 24 -34q0 -20 -17.5 -44.5t-53.5 -43t-94 -18.5z" />
    <glyph glyph-name="uni0191" unicode="&#x191;" horiz-adv-x="450" 
d="M-7 -240v10h3q38 0 62.5 18t36 63t11.5 126v647q0 51 -9.5 65.5t-41.5 14.5h-23v10h379l5 -168h-10l-3 68q-2 53 -17 71.5t-64 18.5h-156v-348h193v-10h-193v-356q0 -86 -16.5 -136t-53 -72t-95.5 -22h-8z" />
    <glyph glyph-name="florin" unicode="&#x192;" horiz-adv-x="433" 
d="M136 -240q-25 0 -43 5v10q17 -4 32 -4q58 0 81.5 48.5t23.5 157.5v442h-102v10h102v131q0 77 35 120.5t104 43.5q61 0 91 -27t30 -59q0 -35 -41 -37q-1 50 -17.5 81.5t-61.5 31.5q-41 0 -62 -32t-21 -105v-148h133v-10h-133v-430q0 -89 -18 -139t-51.5 -70t-81.5 -20z
" />
    <glyph glyph-name="uni0193" unicode="&#x193;" horiz-adv-x="540" 
d="M307 -10q-135 0 -199 96.5t-64 271.5q0 182 70 274t197 92q53 0 90 -15t64 -50v93q0 50 14.5 72t46.5 22q54 0 54 -48q0 -20 -11 -24q-7 31 -43 31q-27 0 -39 -13t-12 -44v-138q0 -56 -46 -56q0 76 -25.5 118t-93.5 42q-101 0 -152 -86.5t-51 -269.5q0 -184 46 -271
t156 -87q31 0 58 5t44 16v220q0 33 -4.5 49t-17.5 21t-38 5h-12v10h188v-10h-5q-22 0 -32.5 -5.5t-14.5 -22t-4 -49.5v-208q-37 -21 -76 -31t-88 -10z" />
    <glyph glyph-name="uni0194" unicode="&#x194;" horiz-adv-x="518" 
d="M255 -240q-40 0 -61 32.5t-21 85.5q0 50 17.5 111t45.5 140l-171 527q-10 30 -21 39t-38 9h-6v10h201v-10h-18q-34 0 -44 -7t-10 -20q0 -14 5.5 -35.5t12.5 -44.5l127 -400l141 408q6 18 13 40.5t7 34.5q0 14 -12 19t-50 5h-29v10h174v-10h-21q-20 0 -29.5 -5t-16 -22
t-18.5 -51l-154 -446q22 -66 35.5 -110t21 -74t10 -52.5t2.5 -46.5q0 -61 -22.5 -99t-70.5 -38zM242 -227q53 0 53 102q0 35 -4.5 65t-16.5 69.5t-32 102.5q-30 -82 -44 -137t-14 -98q0 -48 16 -76t42 -28z" />
    <glyph glyph-name="uni0195" unicode="&#x195;" horiz-adv-x="699" 
d="M480 -9q-75 0 -111.5 46.5t-36.5 151.5v178q0 80 -19 118.5t-67 38.5t-74.5 -45t-26.5 -142v-254q0 -33 4.5 -48.5t17.5 -20t41 -4.5h5v-10h-199v10h7q29 0 42.5 5t18 20.5t4.5 48.5v593q0 47 -10.5 60t-46.5 13h-15v10h132v-254v-29.5t-2 -34.5h2q11 44 40.5 73t80.5 29
q59 0 91.5 -45t32.5 -137v-205q0 -90 21.5 -123t67.5 -33q54 0 72 38.5t18 121.5v280q0 38 -3.5 56t-17 23.5t-43.5 5.5h-3v10h127v-346q0 -94 -34 -146.5t-116 -52.5z" />
    <glyph glyph-name="uni0196" unicode="&#x196;" horiz-adv-x="277" 
d="M192 -10q-49 0 -67 29.5t-18 88.5v514q0 52 -9.5 67t-42.5 15h-24v10h212v-10h-24q-23 0 -34 -6t-14.5 -23.5t-3.5 -52.5v-526q0 -50 8 -72t35 -22q9 0 17.5 2.5t16.5 6.5v-11q-8 -3 -21 -6.5t-31 -3.5z" />
    <glyph glyph-name="uni0197" unicode="&#x197;" horiz-adv-x="277" 
d="M32 0v10h26q32 0 41 14.5t9 65.5v279h-98v10h98v244q0 52 -9 66.5t-41 14.5h-26v10h213v-10h-26q-22 0 -33 -6t-14.5 -23t-3.5 -52v-244h99v-10h-99v-279q0 -51 9 -65.5t42 -14.5h26v-10h-213z" />
    <glyph glyph-name="uni0198" unicode="&#x198;" horiz-adv-x="536" 
d="M32 0v10h19q24 0 35.5 6t15.5 23t4 52v532q0 35 -4 52t-15.5 23t-35.5 6h-19v10h212v-10h-22q-24 0 -35.5 -6t-15.5 -23.5t-4 -52.5v-331l208 324q31 49 55.5 77t58.5 28q25 0 39.5 -14.5t14.5 -38.5q0 -19 -8 -29t-18 -10q-3 51 -39 51q-20 0 -39.5 -16.5t-45.5 -55.5
l-118 -173l188 -321q28 -48 42.5 -69.5t23.5 -27.5t19 -6h3v-10h-20q-33 0 -53 7t-36 26t-37 57l-166 292l-72 -109v-178q0 -36 3.5 -54.5t15.5 -24.5t36 -6h29v-10h-219z" />
    <glyph glyph-name="uni0199" unicode="&#x199;" horiz-adv-x="442" 
d="M14 0v10h6q27 0 41.5 4.5t19.5 20t5 48.5v528q0 74 27 114t88 40q47 0 66 -20.5t19 -43.5q0 -16 -9.5 -28t-32.5 -12q0 45 -8 69.5t-34 24.5q-31 0 -43.5 -28.5t-12.5 -94.5v-269v-69t-1 -72l113 160q43 59 56.5 84.5t13.5 36.5q0 13 -15 18t-56 5v10h158v-10
q-16 0 -27.5 -4t-24.5 -16t-31 -37l-91 -128l116 -235q19 -38 30.5 -58.5t22 -29t28.5 -8.5h6v-10h-5q-38 0 -61.5 6t-41.5 26.5t-40 65.5l-91 192l-59 -83v-124q0 -33 5.5 -48.5t19 -20t36.5 -4.5h4v-10h-197z" />
    <glyph glyph-name="uni019A" unicode="&#x19a;" horiz-adv-x="230" 
d="M9 0v10h5q31 0 46 4.5t20 20t5 48.5v301h-75v10h75v282q0 34 -5.5 50t-19.5 20t-38 4h-13v10h136v-366h75v-10h-75v-301q0 -33 4.5 -48.5t19.5 -20t47 -4.5h5v-10h-212z" />
    <glyph glyph-name="uni019B" unicode="&#x19b;" horiz-adv-x="407" 
d="M8 0l208 508q-5 37 -11 66.5t-12 54.5l-93 -66v12l89 64q-13 45 -27 68t-30 31.5t-32 8.5q-29 0 -42.5 -19t-15.5 -51q-9 3 -12.5 11.5t-3.5 18.5q0 23 15 43t55 20q36 0 62 -25t47 -95l92 66v-13l-89 -64q4 -15 8 -32t8 -36l82 -416q16 -80 38 -108.5t56 -28.5h5v-18h-3
q-49 0 -71 31.5t-39 99.5q-2 9 -7 35t-12 61t-13.5 72.5t-12.5 70t-10 53.5h-2q-11 -31 -23 -64t-23 -60l-119 -299h-62z" />
    <glyph glyph-name="uni019C" unicode="&#x19c;" horiz-adv-x="794" 
d="M228 -10q-74 0 -108.5 53.5t-34.5 154.5v425q0 35 -3.5 52t-15 23t-34.5 6h-22v10h210v-10h-24q-23 0 -34.5 -6t-15 -24t-3.5 -53v-432q0 -91 24.5 -136t76.5 -45q111 0 111 206v409q0 35 -4 52t-15.5 23t-34.5 6h-24v10h207v-10h-18q-23 0 -34.5 -6t-15 -24t-3.5 -53
v-438q0 -175 95 -175q56 0 86 56.5t30 150.5v406q0 35 -3.5 53t-15 24t-34.5 6h-23v10h208v-10h-20q-23 0 -34.5 -6t-15 -24t-3.5 -53v-528q0 -36 3.5 -53.5t14.5 -23.5t34 -6h20v-10h-130v114h-2q-14 -55 -44.5 -89.5t-85.5 -34.5q-30 0 -57.5 11.5t-47.5 40t-28 79.5
q-8 -33 -22 -63t-40 -49t-70 -19z" />
    <glyph glyph-name="uni019D" unicode="&#x19d;" horiz-adv-x="580" 
d="M-8 -240v10h4q37 0 62.5 18.5t39 65t13.5 129.5v640q0 35 -3.5 52t-15 23t-34.5 6h-26v10h131l308 -648v557q0 35 -3.5 52t-14.5 23t-34 6h-37v10h181v-10h-30q-23 0 -34 -6t-14.5 -23.5t-3.5 -52.5v-622h-40l-320 671v-698q0 -113 -27 -163t-99 -50h-3z" />
    <glyph glyph-name="uni019E" unicode="&#x19e;" horiz-adv-x="495" 
d="M277 -240v10h7q28 0 42 5t18.5 20.5t4.5 48.5v523q0 77 -19.5 117t-66.5 40q-45 0 -76 -43t-31 -144v-254q0 -33 4 -48.5t17 -20t41 -4.5h6v-10h-200v10h7q29 0 42.5 5t18 20.5t4.5 48.5v370q0 32 -4.5 47.5t-18 20t-41.5 4.5h-5v10h128v-99h2q13 48 42.5 77.5t79.5 29.5
q67 0 98 -44t31 -139v-518q0 -33 4.5 -48.5t18 -20t41.5 -4.5h4v-10h-199z" />
    <glyph glyph-name="uni019F" unicode="&#x19f;" horiz-adv-x="567" 
d="M283 -10q-81 0 -134 46t-79 129t-26 194q0 175 59.5 270.5t180.5 95.5q238 0 238 -367q0 -172 -62.5 -270t-176.5 -98zM107 379h352q-4 170 -43 253t-132 83q-90 0 -132 -83t-45 -253zM283 0q89 0 132.5 91t43.5 278h-352q0 -369 176 -369z" />
    <glyph glyph-name="Ohorn" unicode="&#x1a0;" horiz-adv-x="595" 
d="M283 -10q-81 0 -134 46t-79 129t-26 194q0 175 59.5 270.5t180.5 95.5q156 0 209 -157q27 12 43.5 33t16.5 51q0 18 -6 27t-14 14t-14 12.5t-6 22.5q0 20 10 31t26 11q19 0 30.5 -16t11.5 -51q0 -55 -27 -91t-68 -53q26 -81 26 -201q0 -172 -62.5 -270t-176.5 -98zM283 0
q176 0 176 358q0 182 -39 269.5t-136 87.5q-94 0 -135.5 -87.5t-41.5 -269.5q0 -176 43.5 -267t132.5 -91z" />
    <glyph glyph-name="ohorn" unicode="&#x1a1;" horiz-adv-x="465" 
d="M219 -10q-83 0 -128.5 68t-45.5 210q0 139 43 207.5t133 68.5q115 0 152 -118q29 12 45.5 33t16.5 51q0 18 -6 27t-14 14t-14 12.5t-6 22.5q0 20 10.5 31t26.5 11q18 0 30 -16t12 -51q0 -55 -27.5 -91t-70.5 -53q18 -59 18 -149q0 -145 -44.5 -211.5t-130.5 -66.5zM220 0
q64 0 89 63.5t25 204.5q0 142 -25 204t-90 62q-63 0 -88.5 -62t-25.5 -204t27.5 -205t87.5 -63z" />
    <glyph glyph-name="uni01A2" unicode="&#x1a2;" horiz-adv-x="837" 
d="M616 -240v10h19q23 0 35 6t15.5 24t3.5 53v700q0 73 -18.5 116t-68.5 43q-52 0 -80 -52t-28 -167v-135q0 -111 -23.5 -193.5t-72.5 -128.5t-125 -46q-77 0 -128 46t-76 129t-25 194q0 110 23.5 192.5t74.5 128t133 45.5q78 0 123.5 -43.5t68.5 -115.5q11 68 46 113t97 45
q140 0 140 -190v-680q0 -36 3.5 -54t15 -24t34.5 -6h22v-10h-209zM273 0q84 0 123.5 87t39.5 262v70q0 296 -160 296q-92 0 -130.5 -91t-38.5 -266q0 -176 41.5 -267t124.5 -91z" />
    <glyph glyph-name="uni01A3" unicode="&#x1a3;" horiz-adv-x="643" 
d="M502 -240v647q0 60 -13 91.5t-42 31.5q-37 0 -51.5 -43t-14.5 -115v-110q0 -142 -44 -207t-124 -65q-79 0 -123.5 66.5t-44.5 211.5q0 146 43 211t128 65q104 0 142 -108h2q8 48 31.5 78t69.5 30q49 0 75 -37t26 -114v-549q0 -33 4 -49t17 -21t41 -5h3v-9h-125zM213 0
q37 0 61 25.5t35.5 84t11.5 158.5q0 146 -25 206t-83 60q-39 0 -62.5 -26t-34.5 -84t-11 -156q0 -145 26.5 -206.5t81.5 -61.5z" />
    <glyph glyph-name="uni01A4" unicode="&#x1a4;" horiz-adv-x="515" 
d="M86 0v10h20q24 0 35 6t14.5 23.5t3.5 53.5v522q0 52 -9.5 70.5t-36.5 18.5q-30 0 -46.5 -19.5t-14.5 -56.5q1 -21 7 -33.5t17 -20.5q-5 -5 -10.5 -8t-14.5 -3q-18 0 -30.5 15t-12.5 43q0 39 27 66t79 27h176q100 0 147 -51.5t47 -155.5q0 -57 -19 -109t-64 -84.5
t-123 -32.5h-58v-190q0 -35 3.5 -52t15 -23t33.5 -6h36v-10h-222zM220 291h59q56 0 87 29t43.5 78.5t12.5 108.5q0 105 -30.5 151t-104.5 46h-67v-413z" />
    <glyph glyph-name="uni01A5" unicode="&#x1a5;" horiz-adv-x="470" 
d="M15 -237v10h5q28 0 42.5 5t19 21.5t4.5 50.5v756q0 78 26.5 118.5t86.5 40.5q50 0 68.5 -20.5t18.5 -43.5q0 -17 -9.5 -28.5t-32.5 -11.5q0 46 -8 70t-36 24q-29 0 -41.5 -28t-12.5 -99v-92q0 -31 -0.5 -61t-0.5 -61h2q14 66 43.5 99.5t81.5 33.5q75 0 114 -63.5
t39 -206.5q0 -149 -40.5 -218t-110.5 -69q-54 0 -84 32.5t-43 96.5h-2q1 -37 1 -70.5v-69.5v-129q0 -34 4.5 -50.5t18 -21.5t41.5 -5h14v-10h-209zM263 3q55 0 78.5 69t23.5 204q0 137 -25.5 197t-80.5 60q-56 0 -84.5 -66.5t-28.5 -193.5t25.5 -198.5t91.5 -71.5z" />
    <glyph glyph-name="uni01A6" unicode="&#x1a6;" horiz-adv-x="497" 
d="M491 -120q-55 0 -83.5 19.5t-51.5 70.5l-109 238h-78v-117q0 -36 4 -53t15 -22.5t33 -5.5h18v-10h-207v10h22q22 0 33.5 5.5t16 22.5t4.5 53v532q0 52 -9 66.5t-41 14.5h-26v10h213v-10h-25q-22 0 -33 -6t-14.5 -23t-3.5 -52v-38h59q108 0 152.5 -46.5t44.5 -134.5
q0 -58 -16 -95.5t-43.5 -59t-60.5 -33.5l106 -222q25 -54 45 -79t46 -25h1v-10h-12zM169 218h53q139 0 139 188q0 86 -30 127.5t-108 41.5h-54v-357z" />
    <glyph glyph-name="uni01A7" unicode="&#x1a7;" horiz-adv-x="410" 
d="M211 -10q-83 0 -126.5 49.5t-43.5 134.5q0 61 19.5 99.5t52.5 64.5t74 52q43 27 70 50t40.5 52.5t13.5 74.5q0 69 -27 108t-78 39q-101 0 -101 -155q-48 0 -48 49q0 28 16.5 55t48 44t77.5 17q75 0 116.5 -47t41.5 -120q0 -56 -16.5 -95t-47 -67.5t-71.5 -53.5
q-46 -28 -75.5 -51.5t-44.5 -54.5t-15 -80q0 -79 34.5 -116.5t93.5 -37.5t88 33.5t41 95.5q16 -4 21 -14.5t5 -20.5q0 -23 -18 -47t-53.5 -41t-87.5 -17z" />
    <glyph glyph-name="uni01A8" unicode="&#x1a8;" horiz-adv-x="341" 
d="M177 -10q-63 0 -99.5 36.5t-36.5 100.5q0 54 25.5 92.5t88.5 77.5q49 31 73 61t24 70q0 50 -19 77.5t-61 27.5q-43 0 -61.5 -32t-18.5 -100q-22 0 -32 12.5t-10 33.5q0 46 32.5 71t86.5 25q60 0 94 -34t34 -95q0 -54 -27.5 -89t-91.5 -76q-56 -35 -74.5 -65t-18.5 -69
q0 -60 25 -87.5t68 -27.5q48 0 71.5 32.5t31.5 88.5q12 -3 16.5 -13.5t4.5 -22.5q0 -21 -13.5 -43t-41 -37t-70.5 -15z" />
    <glyph glyph-name="uni01A9" unicode="&#x1a9;" horiz-adv-x="470" 
d="M19 0v27l204 310l-187 356v21h378l4 -169h-10l-3 61q-3 44 -10 65t-24.5 27t-49.5 6h-225l166 -323v-12l-212 -318h286q36 0 54.5 6t26 25.5t9.5 62.5l2 41h10l-5 -186h-414z" />
    <glyph glyph-name="uni01AA" unicode="&#x1aa;" horiz-adv-x="254" 
d="M195 -240q-59 0 -83.5 35.5t-24.5 113.5v674q-7 -19 -21 -32.5t-37 -13.5q-35 0 -54.5 29.5t-19.5 79.5q0 53 25 83.5t71 30.5q47 0 71.5 -34.5t24.5 -99.5v-735q0 -69 14.5 -94t49.5 -25q21 0 46 9v-10q-16 -7 -31.5 -9t-30.5 -2zM29 547q28 0 43 27t15 76q0 44 -15 70
t-43 26q-29 0 -46 -27t-17 -73t17 -72.5t46 -26.5z" />
    <glyph glyph-name="uni01AB" unicode="&#x1ab;" horiz-adv-x="262" 
d="M180 -10q-54 0 -79.5 33t-25.5 120v383h-60v10q29 1 47.5 7.5t29.5 16.5q17 16 23.5 41t9.5 57h10v-122h101v-10h-101v-406q0 -68 15.5 -92t46.5 -24q11 0 21.5 1t25.5 5v-10q-13 -4 -29.5 -7t-34.5 -3zM177 -201q-29 0 -45 13.5t-16 37.5q0 25 14 30q6 -39 50 -39
q29 0 41.5 16.5t12.5 53.5v95h10v-102q0 -54 -15 -79.5t-52 -25.5z" />
    <glyph glyph-name="uni01AC" unicode="&#x1ac;" horiz-adv-x="483" 
d="M130 0v10h32q24 0 36 6t15.5 23.5t3.5 53.5v611h-89q-38 0 -56.5 -24t-18.5 -61q0 -25 7 -41t17 -24q-5 -4 -10 -7t-13 -3q-20 0 -33 18t-13 47q0 41 29 73t90 32h332l5 -162h-10l-2 64q-3 52 -18 70t-64 18h-92v-612q0 -35 4 -52.5t16 -23.5t35 -6h32v-10h-235z" />
    <glyph glyph-name="uni01AD" unicode="&#x1ad;" horiz-adv-x="262" 
d="M184 -10q-57 0 -83 33t-26 120v383h-60v10q62 0 85.5 23.5t25.5 82.5q2 54 14 86t49 32q25 0 35.5 -12.5t10.5 -28.5q0 -25 -19 -28q-6 32 -37 32q-24 0 -34 -20.5t-10 -72.5v-94h101v-10h-101v-405q0 -69 15.5 -93.5t46.5 -24.5q19 0 47 7v-10q-12 -3 -28 -6.5t-32 -3.5
z" />
    <glyph glyph-name="uni01AE" unicode="&#x1ae;" horiz-adv-x="468" 
d="M294 -240q-47 0 -69.5 30t-22.5 95v819h-88q-50 0 -65.5 -18t-18.5 -68l-2 -65h-10l5 161h421l5 -161h-10l-2 65q-3 50 -19 68t-65 18h-90v-854q0 -44 10.5 -61t33.5 -17q15 0 27.5 4.5t21.5 8.5v-10q-10 -6 -25.5 -10.5t-36.5 -4.5z" />
    <glyph glyph-name="Uhorn" unicode="&#x1af;" horiz-adv-x="582" 
d="M276 -10q-86 0 -138.5 52t-52.5 173v410q0 35 -4.5 51.5t-16.5 22t-34 5.5h-19v10h213v-10h-23q-22 0 -34 -5.5t-16.5 -23t-4.5 -53.5v-425q0 -105 38 -148t102 -43q60 0 94.5 25.5t48.5 70t14 103.5v419q0 35 -4.5 52t-16.5 22.5t-35 5.5h-39v10h105v-151q85 21 85 89
q0 18 -6 27t-14 14t-14 12.5t-6 22.5q0 20 10.5 31t26.5 11q18 0 30 -16t12 -51q0 -61 -34.5 -99t-89.5 -51v-350q0 -101 -41.5 -157t-135.5 -56z" />
    <glyph glyph-name="uhorn" unicode="&#x1b0;" horiz-adv-x="504" 
d="M213 -10q-61 0 -95 45t-34 149v270q0 32 -4.5 47.5t-18.5 20t-43 4.5h-3v10h128v-367q0 -83 21 -121t67 -38q54 0 80.5 52.5t26.5 137.5v242q0 38 -3.5 56t-17 23t-44.5 5h-2v10h127v-113q76 24 76 87q0 18 -6 27t-13.5 14t-13.5 12.5t-6 22.5q0 20 10.5 31t25.5 11
q18 0 30 -16t12 -51q0 -59 -32 -96.5t-83 -51.5v-326q0 -35 4 -51.5t18 -21t44 -4.5h3v-10h-128v103h-2q-13 -54 -44.5 -83.5t-79.5 -29.5z" />
    <glyph glyph-name="uni01B1" unicode="&#x1b1;" horiz-adv-x="572" 
d="M534 714l5 -150h-10l-3 41q-3 38 -14.5 50t-49.5 12h-141l4 -104q105 -23 152.5 -96.5t47.5 -182.5q0 -135 -60.5 -215t-182.5 -80q-234 0 -234 295q0 114 48 185.5t151 94.5l4 104h-142q-38 0 -49.5 -11.5t-14.5 -50.5l-3 -41h-10l6 149h225l-6 -157q-80 -23 -112 -92.5
t-32 -184.5q0 -142 37.5 -211.5t131.5 -69.5q95 0 136.5 74.5t41.5 206.5q0 115 -32 184t-113 91l-5 159h224z" />
    <glyph glyph-name="uni01B2" unicode="&#x1b2;" horiz-adv-x="530" 
d="M222 -10q-70 0 -103.5 49t-33.5 150v435q0 35 -4.5 52t-16.5 22.5t-34 5.5h-19v10h213v-10h-25q-21 0 -32.5 -5.5t-16 -23t-4.5 -54.5v-449q0 -91 23 -128.5t66 -37.5q51 0 93 36t72 102t46 156t16 197q0 79 -11 119.5t-33 55t-53 14.5q0 40 40 40q22 0 42.5 -16.5
t33.5 -62t13 -131.5q0 -99 -18.5 -193t-53.5 -169t-85.5 -119.5t-114.5 -44.5z" />
    <glyph glyph-name="uni01B3" unicode="&#x1b3;" horiz-adv-x="493" 
d="M121 0v10h28q24 0 36 6t16 23.5t4 53.5v249l-148 317q-14 30 -25.5 37.5t-30.5 7.5h-6v10h192v-10h-25q-28 0 -36.5 -5t-8.5 -15q0 -8 4.5 -20t13.5 -31l71 -160q14 -31 26.5 -58t27.5 -61q7 15 17.5 39.5t21.5 51.5l72 176q21 53 39.5 76.5t47.5 23.5q27 0 40.5 -16.5
t13.5 -38.5q0 -20 -9 -29.5t-22 -11.5q-1 23 -9 37.5t-27 14.5q-22 0 -37.5 -21.5t-40.5 -77.5l-101 -231v-254q0 -36 3.5 -53.5t15 -23.5t35.5 -6h29v-10h-228z" />
    <glyph glyph-name="uni01B4" unicode="&#x1b4;" horiz-adv-x="478" 
d="M33 -240v10q55 0 91 21t59 65.5t43 115.5l-162 494q-9 28 -15 40.5t-15 16t-27 3.5h-2v10h173v-10h-6q-34 0 -45 -5t-11 -18q0 -9 5 -25.5t12 -40.5l65 -207q16 -51 26 -84t16 -55t11 -40q7 29 18 71t23 85l69 250q13 47 28 69t41 22q20 0 33 -12t13 -34q0 -16 -7 -25
t-15 -11q-3 36 -30 36q-23 0 -38.5 -25.5t-33.5 -91.5l-113 -409q-23 -84 -48.5 -131t-62 -66t-94.5 -19h-1z" />
    <glyph glyph-name="uni01B5" unicode="&#x1b5;" horiz-adv-x="441" 
d="M25 0v19l159 350h-118v10h122l147 321h-197q-50 0 -66.5 -18t-18.5 -68l-2 -54h-10l5 154h352v-18l-144 -317h120v-10h-124l-162 -355h224q49 0 64 18t18 67l4 56h10l-5 -155h-378z" />
    <glyph glyph-name="uni01B6" unicode="&#x1b6;" horiz-adv-x="393" 
d="M38 0v19l121 251h-97v10h101l117 242h-139q-47 0 -63 -17.5t-20 -65.5l-2 -30h-10l9 127h284v-19l-114 -237h93v-10h-98l-123 -256h152q48 0 64 17.5t19 66.5l2 50h10l-5 -148h-301z" />
    <glyph glyph-name="uni01B7" unicode="&#x1b7;" horiz-adv-x="453" 
d="M205 -10q-61 0 -98.5 18.5t-54 46t-16.5 55.5q0 54 40 54q0 -46 12 -83t40 -59t75 -22q41 0 73.5 17.5t50.5 59t18 114.5q0 87 -37.5 131.5t-127.5 44.5h-33v21l211 278h-214q-40 0 -51.5 -12.5t-13.5 -52.5l-2 -24h-9l4 137h313v-31l-225 -294q135 0 189 -48.5
t54 -146.5q0 -72 -26 -117t-71 -66t-101 -21z" />
    <glyph glyph-name="uni01B8" unicode="&#x1b8;" horiz-adv-x="455" 
d="M248 -10q-86 0 -141.5 48t-55.5 148t57.5 149t180.5 49l-218 306v24h314l4 -134h-10l-1 21q-3 42 -15 55t-52 13h-210l201 -286v-9h-26q-87 0 -127 -49t-40 -140q0 -70 18 -110t49.5 -57.5t73.5 -17.5q52 0 80.5 29t44.5 94q18 -2 27 -13t9 -25q0 -21 -19 -43t-55.5 -37
t-88.5 -15z" />
    <glyph glyph-name="uni01B9" unicode="&#x1b9;" horiz-adv-x="403" 
d="M223 -240q-86 0 -137.5 57.5t-51.5 165.5q0 113 52.5 169.5t164.5 56.5l-199 302v25h289l9 -131h-10l-1 15q-4 42 -16.5 56.5t-54.5 14.5h-188l182 -280v-12h-15q-79 0 -116 -55t-37 -162q0 -111 35.5 -161.5t95.5 -50.5q49 0 74.5 31.5t32.5 89.5q18 -1 26.5 -11
t8.5 -24q0 -21 -16.5 -43.5t-48.5 -37.5t-79 -15z" />
    <glyph glyph-name="uni01BA" unicode="&#x1ba;" horiz-adv-x="377" 
d="M178 -240q-36 0 -69 9.5t-53.5 33t-20.5 65.5q0 40 21 62t51.5 32.5t59.5 17.5q43 12 69 29t38.5 47t12.5 81q0 66 -32.5 103t-102.5 37h-12v10l166 204h-181q-39 0 -50 -11.5t-13 -51.5l-1 -20h-10l4 128h276v-35l-178 -214q99 0 145.5 -38t46.5 -110q0 -60 -24 -92.5
t-62.5 -48.5t-80.5 -27q-24 -7 -46.5 -16t-37 -29t-14.5 -59q0 -51 26 -74t74 -23q50 0 82.5 27t43.5 93q10 -6 13.5 -15t3.5 -18q0 -21 -15 -43.5t-47 -38t-83 -15.5z" />
    <glyph glyph-name="uni01BB" unicode="&#x1bb;" horiz-adv-x="425" 
d="M42 0v34l150 252q18 29 32.5 54.5t28.5 53.5h-188v10h191q22 48 32.5 90.5t10.5 89.5q0 77 -20 121.5t-76 44.5q-54 0 -75 -45t-21 -130q-23 0 -36.5 12.5t-13.5 41.5t16 59t48.5 51t84.5 21q76 0 114.5 -48t38.5 -125q0 -48 -16 -92.5t-42 -90.5h74v-10h-81
q-10 -16 -18 -28.5t-18 -28t-26 -39.5l-169 -251h241q40 0 52 15t14 54l2 34h9l-3 -150h-336z" />
    <glyph glyph-name="uni01BC" unicode="&#x1bc;" horiz-adv-x="437" 
d="M192 -10q-56 0 -92 21t-52.5 51.5t-16.5 59.5q0 21 10 35t31 14q-1 -49 9.5 -87.5t37.5 -61t74 -22.5q61 0 99.5 46.5t38.5 157.5q0 100 -42 148.5t-146 48.5h-45v222q0 35 -4 52.5t-15.5 23t-33.5 5.5h-14v10h333l5 -169h-10l-2 73q-2 50 -16.5 68t-60.5 18h-123v-293h3
q121 0 175 -51.5t54 -151.5q0 -105 -54.5 -161.5t-142.5 -56.5z" />
    <glyph glyph-name="uni01BD" unicode="&#x1bd;" horiz-adv-x="368" 
d="M169 -10q-49 0 -79.5 17t-44.5 43t-14 52q0 20 9.5 32.5t29.5 12.5q0 -74 21.5 -110.5t73.5 -36.5q53 0 76.5 38t23.5 114q0 80 -29 114.5t-101 34.5h-53v156q0 31 -3.5 45.5t-14.5 19t-34 4.5v10h268l6 -132h-10l-1 28q-2 42 -8.5 62t-21.5 26t-42 6h-79v-215h20
q81 0 121.5 -40.5t40.5 -116.5q0 -72 -40.5 -118t-114.5 -46z" />
    <glyph glyph-name="uni01BE" unicode="&#x1be;" horiz-adv-x="334" 
d="M161 -10q-65 0 -98 34.5t-33 77.5q0 45 42 45q0 -75 20 -111t70 -36q41 0 63.5 27.5t22.5 87.5q0 41 -15.5 65t-45.5 45q-27 20 -44.5 41t-25.5 50.5t-8 75.5v134h-61v10q23 1 44.5 7.5t32.5 17.5q17 16 23.5 39.5t10.5 57.5h10v-122h101v-10h-101v-128q0 -53 13 -80
t43 -50q37 -29 54 -58.5t17 -78.5q0 -73 -37.5 -107t-97.5 -34z" />
    <glyph glyph-name="uni01BF" unicode="&#x1bf;" horiz-adv-x="469" 
d="M15 -237v10h5q28 0 42.5 5t19 21.5t4.5 50.5v604q0 33 -4.5 48.5t-19 19.5t-42.5 4h-12v10h137v-119h2q12 60 42.5 95t82.5 35q74 0 113 -62t39 -165q0 -58 -14.5 -114.5t-47 -104t-85.5 -79.5t-131 -41v-131q0 -34 4.5 -50.5t18 -21.5t41.5 -5h14v-10h-209zM146 -9
q84 8 131 53t66 116.5t19 158.5q0 104 -25 159t-78 55q-56 0 -84.5 -66.5t-28.5 -193.5v-282z" />
    <glyph glyph-name="uni01C0" unicode="&#x1c0;" horiz-adv-x="320" 
d="M150 0v760h20v-760h-20z" />
    <glyph glyph-name="uni01C1" unicode="&#x1c1;" horiz-adv-x="433" 
d="M263 0v760h20v-760h-20zM150 0v760h20v-760h-20z" />
    <glyph glyph-name="uni01C2" unicode="&#x1c2;" horiz-adv-x="428" 
d="M204 0v298h-161v20h161v124h-161v20h161v298h20v-298h160v-20h-160v-124h160v-20h-160v-298h-20z" />
    <glyph glyph-name="uni01C3" unicode="&#x1c3;" horiz-adv-x="248" 
d="M110 201l-25 513h64l-23 -513h-16zM117 -6q-13 0 -22.5 11t-9.5 39t9.5 38.5t22.5 10.5t22 -10.5t9 -38.5t-9 -39t-22 -11z" />
    <glyph glyph-name="uni01C4" unicode="&#x1c4;" horiz-adv-x="996" 
d="M32 0v10h19q23 0 35 5.5t16 23t4 53.5v534q0 34 -4 50.5t-16 22t-35 5.5h-19v10h220q126 0 192.5 -95.5t66.5 -268.5q0 -164 -63.5 -257t-196.5 -93h-219zM167 10h80q102 0 151 81t49 260q0 173 -49 263t-150 90h-81v-694zM580 0v19l310 681h-198q-51 0 -67 -18.5
t-17 -67.5l-2 -54h-10l5 154h352v-18l-310 -682h225q48 0 64.5 18t18.5 67l2 56h10l-1 -155h-382zM756 771q-12 22 -26.5 50t-30 54.5t-27.5 45.5v10h4q27 -32 53.5 -63.5t50.5 -63.5q22 32 48.5 63.5t53.5 63.5h5v-10q-13 -19 -28.5 -45.5t-30 -54.5t-24.5 -50h-48z" />
    <glyph glyph-name="uni01C5" unicode="&#x1c5;" horiz-adv-x="947" 
d="M32 0v10h19q23 0 35 5.5t16 23t4 53.5v534q0 34 -4 50.5t-16 22t-35 5.5h-19v10h220q126 0 192.5 -95.5t66.5 -268.5q0 -164 -63.5 -257t-196.5 -93h-219zM167 10h80q102 0 151 81t49 260q0 173 -49 263t-150 90h-81v-694zM592 0v19l242 503h-139q-47 0 -63 -17.5
t-20 -65.5l-2 -30h-10l9 127h284v-19l-242 -503h152q47 0 64 17t19 67l2 50h10l-6 -148h-300zM738 606q-12 22 -26.5 50t-30 54.5t-27.5 45.5v10h4q27 -32 53.5 -63.5t50.5 -63.5q22 32 48.5 63.5t53.5 63.5h5v-10q-13 -19 -28.5 -45.5t-30 -54.5t-24.5 -50h-48z" />
    <glyph glyph-name="uni01C6" unicode="&#x1c6;" horiz-adv-x="860" 
d="M199 -10q-48 0 -82.5 27t-53 87.5t-18.5 162.5q0 103 19.5 163.5t54.5 87.5t82 27q51 0 80.5 -30t41.5 -93h2q-1 46 -1.5 75.5t-0.5 56.5v117q0 37 -5 53.5t-18.5 21t-39.5 4.5h-6v10h129v-681q0 -45 12 -57t50 -12h9v-10h-131v114h-2q-13 -63 -42.5 -93.5t-79.5 -30.5z
M212 3q112 0 112 262q0 132 -23.5 199t-84.5 67q-35 0 -60 -25t-38 -83t-13 -158q0 -97 12 -154t36 -82.5t59 -25.5zM506 0v19l242 503h-139q-47 0 -63 -17.5t-20 -65.5l-2 -30h-10l9 127h284v-19l-242 -503h152q47 0 64 17t19 67l2 50h10l-6 -148h-300zM652 606
q-12 22 -26.5 50t-30 54.5t-27.5 45.5v10h4q27 -32 53.5 -63.5t50.5 -63.5q22 32 48.5 63.5t53.5 63.5h5v-10q-13 -19 -28.5 -45.5t-30 -54.5t-24.5 -50h-48z" />
    <glyph glyph-name="uni01C7" unicode="&#x1c7;" horiz-adv-x="750" 
d="M477 -240v10h6q58 0 83 46t25 159v649q0 34 -3.5 51t-14 23t-32.5 6h-26v10h213v-10h-25q-23 0 -33.5 -6t-14 -23t-3.5 -52v-635q0 -88 -21 -137.5t-58 -70t-84 -20.5h-12zM32 0v10h19q23 0 34.5 5.5t16 23.5t4.5 54v528q0 37 -4.5 54.5t-16 23t-34.5 5.5h-19v10h213v-10
h-23q-22 0 -34 -5.5t-16.5 -23t-4.5 -52.5v-613h174q51 0 68 19t19 71l4 109h10l-5 -209h-405z" />
    <glyph glyph-name="uni01C8" unicode="&#x1c8;" horiz-adv-x="698" 
d="M32 0v10h19q23 0 34.5 5.5t16 23.5t4.5 54v528q0 37 -4.5 54.5t-16 23t-34.5 5.5h-19v10h213v-10h-23q-22 0 -34 -5.5t-16.5 -23t-4.5 -52.5v-613h174q51 0 68 19t19 71l4 109h10l-5 -209h-405zM597 650q-14 0 -24 10.5t-10 37.5t10 37.5t24 10.5t25 -10.5t11 -37.5
t-11 -37.5t-25 -10.5zM479 -240v10h5q28 0 47.5 17t30 58.5t10.5 115.5v491q0 48 -11.5 61t-46.5 13h-9v10h127v-552q0 -91 -19 -139.5t-50.5 -66.5t-71.5 -18h-12z" />
    <glyph glyph-name="uni01C9" unicode="&#x1c9;" horiz-adv-x="452" 
d="M353 650q-14 0 -24 10.5t-10 37.5t10 37.5t24 10.5t25 -10.5t11 -37.5t-11 -37.5t-25 -10.5zM235 -240v10h5q28 0 47.5 17t30 58.5t10.5 115.5v491q0 48 -11.5 61t-46.5 13h-9v10h127v-552q0 -91 -19 -139.5t-50.5 -66.5t-71.5 -18h-12zM9 0v10h5q31 0 46 4.5t20 20
t5 48.5v593q0 34 -5.5 50t-19.5 20t-38 4h-13v10h136v-677q0 -33 4.5 -48.5t19.5 -20t47 -4.5h5v-10h-212z" />
    <glyph glyph-name="uni01CA" unicode="&#x1ca;" horiz-adv-x="862" 
d="M587 -240v10h6q58 0 83 46t25 159v649q0 34 -3.5 51t-14 23t-32.5 6h-26v10h213v-10h-25q-23 0 -33.5 -6t-14 -23t-3.5 -52v-635q0 -88 -21 -137.5t-58 -70t-84 -20.5h-12zM32 0v10h25q23 0 34.5 6t15.5 23.5t4 52.5v531q0 35 -3.5 52t-15 23t-34.5 6h-26v10h131
l308 -648v557q0 35 -3.5 52t-14.5 23t-34 6h-37v10h181v-10h-30q-23 0 -34 -6t-14.5 -23.5t-3.5 -52.5v-622h-40l-320 671v-579q0 -35 3.5 -52.5t14.5 -23.5t34 -6h38v-10h-179z" />
    <glyph glyph-name="uni01CB" unicode="&#x1cb;" horiz-adv-x="809" 
d="M32 0v10h25q23 0 34.5 6t15.5 23.5t4 52.5v531q0 35 -3.5 52t-15 23t-34.5 6h-26v10h131l308 -648v557q0 35 -3.5 52t-14.5 23t-34 6h-37v10h181v-10h-30q-23 0 -34 -6t-14.5 -23.5t-3.5 -52.5v-622h-40l-320 671v-579q0 -35 3.5 -52.5t14.5 -23.5t34 -6h38v-10h-179z
M708 650q-14 0 -24 10.5t-10 37.5t10 37.5t24 10.5t25 -10.5t11 -37.5t-11 -37.5t-25 -10.5zM590 -240v10h5q28 0 47.5 17t30 58.5t10.5 115.5v491q0 48 -11.5 61t-46.5 13h-9v10h127v-552q0 -91 -19 -139.5t-50.5 -66.5t-71.5 -18h-12z" />
    <glyph glyph-name="uni01CC" unicode="&#x1cc;" horiz-adv-x="718" 
d="M625 650q-14 0 -24 10.5t-10 37.5t10 37.5t24 10.5t25 -10.5t11 -37.5t-11 -37.5t-25 -10.5zM507 -240v10h5q28 0 47.5 17t30 58.5t10.5 115.5v491q0 48 -11.5 61t-46.5 13h-9v10h127v-552q0 -91 -19 -139.5t-50.5 -66.5t-71.5 -18h-12zM28 0v10h7q29 0 42.5 5t18 20.5
t4.5 48.5v370q0 32 -4.5 47.5t-18 20t-41.5 4.5h-5v10h128v-99h2q13 48 42.5 77.5t79.5 29.5q67 0 98 -44t31 -139v-277q0 -32 4 -48t17 -21t40 -5h4v-10h-124v367q0 77 -19.5 117t-66.5 40q-45 0 -76 -43t-31 -144v-254q0 -33 4 -48.5t17 -20t41 -4.5h6v-10h-200z" />
    <glyph glyph-name="uni01CD" unicode="&#x1cd;" horiz-adv-x="536" 
d="M0 0v10h27q26 0 37.5 15t24.5 66l163 623h42l183 -662q7 -26 17 -34t35 -8h7v-10h-192v10h25q30 0 39 7t9 20q0 11 -5 28t-10 35l-41 160h-217l-37 -142q-6 -22 -11.5 -45t-5.5 -35q0 -15 10 -21.5t38 -6.5h37v-10h-175zM147 270h211l-63 241q-19 72 -28 107.5t-15 61.5
q-5 -22 -9 -39t-8.5 -36t-12.5 -48zM245 771q-12 22 -26.5 50t-30 54.5t-27.5 45.5v10h4q27 -32 53.5 -63.5t50.5 -63.5q22 32 48.5 63.5t53.5 63.5h5v-10q-13 -19 -28.5 -45.5t-30 -54.5t-24.5 -50h-48z" />
    <glyph glyph-name="uni01CE" unicode="&#x1ce;" horiz-adv-x="429" 
d="M157 -10q-52 0 -84.5 37.5t-32.5 113.5q0 77 44 114t134 42l64 3v85q0 84 -18.5 116.5t-60.5 32.5t-61.5 -31.5t-19.5 -111.5q-23 0 -36.5 12.5t-13.5 38.5q0 44 37 73t99 29q66 0 100 -40t34 -135v-279q0 -52 10 -66t39 -14h2v-10h-109v103h-2q-16 -55 -48.5 -84
t-76.5 -29zM174 9q32 0 56.5 23t38 62.5t13.5 89.5v106l-53 -3q-72 -4 -100 -41t-28 -106q0 -131 73 -131zM180 606q-12 22 -26.5 50t-30 54.5t-27.5 45.5v10h4q27 -32 53.5 -63.5t50.5 -63.5q22 32 48.5 63.5t53.5 63.5h5v-10q-13 -19 -28.5 -45.5t-30 -54.5t-24.5 -50h-48
z" />
    <glyph glyph-name="uni01CF" unicode="&#x1cf;" horiz-adv-x="277" 
d="M32 0v10h26q32 0 41 14.5t9 65.5v533q0 52 -9 66.5t-41 14.5h-26v10h213v-10h-26q-22 0 -33 -6t-14.5 -23t-3.5 -52v-533q0 -51 9 -65.5t42 -14.5h26v-10h-213zM115 771q-12 22 -26.5 50t-30 54.5t-27.5 45.5v10h4q27 -32 53.5 -63.5t50.5 -63.5q22 32 48.5 63.5
t53.5 63.5h5v-10q-13 -19 -28.5 -45.5t-30 -54.5t-24.5 -50h-48z" />
    <glyph glyph-name="uni01D0" unicode="&#x1d0;" horiz-adv-x="241" 
d="M92 606q-12 22 -26.5 50t-30 54.5t-27.5 45.5v10h4q27 -32 53.5 -63.5t50.5 -63.5q22 32 48.5 63.5t53.5 63.5h5v-10q-13 -19 -28.5 -45.5t-30 -54.5t-24.5 -50h-48zM19 0v10h15q27 0 40.5 5t18 21t4.5 49v365q0 33 -4.5 49t-17 21.5t-37.5 5.5h-9v10h128v-451
q0 -33 4.5 -49t18.5 -21t40 -5h12v-10h-213z" />
    <glyph glyph-name="uni01D1" unicode="&#x1d1;" horiz-adv-x="567" 
d="M283 -10q-81 0 -134 46t-79 129t-26 194q0 175 59.5 270.5t180.5 95.5q238 0 238 -367q0 -172 -62.5 -270t-176.5 -98zM283 0q176 0 176 358q0 182 -39 269.5t-136 87.5q-94 0 -135.5 -87.5t-41.5 -269.5q0 -176 43.5 -267t132.5 -91zM264 771q-12 22 -26.5 50t-30 54.5
t-27.5 45.5v10h4q27 -32 53.5 -63.5t50.5 -63.5q22 32 48.5 63.5t53.5 63.5h5v-10q-13 -19 -28.5 -45.5t-30 -54.5t-24.5 -50h-48z" />
    <glyph glyph-name="uni01D2" unicode="&#x1d2;" horiz-adv-x="439" 
d="M219 -10q-83 0 -128.5 68t-45.5 210q0 139 43 207.5t133 68.5q173 0 173 -276q0 -145 -44.5 -211.5t-130.5 -66.5zM220 0q64 0 89 63.5t25 204.5q0 142 -25 204t-90 62q-63 0 -88.5 -62t-25.5 -204t27.5 -205t87.5 -63zM196 606q-12 22 -26.5 50t-30 54.5t-27.5 45.5v10
h4q27 -32 53.5 -63.5t50.5 -63.5q22 32 48.5 63.5t53.5 63.5h5v-10q-13 -19 -28.5 -45.5t-30 -54.5t-24.5 -50h-48z" />
    <glyph glyph-name="uni01D3" unicode="&#x1d3;" horiz-adv-x="549" 
d="M276 -10q-86 0 -138.5 52t-52.5 173v410q0 35 -4.5 51.5t-16.5 22t-34 5.5h-19v10h213v-10h-23q-22 0 -34 -5.5t-16.5 -23t-4.5 -53.5v-425q0 -105 38 -148t102 -43q60 0 94.5 25.5t48.5 70t14 103.5v419q0 35 -4.5 52t-16.5 22.5t-35 5.5h-39v10h189v-10h-32
q-21 0 -32.5 -5.5t-15.5 -23t-4 -53.5v-419q0 -101 -41.5 -157t-135.5 -56zM265 771q-12 22 -26.5 50t-30 54.5t-27.5 45.5v10h4q27 -32 53.5 -63.5t50.5 -63.5q22 32 48.5 63.5t53.5 63.5h5v-10q-13 -19 -28.5 -45.5t-30 -54.5t-24.5 -50h-48z" />
    <glyph glyph-name="uni01D4" unicode="&#x1d4;" horiz-adv-x="486" 
d="M213 -10q-61 0 -95 45t-34 149v270q0 32 -4.5 47.5t-18.5 20t-43 4.5h-3v10h128v-367q0 -83 21 -121t67 -38q54 0 80.5 52.5t26.5 137.5v242q0 38 -3.5 56t-17 23t-44.5 5h-2v10h127v-449q0 -35 4 -51.5t18 -21t44 -4.5h3v-10h-128v103h-2q-13 -54 -44.5 -83.5
t-79.5 -29.5zM206 606q-12 22 -26.5 50t-30 54.5t-27.5 45.5v10h4q27 -32 53.5 -63.5t50.5 -63.5q22 32 48.5 63.5t53.5 63.5h5v-10q-13 -19 -28.5 -45.5t-30 -54.5t-24.5 -50h-48z" />
    <glyph glyph-name="uni01D5" unicode="&#x1d5;" horiz-adv-x="549" 
d="M276 -10q-86 0 -138.5 52t-52.5 173v410q0 35 -4.5 51.5t-16.5 22t-34 5.5h-19v10h213v-10h-23q-22 0 -34 -5.5t-16.5 -23t-4.5 -53.5v-425q0 -105 38 -148t102 -43q60 0 94.5 25.5t48.5 70t14 103.5v419q0 35 -4.5 52t-16.5 22.5t-35 5.5h-39v10h189v-10h-32
q-21 0 -32.5 -5.5t-15.5 -23t-4 -53.5v-419q0 -101 -41.5 -157t-135.5 -56zM179 956v20h221v-20h-221zM215 784q-12 0 -20.5 9.5t-8.5 32.5q0 26 8.5 35.5t20.5 9.5q14 0 22.5 -9.5t8.5 -35.5q0 -23 -8.5 -32.5t-22.5 -9.5zM361 784q-13 0 -21 9.5t-8 32.5q0 26 8 35.5
t21 9.5q14 0 22 -9.5t8 -35.5q0 -23 -8 -32.5t-22 -9.5z" />
    <glyph glyph-name="uni01D6" unicode="&#x1d6;" horiz-adv-x="486" 
d="M213 -10q-61 0 -95 45t-34 149v270q0 32 -4.5 47.5t-18.5 20t-43 4.5h-3v10h128v-367q0 -83 21 -121t67 -38q54 0 80.5 52.5t26.5 137.5v242q0 38 -3.5 56t-17 23t-44.5 5h-2v10h127v-449q0 -35 4 -51.5t18 -21t44 -4.5h3v-10h-128v103h-2q-13 -54 -44.5 -83.5
t-79.5 -29.5zM125 791v20h221v-20h-221zM161 619q-12 0 -20.5 9.5t-8.5 32.5q0 26 8.5 35.5t20.5 9.5q14 0 22.5 -9.5t8.5 -35.5q0 -23 -8.5 -32.5t-22.5 -9.5zM307 619q-13 0 -21 9.5t-8 32.5q0 26 8 35.5t21 9.5q14 0 22 -9.5t8 -35.5q0 -23 -8 -32.5t-22 -9.5z" />
    <glyph glyph-name="uni01D7" unicode="&#x1d7;" horiz-adv-x="549" 
d="M276 -10q-86 0 -138.5 52t-52.5 173v410q0 35 -4.5 51.5t-16.5 22t-34 5.5h-19v10h213v-10h-23q-22 0 -34 -5.5t-16.5 -23t-4.5 -53.5v-425q0 -105 38 -148t102 -43q60 0 94.5 25.5t48.5 70t14 103.5v419q0 35 -4.5 52t-16.5 22.5t-35 5.5h-39v10h189v-10h-32
q-21 0 -32.5 -5.5t-15.5 -23t-4 -53.5v-419q0 -101 -41.5 -157t-135.5 -56zM275 866v15q17 34 34 74t25 66h49v-11q-15 -29 -45 -69t-57 -75h-6zM214 769q-13 0 -20.5 9t-7.5 34t7.5 34t20.5 9q14 0 22.5 -9t8.5 -34t-8.5 -34t-22.5 -9zM362 769q-14 0 -21.5 9t-7.5 34
t7.5 34t21.5 9q13 0 21 -9t8 -34t-8 -34t-21 -9z" />
    <glyph glyph-name="uni01D8" unicode="&#x1d8;" horiz-adv-x="486" 
d="M213 -10q-61 0 -95 45t-34 149v270q0 32 -4.5 47.5t-18.5 20t-43 4.5h-3v10h128v-367q0 -83 21 -121t67 -38q54 0 80.5 52.5t26.5 137.5v242q0 38 -3.5 56t-17 23t-44.5 5h-2v10h127v-449q0 -35 4 -51.5t18 -21t44 -4.5h3v-10h-128v103h-2q-13 -54 -44.5 -83.5
t-79.5 -29.5zM221 701v15q17 34 34 74t25 66h49v-11q-15 -29 -45 -69t-57 -75h-6zM160 604q-13 0 -20.5 9t-7.5 34t7.5 34t20.5 9q14 0 22.5 -9t8.5 -34t-8.5 -34t-22.5 -9zM308 604q-14 0 -21.5 9t-7.5 34t7.5 34t21.5 9q13 0 21 -9t8 -34t-8 -34t-21 -9z" />
    <glyph glyph-name="uni01D9" unicode="&#x1d9;" horiz-adv-x="549" 
d="M276 -10q-86 0 -138.5 52t-52.5 173v410q0 35 -4.5 51.5t-16.5 22t-34 5.5h-19v10h213v-10h-23q-22 0 -34 -5.5t-16.5 -23t-4.5 -53.5v-425q0 -105 38 -148t102 -43q60 0 94.5 25.5t48.5 70t14 103.5v419q0 35 -4.5 52t-16.5 22.5t-35 5.5h-39v10h189v-10h-32
q-21 0 -32.5 -5.5t-15.5 -23t-4 -53.5v-419q0 -101 -41.5 -157t-135.5 -56zM266 903q-16 26 -42 63.5t-47 63.5v13h6q25 -23 55.5 -54.5t50.5 -54.5q20 23 50.5 54.5t54.5 54.5h7v-13q-14 -17 -31 -40t-33 -46t-27 -41h-44zM215 784q-13 0 -21.5 9t-8.5 33q0 25 8.5 34.5
t21.5 9.5t21.5 -9.5t8.5 -34.5q0 -24 -8.5 -33t-21.5 -9zM362 784q-13 0 -21.5 9t-8.5 33q0 25 8.5 34.5t21.5 9.5t21 -9.5t8 -34.5q0 -24 -8 -33t-21 -9z" />
    <glyph glyph-name="uni01DA" unicode="&#x1da;" horiz-adv-x="486" 
d="M213 -10q-61 0 -95 45t-34 149v270q0 32 -4.5 47.5t-18.5 20t-43 4.5h-3v10h128v-367q0 -83 21 -121t67 -38q54 0 80.5 52.5t26.5 137.5v242q0 38 -3.5 56t-17 23t-44.5 5h-2v10h127v-449q0 -35 4 -51.5t18 -21t44 -4.5h3v-10h-128v103h-2q-13 -54 -44.5 -83.5
t-79.5 -29.5zM213 738q-16 26 -42 63.5t-47 63.5v13h6q25 -23 55.5 -54.5t50.5 -54.5q20 23 50.5 54.5t54.5 54.5h7v-13q-14 -17 -31 -40t-33 -46t-27 -41h-44zM162 619q-13 0 -21.5 9t-8.5 33q0 25 8.5 34.5t21.5 9.5t21.5 -9.5t8.5 -34.5q0 -24 -8.5 -33t-21.5 -9z
M309 619q-13 0 -21.5 9t-8.5 33q0 25 8.5 34.5t21.5 9.5t21 -9.5t8 -34.5q0 -24 -8 -33t-21 -9z" />
    <glyph glyph-name="uni01DB" unicode="&#x1db;" horiz-adv-x="549" 
d="M276 -10q-86 0 -138.5 52t-52.5 173v410q0 35 -4.5 51.5t-16.5 22t-34 5.5h-19v10h213v-10h-23q-22 0 -34 -5.5t-16.5 -23t-4.5 -53.5v-425q0 -105 38 -148t102 -43q60 0 94.5 25.5t48.5 70t14 103.5v419q0 35 -4.5 52t-16.5 22.5t-35 5.5h-39v10h189v-10h-32
q-21 0 -32.5 -5.5t-15.5 -23t-4 -53.5v-419q0 -101 -41.5 -157t-135.5 -56zM293 867q-27 38 -55.5 75.5t-45.5 67.5v11h49q10 -27 26 -64.5t33 -74.5v-15h-7zM210 768q-13 0 -21 9t-8 33q0 25 8 34.5t21 9.5q14 0 22 -9.5t8 -34.5q0 -24 -8 -33t-22 -9zM357 768q-13 0 -21 9
t-8 33q0 25 8 34.5t21 9.5t21.5 -9.5t8.5 -34.5q0 -24 -8.5 -33t-21.5 -9z" />
    <glyph glyph-name="uni01DC" unicode="&#x1dc;" horiz-adv-x="486" 
d="M213 -10q-61 0 -95 45t-34 149v270q0 32 -4.5 47.5t-18.5 20t-43 4.5h-3v10h128v-367q0 -83 21 -121t67 -38q54 0 80.5 52.5t26.5 137.5v242q0 38 -3.5 56t-17 23t-44.5 5h-2v10h127v-449q0 -35 4 -51.5t18 -21t44 -4.5h3v-10h-128v103h-2q-13 -54 -44.5 -83.5
t-79.5 -29.5zM246 702q-27 38 -55.5 75.5t-45.5 67.5v11h49q10 -27 26 -64.5t33 -74.5v-15h-7zM163 603q-13 0 -21 9t-8 33q0 25 8 34.5t21 9.5q14 0 22 -9.5t8 -34.5q0 -24 -8 -33t-22 -9zM310 603q-13 0 -21 9t-8 33q0 25 8 34.5t21 9.5t21.5 -9.5t8.5 -34.5
q0 -24 -8.5 -33t-21.5 -9z" />
    <glyph glyph-name="uni01DD" unicode="&#x1dd;" horiz-adv-x="407" 
d="M197 -10q-77 0 -116.5 66.5t-39.5 182.5v17h262q0 148 -32.5 212.5t-92.5 64.5q-44 0 -69.5 -29t-33.5 -82q-19 6 -19 26q0 19 14.5 41.5t44 38.5t73.5 16q84 0 129.5 -71t45.5 -202q0 -141 -43.5 -211t-122.5 -70zM197 0q52 0 78.5 59.5t27.5 186.5h-203
q1 -124 22.5 -185t74.5 -61z" />
    <glyph glyph-name="uni01DE" unicode="&#x1de;" horiz-adv-x="536" 
d="M0 0v10h27q26 0 37.5 15t24.5 66l163 623h42l183 -662q7 -26 17 -34t35 -8h7v-10h-192v10h25q30 0 39 7t9 20q0 11 -5 28t-10 35l-41 160h-217l-37 -142q-6 -22 -11.5 -45t-5.5 -35q0 -15 10 -21.5t38 -6.5h37v-10h-175zM147 270h211l-63 241q-19 72 -28 107.5t-15 61.5
q-5 -22 -9 -39t-8.5 -36t-12.5 -48zM159 956v20h221v-20h-221zM195 784q-12 0 -20.5 9.5t-8.5 32.5q0 26 8.5 35.5t20.5 9.5q14 0 22.5 -9.5t8.5 -35.5q0 -23 -8.5 -32.5t-22.5 -9.5zM341 784q-13 0 -21 9.5t-8 32.5q0 26 8 35.5t21 9.5q14 0 22 -9.5t8 -35.5
q0 -23 -8 -32.5t-22 -9.5z" />
    <glyph glyph-name="uni01DF" unicode="&#x1df;" horiz-adv-x="429" 
d="M157 -10q-52 0 -84.5 37.5t-32.5 113.5q0 77 44 114t134 42l64 3v85q0 84 -18.5 116.5t-60.5 32.5t-61.5 -31.5t-19.5 -111.5q-23 0 -36.5 12.5t-13.5 38.5q0 44 37 73t99 29q66 0 100 -40t34 -135v-279q0 -52 10 -66t39 -14h2v-10h-109v103h-2q-16 -55 -48.5 -84
t-76.5 -29zM174 9q32 0 56.5 23t38 62.5t13.5 89.5v106l-53 -3q-72 -4 -100 -41t-28 -106q0 -131 73 -131zM95 791v20h221v-20h-221zM131 619q-12 0 -20.5 9.5t-8.5 32.5q0 26 8.5 35.5t20.5 9.5q14 0 22.5 -9.5t8.5 -35.5q0 -23 -8.5 -32.5t-22.5 -9.5zM277 619
q-13 0 -21 9.5t-8 32.5q0 26 8 35.5t21 9.5q14 0 22 -9.5t8 -35.5q0 -23 -8 -32.5t-22 -9.5z" />
    <glyph glyph-name="uni01E0" unicode="&#x1e0;" horiz-adv-x="536" 
d="M0 0v10h27q26 0 37.5 15t24.5 66l163 623h42l183 -662q7 -26 17 -34t35 -8h7v-10h-192v10h25q30 0 39 7t9 20q0 11 -5 28t-10 35l-41 160h-217l-37 -142q-6 -22 -11.5 -45t-5.5 -35q0 -15 10 -21.5t38 -6.5h37v-10h-175zM147 270h211l-63 241q-19 72 -28 107.5t-15 61.5
q-5 -22 -9 -39t-8.5 -36t-12.5 -48zM161 939v20h221v-20h-221zM269 760q-14 0 -24 10t-10 35t10 35t24 10t24 -10t10 -35t-10 -35t-24 -10z" />
    <glyph glyph-name="uni01E1" unicode="&#x1e1;" horiz-adv-x="429" 
d="M157 -10q-52 0 -84.5 37.5t-32.5 113.5q0 77 44 114t134 42l64 3v85q0 84 -18.5 116.5t-60.5 32.5t-61.5 -31.5t-19.5 -111.5q-23 0 -36.5 12.5t-13.5 38.5q0 44 37 73t99 29q66 0 100 -40t34 -135v-279q0 -52 10 -66t39 -14h2v-10h-109v103h-2q-16 -55 -48.5 -84
t-76.5 -29zM174 9q32 0 56.5 23t38 62.5t13.5 89.5v106l-53 -3q-72 -4 -100 -41t-28 -106q0 -131 73 -131zM96 797v20h221v-20h-221zM204 618q-14 0 -24 10t-10 35t10 35t24 10t24 -10t10 -35t-10 -35t-24 -10z" />
    <glyph glyph-name="uni01E2" unicode="&#x1e2;" horiz-adv-x="727" 
d="M0 0v10h29q17 0 27 5.5t19 23.5t24 56l244 609h-92v10h411l5 -169h-10l-2 58q-2 43 -10 64.5t-27.5 29t-57.5 7.5h-142v-319h196v-10h-196l-1 -365h179q50 0 65 18t18 68l4 73h10l-5 -169h-404v10h17q23 0 35.5 5t16.5 21.5t4 49.5v171h-182l-58 -146q-11 -28 -17 -44.5
t-6 -29.5q0 -14 11.5 -20.5t39.5 -6.5h41v-10h-186zM179 267h178v437h-3zM330 820v20h225v-20h-225z" />
    <glyph glyph-name="uni01E3" unicode="&#x1e3;" horiz-adv-x="642" 
d="M159 -10q-53 0 -86 37t-33 116q0 74 44 111.5t134 42.5l64 3v85q0 75 -15 112t-64 37q-47 0 -65 -35t-18 -108q-48 0 -48 51q0 44 37 73t98 29q43 0 72.5 -20.5t42.5 -68.5q38 89 123 89q73 0 115.5 -62.5t42.5 -188.5v-13h-262q1 -106 16 -166.5t43 -86.5t66 -26
q39 0 65.5 26t35.5 85q21 -6 21 -26t-15 -42.5t-45 -38t-73 -15.5q-57 0 -95 36.5t-54 104.5q-13 -58 -48.5 -99.5t-98.5 -41.5zM341 290h202q0 130 -23.5 187t-73.5 57q-46 0 -75.5 -55t-29.5 -189zM177 4q45 0 75.5 40t29.5 127v119l-53 -3q-69 -3 -98.5 -38.5
t-29.5 -105.5q0 -72 18.5 -105.5t57.5 -33.5zM218 655v20h225v-20h-225z" />
    <glyph glyph-name="uni01E4" unicode="&#x1e4;" horiz-adv-x="541" 
d="M307 -10q-135 0 -199 96.5t-64 271.5q0 182 70 274t197 92q56 0 92.5 -17t54 -43.5t17.5 -53.5q0 -56 -50 -56q0 76 -23.5 118t-91.5 42q-101 0 -152 -86.5t-51 -269.5q0 -184 46 -271t156 -87q66 0 102 22v150h-102v10h102v59q0 33 -4.5 49t-17.5 21t-38 5h-12v10h188
v-10h-5q-22 0 -32.5 -5.5t-14.5 -22t-4 -49.5v-57h67v-10h-67v-141q-37 -21 -76 -31t-88 -10z" />
    <glyph glyph-name="uni01E5" unicode="&#x1e5;" horiz-adv-x="413" 
d="M188 -240q-80 0 -122.5 36t-42.5 104q0 105 115 135q-34 9 -48.5 31t-14.5 48q0 24 13.5 46.5t44.5 46.5q-36 17 -57.5 57t-21.5 95q0 96 37 140.5t107 44.5q58 0 94 -41q9 20 24.5 40t41.5 20q20 0 31.5 -14.5t11.5 -34.5q0 -19 -9.5 -30.5t-26.5 -11.5q0 31 -6.5 44.5
t-21.5 13.5q-23 0 -38 -34q17 -22 26 -53t9 -79q0 -80 -34 -125t-104 -45q-13 0 -27.5 2t-27.5 7q-17 -17 -23.5 -31.5t-6.5 -30.5q0 -29 18.5 -45t48.5 -16h67q71 0 102 -39t31 -102q0 -5 -0.5 -10t-1.5 -9h44v-10h-45q-8 -70 -56 -110t-131 -40zM195 204q43 0 63.5 36.5
t20.5 124.5q0 66 -9.5 102.5t-28.5 51.5t-48 15q-40 0 -62 -37t-22 -133q0 -86 21 -123t65 -37zM194 -230q70 0 103 37t34 103h-134v10h135q-2 59 -25 84.5t-77 25.5h-62q-43 0 -70.5 -35.5t-27.5 -93.5q0 -65 33 -98t91 -33z" />
    <glyph glyph-name="uni01E6" unicode="&#x1e6;" horiz-adv-x="541" 
d="M307 -10q-135 0 -199 96.5t-64 271.5q0 182 70.5 274t192.5 92q59 0 96.5 -17.5t54.5 -44t17 -54.5q0 -26 -13.5 -40t-36.5 -14q0 79 -24 119.5t-92 40.5q-100 0 -151 -86t-51 -270t46 -271t156 -87q31 0 58 5t44 16v220q0 33 -4.5 49t-17.5 21t-38 5h-12v10h188v-10h-5
q-22 0 -32.5 -5.5t-14.5 -22t-4 -49.5v-208q-37 -21 -76 -31t-88 -10zM280 771q-12 22 -26.5 50t-30 54.5t-27.5 45.5v10h4q27 -32 53.5 -63.5t50.5 -63.5q22 32 48.5 63.5t53.5 63.5h5v-10q-13 -19 -28.5 -45.5t-30 -54.5t-24.5 -50h-48z" />
    <glyph glyph-name="uni01E7" unicode="&#x1e7;" horiz-adv-x="412" 
d="M188 -240q-80 0 -122.5 36t-42.5 104q0 105 115 135q-34 9 -48.5 31t-14.5 48q0 24 13.5 46.5t44.5 46.5q-36 17 -57.5 57t-21.5 95q0 96 37 140.5t107 44.5q58 0 94 -41q9 20 25.5 40t42.5 20q20 0 30.5 -14.5t10.5 -32.5q0 -19 -9 -30t-24 -11q0 55 -31 55
q-23 0 -38 -34q17 -22 26 -53t9 -79q0 -80 -34 -125t-104 -45q-13 0 -27.5 2t-27.5 7q-17 -17 -23.5 -31.5t-6.5 -30.5q0 -29 18.5 -45t48.5 -16h67q71 0 102 -39t31 -102q0 -82 -48.5 -130.5t-141.5 -48.5zM195 204q43 0 63.5 36.5t20.5 124.5q0 66 -9.5 102.5t-28.5 51.5
t-48 15q-40 0 -62 -37t-22 -133q0 -86 21 -123t65 -37zM194 -230q73 0 105.5 41t32.5 112q0 50 -21.5 78.5t-80.5 28.5h-62q-43 0 -70.5 -35.5t-27.5 -93.5q0 -65 33 -98t91 -33zM172 606q-12 22 -26.5 50t-30 54.5t-27.5 45.5v10h4q27 -32 53.5 -63.5t50.5 -63.5
q22 32 48.5 63.5t53.5 63.5h5v-10q-13 -19 -28.5 -45.5t-30 -54.5t-24.5 -50h-48z" />
    <glyph glyph-name="uni01E8" unicode="&#x1e8;" horiz-adv-x="536" 
d="M32 0v10h22q32 0 42 14.5t10 65.5v535q0 50 -9.5 64.5t-41.5 14.5h-23v10h212v-10h-27q-31 0 -40.5 -14.5t-9.5 -64.5v-349l226 329q25 39 35.5 55t10.5 25q0 11 -13.5 15t-56.5 4v10h145v-10q-22 0 -35.5 -7.5t-29 -29t-45.5 -64.5l-123 -179l197 -344q26 -44 41 -57
t30 -13h2v-10h-23q-31 0 -51.5 7t-38.5 28t-41 63l-152 275l-78 -115v-165q0 -36 4 -53.5t15.5 -23.5t33.5 -6h24v-10h-212zM271 771q-12 22 -26.5 50t-30 54.5t-27.5 45.5v10h4q27 -32 53.5 -63.5t50.5 -63.5q22 32 48.5 63.5t53.5 63.5h5v-10q-13 -19 -28.5 -45.5
t-30 -54.5t-24.5 -50h-48z" />
    <glyph glyph-name="uni01E9" unicode="&#x1e9;" horiz-adv-x="442" 
d="M14 0v10h6q27 0 41.5 4.5t19.5 20t5 48.5v594q0 33 -5 48.5t-19.5 20t-41.5 4.5h-6v10h132v-397v-69.5t-2 -72.5l113 160q43 60 56.5 85.5t13.5 36.5q0 13 -14.5 18t-55.5 5v10h158v-10q-23 0 -40 -11t-39 -42l-95 -132l137 -278q16 -32 28 -42.5t32 -10.5h6v-10h-5
q-39 0 -62.5 6t-41 26.5t-39.5 65.5l-91 192l-59 -83v-124q0 -33 5.5 -48.5t19 -20t36.5 -4.5h4v-10h-197zM194 796q-12 22 -26.5 50t-30 54.5t-27.5 45.5v10h4q27 -32 53.5 -63.5t50.5 -63.5q22 32 48.5 63.5t53.5 63.5h5v-10q-13 -19 -28.5 -45.5t-30 -54.5t-24.5 -50h-48
z" />
    <glyph glyph-name="uni01EA" unicode="&#x1ea;" horiz-adv-x="567" 
d="M283 -10q-81 0 -134 46t-79 129t-26 194q0 175 59.5 270.5t180.5 95.5q238 0 238 -367q0 -172 -62.5 -270t-176.5 -98zM283 0q176 0 176 358q0 182 -39 269.5t-136 87.5q-94 0 -135.5 -87.5t-41.5 -269.5q0 -176 43.5 -267t132.5 -91zM308 -231q-42 0 -67.5 25t-25.5 76
q0 53 27.5 84.5t66.5 45.5h21q-31 -13 -52.5 -42.5t-21.5 -85.5q0 -91 60 -91q10 0 21.5 2.5t24.5 10.5v-11q-25 -14 -54 -14z" />
    <glyph glyph-name="uni01EB" unicode="&#x1eb;" horiz-adv-x="439" 
d="M219 -10q-83 0 -128.5 68t-45.5 210q0 139 43 207.5t133 68.5q173 0 173 -276q0 -145 -44.5 -211.5t-130.5 -66.5zM220 0q64 0 89 63.5t25 204.5q0 142 -25 204t-90 62q-63 0 -88.5 -62t-25.5 -204t27.5 -205t87.5 -63zM250 -231q-42 0 -67.5 25t-25.5 76q0 53 27.5 84.5
t66.5 45.5h21q-31 -13 -52.5 -42.5t-21.5 -85.5q0 -91 60 -91q10 0 21.5 2.5t24.5 10.5v-11q-25 -14 -54 -14z" />
    <glyph glyph-name="uni01EC" unicode="&#x1ec;" horiz-adv-x="567" 
d="M283 -10q-81 0 -134 46t-79 129t-26 194q0 175 59.5 270.5t180.5 95.5q238 0 238 -367q0 -172 -62.5 -270t-176.5 -98zM283 0q176 0 176 358q0 182 -39 269.5t-136 87.5q-94 0 -135.5 -87.5t-41.5 -269.5q0 -176 43.5 -267t132.5 -91zM308 -231q-42 0 -67.5 25t-25.5 76
q0 53 27.5 84.5t66.5 45.5h21q-31 -13 -52.5 -42.5t-21.5 -85.5q0 -91 60 -91q10 0 21.5 2.5t24.5 10.5v-11q-25 -14 -54 -14zM174 819v20h225v-20h-225z" />
    <glyph glyph-name="uni01ED" unicode="&#x1ed;" horiz-adv-x="439" 
d="M219 -10q-83 0 -128.5 68t-45.5 210q0 139 43 207.5t133 68.5q173 0 173 -276q0 -145 -44.5 -211.5t-130.5 -66.5zM220 0q64 0 89 63.5t25 204.5q0 142 -25 204t-90 62q-63 0 -88.5 -62t-25.5 -204t27.5 -205t87.5 -63zM105 639v20h225v-20h-225zM245 -231
q-41 0 -67 25.5t-26 75.5q0 53 28 84.5t66 45.5h22q-30 -12 -52.5 -42t-22.5 -86q0 -46 16.5 -68.5t44.5 -22.5q10 0 21 2.5t25 10.5v-11q-25 -14 -55 -14z" />
    <glyph glyph-name="uni01EE" unicode="&#x1ee;" horiz-adv-x="453" 
d="M205 771q-12 22 -26.5 50t-30 54.5t-27.5 45.5v10h4q27 -32 53.5 -63.5t50.5 -63.5q22 32 48.5 63.5t53.5 63.5h5v-10q-13 -19 -28.5 -45.5t-30 -54.5t-24.5 -50h-48zM205 -10q-61 0 -98.5 18.5t-54 46t-16.5 55.5q0 54 40 54q0 -46 12 -83t40 -59t75 -22q41 0 73.5 17.5
t50.5 59t18 114.5q0 87 -37.5 131.5t-127.5 44.5h-33v21l211 278h-214q-40 0 -51.5 -12.5t-13.5 -52.5l-2 -24h-9l4 137h313v-31l-225 -294q135 0 189 -48.5t54 -146.5q0 -72 -26 -117t-71 -66t-101 -21z" />
    <glyph glyph-name="uni01EF" unicode="&#x1ef;" horiz-adv-x="396" 
d="M179 606q-12 22 -26.5 50t-30 54.5t-27.5 45.5v10h4q27 -32 53.5 -63.5t50.5 -63.5q22 32 48.5 63.5t53.5 63.5h5v-10q-13 -19 -28.5 -45.5t-30 -54.5t-24.5 -50h-48zM177 -240q-55 0 -87.5 17t-47 42t-14.5 49q0 26 11 38.5t30 12.5q-1 -73 22.5 -111t87.5 -38
q37 0 66 20t45 69t16 137q0 98 -34.5 148t-119.5 50h-23v19l197 275h-203q-37 0 -48.5 -13t-14.5 -53l-1 -17h-10l7 131h295v-35l-208 -286q120 -2 171.5 -57.5t51.5 -163.5q0 -121 -52 -177.5t-137 -56.5z" />
    <glyph glyph-name="uni01F0" unicode="&#x1f0;" horiz-adv-x="237" 
d="M4 -240v10h5q28 0 47.5 17t30 58.5t10.5 115.5v491q0 48 -11.5 61t-46.5 13h-9v10h127v-552q0 -91 -19 -139.5t-50.5 -66.5t-71.5 -18h-12zM82 606q-12 22 -26.5 50t-30 54.5t-27.5 45.5v10h4q27 -32 53.5 -63.5t50.5 -63.5q22 32 48.5 63.5t53.5 63.5h5v-10
q-13 -19 -28.5 -45.5t-30 -54.5t-24.5 -50h-48z" />
    <glyph glyph-name="uni01F1" unicode="&#x1f1;" horiz-adv-x="996" 
d="M32 0v10h19q23 0 35 5.5t16 23t4 53.5v534q0 34 -4 50.5t-16 22t-35 5.5h-19v10h220q126 0 192.5 -95.5t66.5 -268.5q0 -164 -63.5 -257t-196.5 -93h-219zM167 10h80q102 0 151 81t49 260q0 173 -49 263t-150 90h-81v-694zM580 0v19l310 681h-198q-51 0 -67 -18.5
t-17 -67.5l-2 -54h-10l5 154h352v-18l-310 -682h225q48 0 64.5 18t18.5 67l2 56h10l-1 -155h-382z" />
    <glyph glyph-name="uni01F2" unicode="&#x1f2;" horiz-adv-x="947" 
d="M32 0v10h19q23 0 35 5.5t16 23t4 53.5v534q0 34 -4 50.5t-16 22t-35 5.5h-19v10h220q126 0 192.5 -95.5t66.5 -268.5q0 -164 -63.5 -257t-196.5 -93h-219zM167 10h80q102 0 151 81t49 260q0 173 -49 263t-150 90h-81v-694zM592 0v19l242 503h-139q-47 0 -63 -17.5
t-20 -65.5l-2 -30h-10l9 127h284v-19l-242 -503h152q47 0 64 17t19 67l2 50h10l-6 -148h-300z" />
    <glyph glyph-name="uni01F3" unicode="&#x1f3;" horiz-adv-x="860" 
d="M199 -10q-48 0 -82.5 27t-53 87.5t-18.5 162.5q0 103 19.5 163.5t54.5 87.5t82 27q51 0 80.5 -30t41.5 -93h2q-1 46 -1.5 75.5t-0.5 56.5v117q0 37 -5 53.5t-18.5 21t-39.5 4.5h-6v10h129v-681q0 -45 12 -57t50 -12h9v-10h-131v114h-2q-13 -63 -42.5 -93.5t-79.5 -30.5z
M212 3q112 0 112 262q0 132 -23.5 199t-84.5 67q-35 0 -60 -25t-38 -83t-13 -158q0 -97 12 -154t36 -82.5t59 -25.5zM506 0v19l242 503h-139q-47 0 -63 -17.5t-20 -65.5l-2 -30h-10l9 127h284v-19l-242 -503h152q47 0 64 17t19 67l2 50h10l-6 -148h-300z" />
    <glyph glyph-name="uni01F4" unicode="&#x1f4;" horiz-adv-x="541" 
d="M307 -10q-135 0 -199 96.5t-64 271.5q0 182 70.5 274t192.5 92q59 0 96.5 -17.5t54.5 -44t17 -54.5q0 -26 -13.5 -40t-36.5 -14q0 79 -24 119.5t-92 40.5q-100 0 -151 -86t-51 -270t46 -271t156 -87q31 0 58 5t44 16v220q0 33 -4.5 49t-17.5 21t-38 5h-12v10h188v-10h-5
q-22 0 -32.5 -5.5t-14.5 -22t-4 -49.5v-208q-37 -21 -76 -31t-88 -10zM271 791v10q22 41 39.5 78.5t31.5 71.5h58v-10q-12 -18 -33.5 -44.5t-45.5 -55t-44 -50.5h-6z" />
    <glyph glyph-name="uni01F5" unicode="&#x1f5;" horiz-adv-x="412" 
d="M188 -240q-80 0 -122.5 36t-42.5 104q0 105 115 135q-34 9 -48.5 31t-14.5 48q0 24 13.5 46.5t44.5 46.5q-36 17 -57.5 57t-21.5 95q0 96 37 140.5t107 44.5q58 0 94 -41q9 20 25.5 40t42.5 20q20 0 30.5 -14.5t10.5 -32.5q0 -19 -9 -30t-24 -11q0 55 -31 55
q-23 0 -38 -34q17 -22 26 -53t9 -79q0 -80 -34 -125t-104 -45q-13 0 -27.5 2t-27.5 7q-17 -17 -23.5 -31.5t-6.5 -30.5q0 -29 18.5 -45t48.5 -16h67q71 0 102 -39t31 -102q0 -82 -48.5 -130.5t-141.5 -48.5zM195 204q43 0 63.5 36.5t20.5 124.5q0 66 -9.5 102.5t-28.5 51.5
t-48 15q-40 0 -62 -37t-22 -133q0 -86 21 -123t65 -37zM194 -230q73 0 105.5 41t32.5 112q0 50 -21.5 78.5t-80.5 28.5h-62q-43 0 -70.5 -35.5t-27.5 -93.5q0 -65 33 -98t91 -33zM175 606v10q22 41 39.5 78.5t31.5 71.5h58v-10q-12 -18 -33.5 -44.5t-45.5 -55t-44 -50.5h-6z
" />
    <glyph glyph-name="uni01F6" unicode="&#x1f6;" horiz-adv-x="805" 
d="M582 -10q-76 0 -108 42.5t-32 123.5v213h-275v-279q0 -34 3.5 -51t14 -23t32.5 -6h27v-10h-211v10h23q22 0 32.5 6t14 23t3.5 51v533q0 35 -3.5 52t-15 23t-33.5 6h-21v10h211v-10h-27q-22 0 -32.5 -6t-14 -23t-3.5 -51v-245h275v245q0 34 -3.5 51t-14 23t-32.5 6h-26v10
h213v-10h-25q-22 0 -32.5 -6t-14 -23t-3.5 -51v-489q0 -72 18 -103.5t60 -31.5q44 0 60 33t16 100v165q0 36 -4 53.5t-15 23t-34 5.5h-24v10h213v-10h-23q-23 0 -34 -6t-14.5 -23.5t-3.5 -52.5v-143q0 -76 -30.5 -120.5t-106.5 -44.5z" />
    <glyph glyph-name="uni01F7" unicode="&#x1f7;" horiz-adv-x="535" 
d="M34 -240v10h6q28 0 42 4.5t18 20t4 48.5v790q0 31 -4 46.5t-18 20t-44 4.5h-12v10h136v-126h3q16 63 54.5 99.5t103.5 36.5t103.5 -33t56 -88t17.5 -122q0 -104 -28 -187.5t-76 -145.5t-108 -102t-124 -58l-1 -145q0 -33 4 -48.5t17.5 -20t40.5 -4.5h15v-10h-206zM163 -2
q77 22 140 85t101 164t38 237q0 106 -29 166.5t-100 60.5q-68 0 -109 -61t-41 -176v-476z" />
    <glyph glyph-name="uni01F8" unicode="&#x1f8;" horiz-adv-x="586" 
d="M32 0v10h25q23 0 34.5 6t15.5 23.5t4 52.5v531q0 35 -3.5 52t-15 23t-34.5 6h-26v10h131l308 -648v557q0 35 -3.5 52t-14.5 23t-34 6h-37v10h181v-10h-30q-23 0 -34 -6t-14.5 -23.5t-3.5 -52.5v-622h-40l-320 671v-579q0 -35 3.5 -52.5t14.5 -23.5t34 -6h38v-10h-179z
M324 791q-20 22 -44.5 50.5t-45.5 55t-33 44.5v10h57q15 -34 32 -71.5t40 -78.5v-10h-6z" />
    <glyph glyph-name="uni01F9" unicode="&#x1f9;" horiz-adv-x="495" 
d="M24 0v10h7q29 0 42.5 5t18 20.5t4.5 48.5v370q0 32 -4.5 47.5t-18 20t-41.5 4.5h-5v10h128v-99h2q13 48 42.5 77.5t79.5 29.5q67 0 98 -44t31 -139v-277q0 -32 4 -48t17 -21t40 -5h4v-10h-124v367q0 77 -19.5 117t-66.5 40q-45 0 -76 -43t-31 -144v-254q0 -33 4 -48.5
t17 -20t41 -4.5h6v-10h-200zM287 606q-20 22 -44.5 50.5t-45.5 55t-33 44.5v10h57q15 -34 32 -71.5t40 -78.5v-10h-6z" />
    <glyph glyph-name="Aringacute" unicode="&#x1fa;" horiz-adv-x="536" 
d="M243 830v12q20 31 38.5 59.5t34.5 57.5h52v-9q-12 -14 -33.5 -35t-44.5 -44t-42 -41h-5zM0 0v10h33q24 0 35.5 15.5t26.5 65.5l153 510q-30 6 -51 32t-21 71q0 53 27.5 80.5t66.5 27.5q40 0 67 -27.5t27 -80.5q0 -41 -18 -67.5t-50 -31.5l182 -553q9 -26 17.5 -34
t31.5 -8h9v-10h-192v10h26q28 0 37 7t9 22q0 8 -4.5 25.5t-10.5 34.5l-44 139h-206l-37 -121q-6 -19 -12.5 -43.5t-6.5 -35.5q0 -14 10.5 -21t39.5 -7h30v-10h-175zM271 609q37 0 59 25.5t22 69.5q0 46 -22 72t-59 26q-38 0 -60.5 -26t-22.5 -72q0 -44 22.5 -69.5
t60.5 -25.5zM154 248h200l-64 203q-11 33 -18 55t-11.5 39t-9.5 35q-7 -28 -15 -53.5t-22 -74.5z" />
    <glyph glyph-name="aringacute" unicode="&#x1fb;" horiz-adv-x="429" 
d="M185 830v12q20 32 38.5 61t34.5 55h52v-9q-12 -14 -32.5 -34.5t-43.5 -42.5t-43 -42h-6zM212 582q-39 0 -66 28t-27 81t27 81t66 28t66.5 -28t27.5 -81t-27.5 -81t-66.5 -28zM213 599q30 0 52.5 21.5t22.5 70.5t-22.5 70t-52.5 21q-31 0 -53 -21t-22 -70t22 -70.5
t53 -21.5zM156 -10q-51 0 -83.5 38.5t-32.5 116.5q0 74 44 110.5t134 41.5l64 3v85q0 85 -18.5 117t-61.5 32q-41 0 -60 -32t-19 -111q-23 0 -37 12.5t-14 38.5q0 44 37 73t98 29q67 0 101 -39.5t34 -135.5v-279q0 -52 10 -66t39 -14h2v-10h-109v103h-2q-16 -55 -49 -84
t-77 -29zM174 9q32 0 56.5 23t38 62.5t13.5 89.5v106l-53 -3q-69 -3 -98.5 -37.5t-29.5 -102.5t17.5 -103t55.5 -35z" />
    <glyph glyph-name="AEacute" unicode="&#x1fc;" horiz-adv-x="727" 
d="M0 0v10h29q17 0 27 5.5t19 23.5t24 56l244 609h-92v10h411l5 -169h-10l-2 58q-2 43 -10 64.5t-27.5 29t-57.5 7.5h-142v-319h196v-10h-196l-1 -365h179q50 0 65 18t18 68l4 73h10l-5 -169h-404v10h17q23 0 35.5 5t16.5 21.5t4 49.5v171h-182l-58 -146q-11 -28 -17 -44.5
t-6 -29.5q0 -14 11.5 -20.5t39.5 -6.5h41v-10h-186zM179 267h178v437h-3zM459 771v10q22 41 39.5 78.5t31.5 71.5h58v-10q-12 -18 -33.5 -44.5t-45.5 -55t-44 -50.5h-6z" />
    <glyph glyph-name="aeacute" unicode="&#x1fd;" horiz-adv-x="642" 
d="M159 -10q-53 0 -86 37t-33 116q0 74 44 111.5t134 42.5l64 3v85q0 75 -15 112t-64 37q-47 0 -65 -35t-18 -108q-48 0 -48 51q0 44 37 73t98 29q43 0 72.5 -20.5t42.5 -68.5q38 89 123 89q73 0 115.5 -62.5t42.5 -188.5v-13h-262q1 -106 16 -166.5t43 -86.5t66 -26
q39 0 65.5 26t35.5 85q21 -6 21 -26t-15 -42.5t-45 -38t-73 -15.5q-57 0 -95 36.5t-54 104.5q-13 -58 -48.5 -99.5t-98.5 -41.5zM341 290h202q0 130 -23.5 187t-73.5 57q-46 0 -75.5 -55t-29.5 -189zM177 4q45 0 75.5 40t29.5 127v119l-53 -3q-69 -3 -98.5 -38.5
t-29.5 -105.5q0 -72 18.5 -105.5t57.5 -33.5zM323 606v10q22 41 39.5 78.5t31.5 71.5h58v-10q-12 -18 -33.5 -44.5t-45.5 -55t-44 -50.5h-6z" />
    <glyph glyph-name="Oslashacute" unicode="&#x1fe;" horiz-adv-x="566" 
d="M272 771v10q22 41 39.5 78.5t31.5 71.5h58v-10q-12 -18 -33.5 -44.5t-45.5 -55t-44 -50.5h-6zM105 -40l36 84q-49 46 -73 127t-24 188q0 175 59.5 270.5t180.5 95.5q83 0 137 -45l33 75h10l-36 -82q94 -85 94 -315q0 -172 -62.5 -270t-176.5 -98q-41 0 -74.5 12t-59.5 35
l-34 -77h-10zM157 80l250 569q-42 66 -123 66q-94 0 -135.5 -87.5t-41.5 -269.5q0 -189 50 -278zM283 0q176 0 176 358q0 97 -11 167t-35 114l-250 -570q43 -69 120 -69z" />
    <glyph glyph-name="oslashacute" unicode="&#x1ff;" horiz-adv-x="439" 
d="M192 606v10q22 41 39.5 78.5t31.5 71.5h58v-10q-12 -18 -33.5 -44.5t-45.5 -55t-44 -50.5h-6zM64 -40l40 80q-28 34 -43.5 90.5t-15.5 137.5q0 139 43 207.5t133 68.5q69 0 111 -44l37 76h11l-42 -84q56 -68 56 -224q0 -145 -44.5 -211.5t-130.5 -66.5q-66 0 -108 43
l-36 -73h-11zM126 85l185 375q-25 74 -92 74q-63 0 -88.5 -62t-25.5 -204q0 -118 21 -183zM220 0q64 0 89 63.5t25 204.5q0 58 -4 103t-14 76l-185 -375q26 -72 89 -72z" />
    <glyph glyph-name="uni0200" unicode="&#x200;" horiz-adv-x="536" 
d="M0 0v10h27q26 0 37.5 15t24.5 66l163 623h42l183 -662q7 -26 17 -34t35 -8h7v-10h-192v10h25q30 0 39 7t9 20q0 11 -5 28t-10 35l-41 160h-217l-37 -142q-6 -22 -11.5 -45t-5.5 -35q0 -15 10 -21.5t38 -6.5h37v-10h-175zM147 270h211l-63 241q-19 72 -28 107.5t-15 61.5
q-5 -22 -9 -39t-8.5 -36t-12.5 -48zM205 771q-21 24 -44 51t-44 53t-34 46l2 10h67q12 -34 29 -74.5t34 -74.5l-2 -11h-8zM353 771q-21 24 -44.5 51t-44 53t-33.5 46l2 10h67q11 -34 28.5 -74.5t34.5 -74.5l-2 -11h-8z" />
    <glyph glyph-name="uni0201" unicode="&#x201;" horiz-adv-x="429" 
d="M152 -10q-52 0 -84.5 37.5t-32.5 113.5q0 77 44 114t134 42l64 3v85q0 84 -18.5 116.5t-60.5 32.5t-61.5 -31.5t-19.5 -111.5q-23 0 -36.5 12.5t-13.5 38.5q0 44 37 73t99 29q66 0 100 -40t34 -135v-279q0 -52 10 -66t39 -14h2v-10h-109v103h-2q-16 -55 -48.5 -84
t-76.5 -29zM169 9q32 0 56.5 23t38 62.5t13.5 89.5v106l-53 -3q-72 -4 -100 -41t-28 -106q0 -131 73 -131zM136 606q-21 24 -44 51t-44 53t-34 46l2 10h67q12 -34 29 -74.5t34 -74.5l-2 -11h-8zM284 606q-21 24 -44.5 51t-44 53t-33.5 46l2 10h67q11 -34 28.5 -74.5
t34.5 -74.5l-2 -11h-8z" />
    <glyph glyph-name="uni0202" unicode="&#x202;" horiz-adv-x="536" 
d="M0 0v10h27q26 0 37.5 15t24.5 66l163 623h42l183 -662q7 -26 17 -34t35 -8h7v-10h-192v10h25q30 0 39 7t9 20q0 11 -5 28t-10 35l-41 160h-217l-37 -142q-6 -22 -11.5 -45t-5.5 -35q0 -15 10 -21.5t38 -6.5h37v-10h-175zM147 270h211l-63 241q-19 72 -28 107.5t-15 61.5
q-5 -22 -9 -39t-8.5 -36t-12.5 -48zM167 771q1 56 26.5 90t78.5 34t77.5 -34t25.5 -90h-10q-7 46 -27 64t-66 18q-48 0 -68.5 -18.5t-26.5 -63.5h-10z" />
    <glyph glyph-name="uni0203" unicode="&#x203;" horiz-adv-x="429" 
d="M157 -10q-52 0 -84.5 37.5t-32.5 113.5q0 77 44 114t134 42l64 3v85q0 84 -18.5 116.5t-60.5 32.5t-61.5 -31.5t-19.5 -111.5q-23 0 -36.5 12.5t-13.5 38.5q0 44 37 73t99 29q66 0 100 -40t34 -135v-279q0 -52 10 -66t39 -14h2v-10h-109v103h-2q-16 -55 -48.5 -84
t-76.5 -29zM174 9q32 0 56.5 23t38 62.5t13.5 89.5v106l-53 -3q-72 -4 -100 -41t-28 -106q0 -131 73 -131zM99 606q1 56 26.5 90t78.5 34t77.5 -34t25.5 -90h-10q-7 46 -27 64t-66 18q-48 0 -68.5 -18.5t-26.5 -63.5h-10z" />
    <glyph glyph-name="uni0204" unicode="&#x204;" horiz-adv-x="476" 
d="M32 0v10h19q22 0 34 5.5t16.5 22.5t4.5 53v530q0 37 -4.5 54.5t-16 23t-34.5 5.5h-19v10h379l5 -169h-10l-2 58q-2 43 -10 64.5t-28 29t-59 7.5h-141v-325h196v-10h-196l-1 -359h170q37 0 56.5 6.5t27 25t9.5 54.5l4 73h10l-5 -169h-405zM188 771q-21 24 -44 51t-44 53
t-34 46l2 10h67q12 -34 29 -74.5t34 -74.5l-2 -11h-8zM336 771q-21 24 -44.5 51t-44 53t-33.5 46l2 10h67q11 -34 28.5 -74.5t34.5 -74.5l-2 -11h-8z" />
    <glyph glyph-name="uni0205" unicode="&#x205;" horiz-adv-x="407" 
d="M215 -10q-84 0 -129.5 71.5t-45.5 201.5q0 141 43.5 211t122.5 70q76 0 116 -66.5t40 -182.5v-16h-263q0 -149 33 -213.5t93 -64.5q86 0 103 111q19 -5 19 -26q0 -19 -14.5 -41.5t-44 -38.5t-73.5 -16zM99 289h204q-1 123 -22.5 184t-74.5 61t-79 -60t-28 -185zM145 606
q-21 24 -44 51t-44 53t-34 46l2 10h67q12 -34 29 -74.5t34 -74.5l-2 -11h-8zM293 606q-21 24 -44.5 51t-44 53t-33.5 46l2 10h67q11 -34 28.5 -74.5t34.5 -74.5l-2 -11h-8z" />
    <glyph glyph-name="uni0206" unicode="&#x206;" horiz-adv-x="476" 
d="M32 0v10h19q22 0 34 5.5t16.5 22.5t4.5 53v530q0 37 -4.5 54.5t-16 23t-34.5 5.5h-19v10h379l5 -169h-10l-2 58q-2 43 -10 64.5t-28 29t-59 7.5h-141v-325h196v-10h-196l-1 -359h170q37 0 56.5 6.5t27 25t9.5 54.5l4 73h10l-5 -169h-405zM141 771q1 56 26.5 90t78.5 34
t77.5 -34t25.5 -90h-10q-7 46 -27 64t-66 18q-48 0 -68.5 -18.5t-26.5 -63.5h-10z" />
    <glyph glyph-name="uni0207" unicode="&#x207;" horiz-adv-x="407" 
d="M220 -10q-84 0 -129.5 71.5t-45.5 201.5q0 141 43.5 211t122.5 70q76 0 116 -66.5t40 -182.5v-16h-263q0 -149 33 -213.5t93 -64.5q86 0 103 111q19 -5 19 -26q0 -19 -14.5 -41.5t-44 -38.5t-73.5 -16zM104 289h204q-1 123 -22.5 184t-74.5 61t-79 -60t-28 -185zM106 606
q1 56 26.5 90t78.5 34t77.5 -34t25.5 -90h-10q-7 46 -27 64t-66 18q-48 0 -68.5 -18.5t-26.5 -63.5h-10z" />
    <glyph glyph-name="uni0208" unicode="&#x208;" horiz-adv-x="277" 
d="M27 0v10h26q32 0 41 14.5t9 65.5v533q0 52 -9 66.5t-41 14.5h-26v10h213v-10h-26q-22 0 -33 -6t-14.5 -23t-3.5 -52v-533q0 -51 9 -65.5t42 -14.5h26v-10h-213zM76 771q-21 24 -44 51t-44 53t-34 46l2 10h67q12 -34 29 -74.5t34 -74.5l-2 -11h-8zM224 771
q-21 24 -44.5 51t-44 53t-33.5 46l2 10h67q11 -34 28.5 -74.5t34.5 -74.5l-2 -11h-8z" />
    <glyph glyph-name="uni0209" unicode="&#x209;" horiz-adv-x="241" 
d="M14 0v10h15q27 0 40.5 5t18 21t4.5 49v365q0 33 -4.5 49t-17 21.5t-37.5 5.5h-9v10h128v-451q0 -33 4.5 -49t18.5 -21t40 -5h12v-10h-213zM49 606q-21 24 -44 51t-44 53t-34 46l2 10h67q12 -34 29 -74.5t34 -74.5l-2 -11h-8zM197 606q-21 24 -44.5 51t-44 53t-33.5 46
l2 10h67q11 -34 28.5 -74.5t34.5 -74.5l-2 -11h-8z" />
    <glyph glyph-name="uni020A" unicode="&#x20a;" horiz-adv-x="277" 
d="M32 0v10h26q32 0 41 14.5t9 65.5v533q0 52 -9 66.5t-41 14.5h-26v10h213v-10h-26q-22 0 -33 -6t-14.5 -23t-3.5 -52v-533q0 -51 9 -65.5t42 -14.5h26v-10h-213zM34 771q1 56 26.5 90t78.5 34t77.5 -34t25.5 -90h-10q-7 46 -27 64t-66 18q-48 0 -68.5 -18.5t-26.5 -63.5
h-10z" />
    <glyph glyph-name="uni020B" unicode="&#x20b;" horiz-adv-x="241" 
d="M19 0v10h15q27 0 40.5 5t18 21t4.5 49v365q0 33 -4.5 49t-17 21.5t-37.5 5.5h-9v10h128v-451q0 -33 4.5 -49t18.5 -21t40 -5h12v-10h-213zM8 606q1 56 26.5 90t78.5 34t77.5 -34t25.5 -90h-10q-7 46 -27 64t-66 18q-48 0 -68.5 -18.5t-26.5 -63.5h-10z" />
    <glyph glyph-name="uni020C" unicode="&#x20c;" horiz-adv-x="567" 
d="M283 -10q-81 0 -134 46t-79 129t-26 194q0 175 59.5 270.5t180.5 95.5q238 0 238 -367q0 -172 -62.5 -270t-176.5 -98zM283 0q176 0 176 358q0 182 -39 269.5t-136 87.5q-94 0 -135.5 -87.5t-41.5 -269.5q0 -176 43.5 -267t132.5 -91zM226 771q-21 24 -44 51t-44 53
t-34 46l2 10h67q12 -34 29 -74.5t34 -74.5l-2 -11h-8zM374 771q-21 24 -44.5 51t-44 53t-33.5 46l2 10h67q11 -34 28.5 -74.5t34.5 -74.5l-2 -11h-8z" />
    <glyph glyph-name="uni020D" unicode="&#x20d;" horiz-adv-x="439" 
d="M219 -10q-83 0 -128.5 68t-45.5 210q0 139 43 207.5t133 68.5q173 0 173 -276q0 -145 -44.5 -211.5t-130.5 -66.5zM220 0q64 0 89 63.5t25 204.5q0 142 -25 204t-90 62q-63 0 -88.5 -62t-25.5 -204t27.5 -205t87.5 -63zM163 606q-21 24 -44 51t-44 53t-34 46l2 10h67
q12 -34 29 -74.5t34 -74.5l-2 -11h-8zM311 606q-21 24 -44.5 51t-44 53t-33.5 46l2 10h67q11 -34 28.5 -74.5t34.5 -74.5l-2 -11h-8z" />
    <glyph glyph-name="uni020E" unicode="&#x20e;" horiz-adv-x="567" 
d="M283 -10q-81 0 -134 46t-79 129t-26 194q0 175 59.5 270.5t180.5 95.5q238 0 238 -367q0 -172 -62.5 -270t-176.5 -98zM283 0q176 0 176 358q0 182 -39 269.5t-136 87.5q-94 0 -135.5 -87.5t-41.5 -269.5q0 -176 43.5 -267t132.5 -91zM178 771q1 56 26.5 90t78.5 34
t77.5 -34t25.5 -90h-10q-7 46 -27 64t-66 18q-48 0 -68.5 -18.5t-26.5 -63.5h-10z" />
    <glyph glyph-name="uni020F" unicode="&#x20f;" horiz-adv-x="439" 
d="M219 -10q-83 0 -128.5 68t-45.5 210q0 139 43 207.5t133 68.5q173 0 173 -276q0 -145 -44.5 -211.5t-130.5 -66.5zM220 0q64 0 89 63.5t25 204.5q0 142 -25 204t-90 62q-63 0 -88.5 -62t-25.5 -204t27.5 -205t87.5 -63zM115 606q1 56 26.5 90t78.5 34t77.5 -34t25.5 -90
h-10q-7 46 -27 64t-66 18q-48 0 -68.5 -18.5t-26.5 -63.5h-10z" />
    <glyph glyph-name="uni0210" unicode="&#x210;" horiz-adv-x="497" 
d="M32 0v10h21q23 0 34.5 6t15 23t3.5 52v532q0 35 -3.5 52t-15 23t-34.5 6h-21v10h196q108 0 152.5 -48.5t44.5 -138.5q0 -82 -31.5 -129.5t-92.5 -66.5l117 -227q22 -42 35.5 -62t23.5 -26t21 -6h5v-10h-12q-33 0 -56.5 8t-42 28t-36.5 58l-113 230h-76v-233
q0 -35 3.5 -52t15 -23t34.5 -6h24v-10h-212zM167 334h56q76 0 107 47t31 145q0 91 -30 134.5t-104 43.5h-60v-370zM180 771q-21 24 -44 51t-44 53t-34 46l2 10h67q12 -34 29 -74.5t34 -74.5l-2 -11h-8zM328 771q-21 24 -44.5 51t-44 53t-33.5 46l2 10h67q11 -34 28.5 -74.5
t34.5 -74.5l-2 -11h-8z" />
    <glyph glyph-name="uni0211" unicode="&#x211;" horiz-adv-x="353" 
d="M26 0v10h1q29 0 43 4.5t18.5 20t4.5 48.5v370q0 33 -4 48.5t-18 20t-44 4.5h-3v10h129v-121h2q14 55 38 92.5t74 37.5q36 0 54 -19.5t18 -48.5q0 -25 -12.5 -39t-36.5 -14q0 56 -8.5 77.5t-33.5 21.5q-43 0 -68.5 -61.5t-25.5 -173.5v-205q0 -33 4.5 -48.5t19.5 -20
t45 -4.5h11v-10h-208zM139 606q-21 24 -44 51t-44 53t-34 46l2 10h67q12 -34 29 -74.5t34 -74.5l-2 -11h-8zM287 606q-21 24 -44.5 51t-44 53t-33.5 46l2 10h67q11 -34 28.5 -74.5t34.5 -74.5l-2 -11h-8z" />
    <glyph glyph-name="uni0212" unicode="&#x212;" horiz-adv-x="497" 
d="M32 0v10h21q23 0 34.5 6t15 23t3.5 52v532q0 35 -3.5 52t-15 23t-34.5 6h-21v10h196q108 0 152.5 -48.5t44.5 -138.5q0 -82 -31.5 -129.5t-92.5 -66.5l117 -227q22 -42 35.5 -62t23.5 -26t21 -6h5v-10h-12q-33 0 -56.5 8t-42 28t-36.5 58l-113 230h-76v-233
q0 -35 3.5 -52t15 -23t34.5 -6h24v-10h-212zM167 334h56q76 0 107 47t31 145q0 91 -30 134.5t-104 43.5h-60v-370zM136 771q1 56 26.5 90t78.5 34t77.5 -34t25.5 -90h-10q-7 46 -27 64t-66 18q-48 0 -68.5 -18.5t-26.5 -63.5h-10z" />
    <glyph glyph-name="uni0213" unicode="&#x213;" horiz-adv-x="353" 
d="M29 0v10h1q29 0 43 4.5t18.5 20t4.5 48.5v370q0 33 -4 48.5t-18 20t-44 4.5h-3v10h129v-121h2q14 55 38 92.5t74 37.5q36 0 54 -19.5t18 -48.5q0 -25 -12.5 -39t-36.5 -14q0 56 -8.5 77.5t-33.5 21.5q-43 0 -68.5 -61.5t-25.5 -173.5v-205q0 -33 4.5 -48.5t19.5 -20
t45 -4.5h11v-10h-208zM89 606q1 56 26.5 90t78.5 34t77.5 -34t25.5 -90h-10q-7 46 -27 64t-66 18q-48 0 -68.5 -18.5t-26.5 -63.5h-10z" />
    <glyph glyph-name="uni0214" unicode="&#x214;" horiz-adv-x="549" 
d="M276 -10q-86 0 -138.5 52t-52.5 173v410q0 35 -4.5 51.5t-16.5 22t-34 5.5h-19v10h213v-10h-23q-22 0 -34 -5.5t-16.5 -23t-4.5 -53.5v-425q0 -105 38 -148t102 -43q60 0 94.5 25.5t48.5 70t14 103.5v419q0 35 -4.5 52t-16.5 22.5t-35 5.5h-39v10h189v-10h-32
q-21 0 -32.5 -5.5t-15.5 -23t-4 -53.5v-419q0 -101 -41.5 -157t-135.5 -56zM224 771q-21 24 -44 51t-44 53t-34 46l2 10h67q12 -34 29 -74.5t34 -74.5l-2 -11h-8zM372 771q-21 24 -44.5 51t-44 53t-33.5 46l2 10h67q11 -34 28.5 -74.5t34.5 -74.5l-2 -11h-8z" />
    <glyph glyph-name="uni0215" unicode="&#x215;" horiz-adv-x="486" 
d="M213 -10q-61 0 -95 45t-34 149v270q0 32 -4.5 47.5t-18.5 20t-43 4.5h-3v10h128v-367q0 -83 21 -121t67 -38q54 0 80.5 52.5t26.5 137.5v242q0 38 -3.5 56t-17 23t-44.5 5h-2v10h127v-449q0 -35 4 -51.5t18 -21t44 -4.5h3v-10h-128v103h-2q-13 -54 -44.5 -83.5
t-79.5 -29.5zM173 606q-21 24 -44 51t-44 53t-34 46l2 10h67q12 -34 29 -74.5t34 -74.5l-2 -11h-8zM321 606q-21 24 -44.5 51t-44 53t-33.5 46l2 10h67q11 -34 28.5 -74.5t34.5 -74.5l-2 -11h-8z" />
    <glyph glyph-name="uni0216" unicode="&#x216;" horiz-adv-x="549" 
d="M276 -10q-86 0 -138.5 52t-52.5 173v410q0 35 -4.5 51.5t-16.5 22t-34 5.5h-19v10h213v-10h-23q-22 0 -34 -5.5t-16.5 -23t-4.5 -53.5v-425q0 -105 38 -148t102 -43q60 0 94.5 25.5t48.5 70t14 103.5v419q0 35 -4.5 52t-16.5 22.5t-35 5.5h-39v10h189v-10h-32
q-21 0 -32.5 -5.5t-15.5 -23t-4 -53.5v-419q0 -101 -41.5 -157t-135.5 -56zM183 771q1 56 26.5 90t78.5 34t77.5 -34t25.5 -90h-10q-7 46 -27 64t-66 18q-48 0 -68.5 -18.5t-26.5 -63.5h-10z" />
    <glyph glyph-name="uni0217" unicode="&#x217;" horiz-adv-x="486" 
d="M213 -10q-61 0 -95 45t-34 149v270q0 32 -4.5 47.5t-18.5 20t-43 4.5h-3v10h128v-367q0 -83 21 -121t67 -38q54 0 80.5 52.5t26.5 137.5v242q0 38 -3.5 56t-17 23t-44.5 5h-2v10h127v-449q0 -35 4 -51.5t18 -21t44 -4.5h3v-10h-128v103h-2q-13 -54 -44.5 -83.5
t-79.5 -29.5zM123 606q1 56 26.5 90t78.5 34t77.5 -34t25.5 -90h-10q-7 46 -27 64t-66 18q-48 0 -68.5 -18.5t-26.5 -63.5h-10z" />
    <glyph glyph-name="uni0218" unicode="&#x218;" horiz-adv-x="411" 
d="M200 -10q-58 0 -93 21.5t-50.5 53t-15.5 60.5q0 23 11 40t33 17q0 -81 28.5 -131.5t95.5 -50.5q55 0 85.5 37t30.5 115q0 52 -15 83.5t-45 55t-75 50.5q-63 37 -98 84t-35 121q0 82 43.5 130t116.5 48q47 0 78 -17.5t47 -44t16 -53.5q0 -49 -47 -49q0 154 -100 154
q-49 0 -77.5 -38t-28.5 -108q0 -48 14.5 -78.5t42.5 -53t69 -47.5q41 -26 73 -52t50.5 -62.5t18.5 -95.5q0 -88 -43.5 -138.5t-129.5 -50.5zM163 -221v9q10 38 16.5 74.5t9.5 76.5h47v-9q-14 -44 -32.5 -83t-34.5 -68h-6z" />
    <glyph glyph-name="uni0219" unicode="&#x219;" horiz-adv-x="340" 
d="M162 -10q-46 0 -74.5 16.5t-41 41t-12.5 49.5q0 27 12 39.5t28 12.5q0 -77 21 -113t70 -36q44 0 69.5 28.5t25.5 87.5q0 32 -9 52.5t-29 38t-55 40.5t-62 44t-41.5 48.5t-14.5 69.5q0 64 34.5 99t95.5 35q55 0 85 -26.5t30 -66.5q0 -50 -41 -50q0 70 -17.5 101.5
t-58.5 31.5t-62 -27.5t-21 -73.5q0 -48 24 -76t76 -59q30 -18 55 -37.5t40.5 -48.5t15.5 -75q0 -68 -36.5 -107t-106.5 -39zM129 -221v9q10 38 16.5 74.5t9.5 76.5h47v-9q-14 -44 -32.5 -83t-34.5 -68h-6z" />
    </font>
</defs>
</svg>
