<?xml version="1.0" encoding="utf-8"?>
<!-- Generator: Adobe Illustrator 23.0.1, SVG Export Plug-In . SVG Version: 6.00 Build 0)  -->
<svg version="1.0" id="Layer_1" xmlns="http://www.w3.org/2000/svg" xmlns:xlink="http://www.w3.org/1999/xlink" x="0px" y="0px"
	 viewBox="0 0 279.7 201.8" style="enable-background:new 0 0 279.7 201.8;" xml:space="preserve">
<g>
	<path d="M74,52.8c0-0.7,0.4-1.1,1.2-1.1h60.5c0.8,0,1.2,0.4,1.2,1.1v13.4c0,0.8-0.4,1.2-1.2,1.2h-21.1c-0.8,0-1.2,0.4-1.2,1.1v80.3
		c0,0.8-0.4,1.2-1.1,1.2H98.9c-0.8,0-1.2-0.4-1.2-1.2V68.6c0-0.8-0.4-1.1-1.1-1.1H75.3c-0.8,0-1.2-0.4-1.2-1.2V52.8z"/>
	<g>
		<path d="M195.2,100.9c6.4-5.5,10.5-13.7,10.5-22.8c0-16.5-13.4-29.9-29.9-29.9s-29.9,13.4-29.9,29.9c0,9.1,4.1,17.3,10.5,22.8
			c-6.4,5.5-10.5,13.7-10.5,22.8c0,16.5,13.4,29.9,29.9,29.9s29.9-13.4,29.9-29.9C205.7,114.6,201.6,106.4,195.2,100.9z M160.2,78.1
			c0-8.6,7-15.6,15.6-15.6s15.6,7,15.6,15.6s-7,15.6-15.6,15.6S160.2,86.7,160.2,78.1z M175.7,139.3c-8.6,0-15.6-7-15.6-15.6
			s7-15.6,15.6-15.6s15.6,7,15.6,15.6S184.3,139.3,175.7,139.3z"/>
	</g>
</g>
<g>
	<path d="M139.9,188.7c-35.2,0-68.3-8.8-93.4-24.9c-25.9-16.6-40.1-38.9-40.1-62.9S20.6,54.6,46.5,38c25-16.1,58.2-24.9,93.4-24.9
		s68.3,8.8,93.4,24.9c25.9,16.6,40.1,38.9,40.1,62.9s-14.2,46.3-40.1,62.9C208.2,179.9,175,188.7,139.9,188.7z M139.9,17.4
		c-34.4,0-66.7,8.6-91,24.2c-24.6,15.8-38.1,36.8-38.1,59.3s13.5,43.5,38.1,59.3c24.3,15.6,56.7,24.2,91,24.2
		c34.4,0,66.7-8.6,91-24.2c24.6-15.8,38.1-36.8,38.1-59.3s-13.5-43.5-38.1-59.3C206.6,26,174.2,17.4,139.9,17.4z"/>
</g>
<path d="M139.9,181c-69.3,0-125.7-35.9-125.7-80.1s56.4-80.1,125.7-80.1c69.3,0,125.7,35.9,125.7,80.1S209.2,181,139.9,181z
	 M139.9,25.1c-66.9,0-121.4,34-121.4,75.8s54.5,75.8,121.4,75.8s121.4-34,121.4-75.8S206.8,25.1,139.9,25.1z"/>
</svg>
